<?xml version="1.0" encoding="UTF-8" standalone="no"?>
<!DOCTYPE svg PUBLIC "-//W3C//DTD SVG 1.1//EN" "http://www.w3.org/Graphics/SVG/1.1/DTD/svg11.dtd">
<svg>
<metadata>
Created by FontForge 20090914 at Fri Jan  8 12:15:42 2016
 By www-data
Copyright (c) 2000 by Hassan Hameed. All rights reserved.
</metadata>
<defs>
<font id="MVAaamuFK" horiz-adv-x="1253">
  <font-face font-family="MV Aaamu FK" font-weight="400" font-stretch="normal" units-per-em="2048" panose-1="2 0 5 0 3 2 0 9 0 0" ascent="1638" descent="-410" x-height="1071" cap-height="1501" bbox="-289 -1290.04 2076 2128" underline-thickness="100" underline-position="-950" unicode-range="U+0020-U+FDF2"/>
<missing-glyph horiz-adv-x="2048" d="M256 0v1536h1536v-1536h-1536zM384 128h1280v1280h-1280v-1280z"/>
    <glyph glyph-name="uniFDF2" unicode="ﷲ" horiz-adv-x="2286" arabic-form="isolated" d="M1035 962c12.667 -34.667 24.665 -78.3369 35.998 -131.004s21.833 -105.5 31.5 -158.5l27.5 -147c8.66699 -45 16.334 -77.833 23.001 -98.5c11.333 -32.667 32.166 -55.667 62.499 -69s67.833 -20 112.5 -20c20 0 38.5 2.5 55.5 7.5s25.5 14.5 25.5 28.5 c0 3.33301 -0.666992 9 -2 17c-20 80.667 -41.333 161.5 -64 242.5s-39.334 157.833 -50.001 230.5c0 4.66699 5.16699 16.334 15.5 35.001s23.333 39.167 39 61.5s32.5 44.166 50.5 65.499s33.667 37.666 47 48.999c16 -78 31.5 -150 46.5 -216s30.5 -128 46.5 -186 c6 -23.333 11.833 -47.666 17.5 -72.999s11 -51 16 -77s9 -51.667 12 -77s4.5 -49.333 4.5 -72c0 -25.333 -2.83301 -51.666 -8.5 -78.999s-13.167 -53 -22.5 -77s-19.166 -45.5 -29.499 -64.5s-19.833 -32.833 -28.5 -41.5c-18.667 -19.333 -43.167 -32.833 -73.5 -40.5 s-63.833 -11.5 -100.5 -11.5c-34.667 0 -65.167 3.33301 -91.5 10s-49.666 17 -69.999 31s-38.333 31.667 -54 53s-30.167 47 -43.5 77h-7c-6 -23.333 -14.5 -47.5 -25.5 -72.5s-23.5 -46.167 -37.5 -63.5c-2.66699 -4.66699 -10.334 -9.33398 -23.001 -14.001 s-27.834 -9 -45.501 -13s-36.5 -7.5 -56.5 -10.5s-39.333 -4.5 -58 -4.5c-30.667 0 -58.334 2.16699 -83.001 6.5s-47 12.5 -67 24.5s-37.833 29 -53.5 51s-29.5 49.667 -41.5 83c-8.66699 -15.333 -17.167 -29.666 -25.5 -42.999l-22.5 -36.5l-16.5 -27 c-4.33301 -7 -7.16602 -10.833 -8.49902 -11.5c-10 -5.33301 -25.5 -10 -46.5 -14s-45.167 -6 -72.5 -6c-53.333 0 -97.166 4.66699 -131.499 14s-61.666 21 -81.999 35s-34.5 29.833 -42.5 47.5s-12 34.834 -12 51.501c0 18.667 3 39.167 9 61.5s14 44.333 24 66 s20.833 42.834 32.5 63.501s22.834 39 33.501 55c8 12.667 18.167 26.167 30.5 40.5s29.5 31 51.5 50s48.833 40 80.5 63s71.167 47.833 118.5 74.5l-3 58c5.33301 7.33301 14.666 17 27.999 29l43.5 37.5l47 37.5l37.5 29c0 -44.667 1.5 -89.834 4.5 -135.501 s6 -88.334 9 -128.001s6.5 -74.5 10.5 -104.5s7.33301 -52.667 10 -68c8 -41.333 25.167 -73.666 51.5 -96.999s65.833 -35 118.5 -35c48 0 81.5 4.83301 100.5 14.5s28.5 26.834 28.5 51.501c0 7.33301 -2 20 -6 38l-14 61c-5.33301 22.667 -11.5 47.5 -18.5 74.5l-20 79.5 c-6.33301 26 -11.666 50.167 -15.999 72.5s-6.83301 40.833 -7.5 55.5c5.33301 12.667 14.333 28.5 27 47.5s26.5 38 41.5 57s29.333 36.333 43 52s24.167 26.834 31.5 33.501zM1117 1392c0.666992 -16 2.83398 -33.333 6.50098 -52l11 -55c3.66699 -18 7 -35.667 10 -53 s4.5 -32 4.5 -44c0 -23.333 -2.5 -44.833 -7.5 -64.5s-12.333 -36.834 -22 -51.501s-21.334 -26.167 -35.001 -34.5s-29.5 -12.5 -47.5 -12.5c-16 0 -32.667 2.16699 -50 6.5s-33 11.166 -47 20.499c-24.667 -20.667 -47.667 -35.834 -69 -45.501s-41 -14.5 -59 -14.5 c-14 0 -27.167 2 -39.5 6s-23.666 10.5 -33.999 19.5s-18.5 21 -24.5 36s-9 34.167 -9 57.5c0 14.667 2 31.334 6 50.001s9.83301 37.167 17.5 55.5s17.167 35.333 28.5 51s24.666 26.834 39.999 33.501l5 -2c1.33301 -6.66699 2 -10.667 2 -12 c0 -9.33301 -1 -17.666 -3 -24.999s-4.16699 -14.333 -6.5 -21s-4.5 -13.5 -6.5 -20.5s-3 -15.5 -3 -25.5c0 -18.667 3.83301 -32.334 11.5 -41.001s17.167 -13 28.5 -13c16 0 30 6 42 18s18 25.333 18 40c0 10.667 0.333008 20.5 1 29.5s2.66699 19.167 6 30.5 c3.33301 3.33301 8 7.5 14 12.5s12.333 10 19 15l19.5 14c6.33301 4.33301 11.5 7.5 15.5 9.5c1.33301 -22 2.33301 -40.667 3 -56s1.66699 -29 3 -41c2.66699 -16 11.167 -27.667 25.5 -35s29.833 -11 46.5 -11c11.333 0 18.5 1.33301 21.5 4s4.5 7 4.5 13 c0 4 -1.16699 10 -3.5 18l-7.5 26.5c-2.66699 9.66699 -5 19.167 -7 28.5s-3 17 -3 23c0 7.33301 2 15.833 6 25.5s9.16699 19.334 15.5 29.001s14 19.667 23 30s17.833 19.833 26.5 28.5zM532.998 342.997l-22.999 193.001c-14 -4.66699 -33.667 -13.167 -59 -25.5 s-50 -26.166 -74 -41.499s-44.833 -31.333 -62.5 -48s-26.5 -32.334 -26.5 -47.001c0 -12.667 13.667 -22.334 41 -29.001s63.666 -10 108.999 -10c22.667 0 41 0.666992 55 2s27.333 3.33301 40 6zM875.999 1315c0.666992 4 0.999023 7.33496 0.999023 10.002v11 c0 33.333 -4.66699 67.833 -14 103.5s-22 73.167 -38 112.5c4.66699 8.66699 10.834 19.167 18.501 31.5l24.5 38.5c8.66699 13.333 17.667 25.5 27 36.5s17.666 20.167 24.999 27.5c8.66699 -23.333 15.834 -46.333 21.501 -69s10.5 -44.834 14.5 -66.501 s7 -41.334 9 -59.001s3 -33.167 3 -46.5c0 -25.333 -8.66699 -48.5 -26 -69.5s-37.333 -42.167 -60 -63.5zM1803 1224c74.667 100 144.667 180.331 210 240.998c4 -46.667 8.33301 -102.167 13 -166.5l14.5 -203.5c5 -71.333 9.66699 -143.833 14 -217.5 s8.16602 -143 11.5 -208c3.33301 -65 5.83301 -122.833 7.5 -173.5s2.5 -89.667 2.5 -117c0 -61.333 -19.667 -121.666 -59 -180.999c-61.333 -89.333 -113.666 -147.333 -156.999 -174c2.66699 26 4.66699 50.667 6 74s2 45 2 65c0 36.667 -1.66699 83 -5 139 s-7.5 116.833 -12.5 182.5l-16 205.5c-5.66699 71.333 -10.834 140.333 -15.501 207s-8.5 128.334 -11.5 185.001s-4.5 104 -4.5 142z"/>
    <glyph glyph-name=".notdef" horiz-adv-x="2048" d="M256 0v1536h1536v-1536h-1536zM384 128h1280v1280h-1280v-1280z"/>
    <glyph glyph-name="space" unicode=" " horiz-adv-x="1000"/>
    <glyph glyph-name="exclam" unicode="!" horiz-adv-x="775" d="M485 1106c0 -15.333 -0.833008 -31.165 -2.5 -47.498s-3.5 -32.5 -5.5 -48.5l-63 -480c-4 -30 -13.333 -50 -28 -60s-35.334 -15 -62.001 -15c-27.333 0 -48.166 5.16699 -62.499 15.5s-23.833 30.166 -28.5 59.499l-63 480c-2 16 -3.83301 32.167 -5.5 48.5 s-2.5 32.166 -2.5 47.499v237c0 52.667 14 92.167 42 118.5s68 39.5 120 39.5c51.333 0 91 -13.167 119 -39.5s42 -65.833 42 -118.5v-237zM156 154.001c0 22.667 4.33301 44.334 13 65.001s20.667 38.5 36 53.5s33.166 27 53.499 36s42.166 13.5 65.499 13.5 c22.667 0 44.334 -4.5 65.001 -13.5s38.5 -21 53.5 -36s27 -32.833 36 -53.5s13.5 -42.334 13.5 -65.001c0 -23.333 -4.5 -45.166 -13.5 -65.499s-21 -38.166 -36 -53.499s-32.833 -27.333 -53.5 -36s-42.334 -13 -65.001 -13c-23.333 0 -45.166 4.33301 -65.499 13 s-38.166 20.667 -53.499 36s-27.333 33.166 -36 53.499s-13 42.166 -13 65.499z"/>
    <glyph glyph-name="quotedbl" unicode="&quot;" horiz-adv-x="1100" d="M612 1358c0 20.667 3.16699 39.833 9.5 57.5s15.5 32.834 27.5 45.501s26.333 22.5 43 29.5s35.334 10.5 56.001 10.5c40.667 0 73.334 -13.333 98.001 -40s37 -61 37 -103v-334c0 -42 -12.333 -76.333 -37 -103s-57.334 -40 -98.001 -40 c-20.667 0 -39.334 3.5 -56.001 10.5s-31 16.833 -43 29.5s-21.167 27.667 -27.5 45s-9.5 36.666 -9.5 57.999v334zM217 1358c0 42 12.167 76.333 36.5 103s57.166 40 98.499 40s74.166 -13.333 98.499 -40s36.5 -61 36.5 -103v-334c0 -42 -12.167 -76.333 -36.5 -103 s-57.166 -40 -98.499 -40s-74.166 13.333 -98.499 40s-36.5 61 -36.5 103v334z"/>
    <glyph glyph-name="numbersign" unicode="#" d="M344 838l-77.999 -0.00195312c-18 0 -33.167 2.83301 -45.5 8.5s-22.333 13 -30 22s-13.334 19.5 -17.001 31.5s-5.5 24 -5.5 36s1.83301 24 5.5 36s9.33398 22.5 17.001 31.5s17.667 16.333 30 22s27.5 8.5 45.5 8.5h107l43 316c2 14.667 5.33301 28.5 10 41.5 s11.334 24.167 20.001 33.5s19.834 16.833 33.501 22.5s30.5 8.5 50.5 8.5c26 0 48.333 -7.66699 67 -23s28 -35.666 28 -60.999c0 -6 -0.5 -14.667 -1.5 -26s-2.83301 -26.666 -5.5 -45.999l-36 -266h180l43 316c2 14.667 5.33301 28.5 10 41.5s11.334 24.167 20.001 33.5 s19.834 16.833 33.501 22.5s30.834 8.5 51.501 8.5c25.333 0 47.333 -7.66699 66 -23s28 -35.666 28 -60.999c0 -6 -0.5 -14.667 -1.5 -26s-2.5 -26.666 -4.5 -45.999l-37 -266h78c18 0 33.167 -2.83301 45.5 -8.5s22.333 -13 30 -22s13.334 -19.5 17.001 -31.5 s5.5 -24 5.5 -36s-1.83301 -24 -5.5 -36s-9.33398 -22.5 -17.001 -31.5s-17.667 -16.333 -30 -22s-27.5 -8.5 -45.5 -8.5h-107l-33 -246h78c18 0 33.167 -2.83301 45.5 -8.5s22.5 -13 30.5 -22s13.667 -19.5 17 -31.5s5 -24 5 -36c0 -12.667 -1.66699 -24.834 -5 -36.501 s-9 -22.167 -17 -31.5s-18.167 -16.833 -30.5 -22.5s-27.5 -8.5 -45.5 -8.5h-106l-43 -315c-2 -15.333 -5.33301 -29.5 -10 -42.5s-11.334 -24.167 -20.001 -33.5s-19.834 -16.833 -33.501 -22.5s-30.834 -8.5 -51.501 -8.5c-25.333 0 -47.333 7.66699 -66 23 s-28 35.666 -28 60.999c0 6.66699 0.5 15.5 1.5 26.5s2.5 26.167 4.5 45.5l37 266h-180l-43 -315c-2 -15.333 -5.33301 -29.5 -10 -42.5s-11.334 -24.167 -20.001 -33.5s-19.834 -16.833 -33.501 -22.5s-30.834 -8.5 -51.501 -8.5c-25.333 0 -47.333 7.66699 -66 23 s-28 35.666 -28 60.999c0 6.66699 0.5 15.5 1.5 26.5s2.5 26.167 4.5 45.5l37 266h-78c-18 0 -33.333 2.83301 -46 8.5s-22.834 13.167 -30.501 22.5s-13.334 19.833 -17.001 31.5s-5.5 23.834 -5.5 36.501c0 12 1.83301 24 5.5 36s9.33398 22.5 17.001 31.5 s17.834 16.333 30.501 22s28 8.5 46 8.5h106zM733.001 837.998h-180l-33 -246h180z"/>
    <glyph glyph-name="dollar" unicode="$" d="M569 610c-76 14 -143.996 32.835 -203.996 56.502s-111 52.667 -153 87s-74.167 74.166 -96.5 119.499s-33.5 96.333 -33.5 153c0 70 13.333 131.333 40 184s62.5 96.834 107.5 132.501s96.833 63 155.5 82s120 29.5 184 31.5v47c0 17.333 6 33.333 18 48 s26.667 22 44 22s31.833 -7.33301 43.5 -22s17.5 -30.667 17.5 -48v-47c26.667 -0.666992 57.167 -4 91.5 -10s69.666 -14.667 105.999 -26s71.833 -25.5 106.5 -42.5s65.667 -36.667 93 -59s49.333 -47.5 66 -75.5s25 -58.667 25 -92c0 -20 -3.5 -37.833 -10.5 -53.5 s-16.333 -29 -28 -40s-25.334 -19.333 -41.001 -25s-32.167 -8.5 -49.5 -8.5c-22 0 -41 5.33301 -57 16s-30.833 24.167 -44.5 40.5s-27.667 34.166 -42 53.499s-31.166 37.166 -50.499 53.499s-42.166 30.166 -68.499 41.499s-58.5 17.333 -96.5 18v-389 c68 -14 132.667 -30.667 194 -50s115.5 -45.666 162.5 -78.999s84.333 -75.833 112 -127.5s41.5 -116.834 41.5 -195.501c0 -68.667 -12.333 -129 -37 -181s-59.334 -95.833 -104.001 -131.5s-98.334 -63.5 -161.001 -83.5s-132 -32.333 -208 -37v-127 c0 -8.66699 -1.5 -17.167 -4.5 -25.5s-7.33301 -15.666 -13 -21.999s-12.167 -11.5 -19.5 -15.5s-15.333 -6 -24 -6s-16.834 2 -24.501 6s-14.167 9.16699 -19.5 15.5s-9.66602 13.666 -12.999 21.999s-5 16.833 -5 25.5v127c-86.667 2 -162.334 15.167 -227.001 39.5 s-118.5 54.833 -161.5 91.5s-75.333 76.667 -97 120s-32.5 85.333 -32.5 126c0 41.333 11.333 73.166 34 95.499s53.667 33.5 93 33.5c28.667 0 51.667 -4 69 -12s31.166 -18.667 41.499 -32s18.5 -28.666 24.5 -45.999l19 -53c6.66699 -18 14.834 -35.833 24.501 -53.5 s23.167 -33.667 40.5 -48s39.666 -26.166 66.999 -35.499s62.333 -15 105 -17v428zM569.004 1247c-34.667 -1.33301 -66.167 -7 -94.5 -17s-52.5 -23 -72.5 -39s-35.333 -34.167 -46 -54.5s-16 -41.5 -16 -63.5c0 -51.333 19 -92.333 57 -123s95.333 -53.667 172 -69v366z M692.004 182.002c30.667 2 61 7.33496 91 16.002s57 21 81 37s43.333 36.167 58 60.5s22 53.5 22 87.5c0 34.667 -8 63.667 -24 87s-36.167 42.666 -60.5 57.999s-51.333 27.666 -81 36.999s-58.5 17 -86.5 23v-406z"/>
    <glyph glyph-name="percent" unicode="%" horiz-adv-x="2048" d="M162 1065c0 55.333 6.33301 106.833 19 154.5s32.667 89 60 124s62.833 62.5 106.5 82.5s96.5 30 158.5 30s114.833 -10 158.5 -30s79.167 -47.5 106.5 -82.5s47.333 -76.333 60 -124s19 -99.167 19 -154.5s-6.33301 -106.833 -19 -154.5s-32.667 -89 -60 -124 s-62.833 -62.5 -106.5 -82.5s-96.5 -30 -158.5 -30s-114.833 10 -158.5 30s-79.167 47.5 -106.5 82.5s-47.333 76.333 -60 124s-19 99.167 -19 154.5zM383 1065c0 -32.667 2 -63.167 6 -91.5s10.667 -52.833 20 -73.5s22 -36.834 38 -48.501s35.667 -17.5 59 -17.5 s42.833 5.83301 58.5 17.5s28.334 27.834 38.001 48.501s16.5 45.167 20.5 73.5s6 58.833 6 91.5c0 30.667 -2 60 -6 88s-10.833 52.5 -20.5 73.5s-22.334 37.833 -38.001 50.5s-35.167 19 -58.5 19s-43 -6.33301 -59 -19s-28.667 -29.5 -38 -50.5s-16 -45.5 -20 -73.5 s-6 -57.333 -6 -88zM1198 365c0 55.333 6.33301 106.833 19 154.5s32.667 89 60 124s62.833 62.5 106.5 82.5s96.5 30 158.5 30s114.833 -10 158.5 -30s79.167 -47.5 106.5 -82.5s47.333 -76.333 60 -124s19 -99.167 19 -154.5s-6.33301 -107 -19 -155 s-32.667 -89.5 -60 -124.5s-62.833 -62.5 -106.5 -82.5s-96.5 -30 -158.5 -30s-114.833 10 -158.5 30s-79.167 47.5 -106.5 82.5s-47.333 76.5 -60 124.5s-19 99.667 -19 155zM1419 365c0 -33.333 2 -64 6 -92s10.667 -52.5 20 -73.5s22 -37.333 38 -49 s35.667 -17.5 59 -17.5s42.833 5.83301 58.5 17.5s28.334 28 38.001 49s16.5 45.5 20.5 73.5s6 58.667 6 92c0 30.667 -2 59.834 -6 87.501s-10.833 52.167 -20.5 73.5s-22.334 38.333 -38.001 51s-35.167 19 -58.5 19s-43 -6.33301 -59 -19s-28.667 -29.667 -38 -51 s-16 -45.833 -20 -73.5s-6 -56.834 -6 -87.501zM1325 1452c7.33301 13.333 17.333 26.1641 30 38.4971s29.334 18.5 50.001 18.5c11.333 0 21.833 -2 31.5 -6s18.167 -9.16699 25.5 -15.5s13 -13.666 17 -21.999s6 -16.833 6 -25.5c0 -19.333 -7.66699 -42.666 -23 -69.999 l-737 -1393c-7.33301 -13.333 -17.333 -26.166 -30 -38.499s-29.334 -18.5 -50.001 -18.5c-11.333 0 -21.833 2 -31.5 6s-18.167 9.33301 -25.5 16s-13 14.167 -17 22.5s-6 16.833 -6 25.5c0 19.333 7.66699 42.333 23 69z"/>
    <glyph glyph-name="ampersand" unicode="&amp;" horiz-adv-x="1442" d="M1053 524c13.333 24.667 26.668 50.8232 40.001 78.4902s26.666 50.834 39.999 69.501c14 19.333 30 34.666 48 45.999s37.333 17 58 17c16.667 0 32.834 -3 48.501 -9s29.834 -14.333 42.501 -25s22.834 -23 30.501 -37s11.5 -29.333 11.5 -46c0 -18 -4.5 -39 -13.5 -63 s-20.667 -48.833 -35 -74.5s-30.5 -50.5 -48.5 -74.5s-36 -44.667 -54 -62l122 -147c19.333 -23.333 29 -50.666 29 -81.999c0 -16 -3.5 -31.667 -10.5 -47s-17 -29.166 -30 -41.499s-29 -22.166 -48 -29.499s-40.5 -11 -64.5 -11s-43.167 5.33301 -57.5 16 s-28.833 24.334 -43.5 41.001l-94 109c-66.667 -64.667 -139.334 -110.667 -218.001 -138s-164.334 -41 -257.001 -41c-80.667 0 -149.834 12 -207.501 36s-105.167 55.333 -142.5 94s-64.833 82.334 -82.5 131.001s-26.5 97.667 -26.5 147 c0 54.667 8.33301 104.834 25 150.501s39.5 87 68.5 124s63 70 102 99s81.167 54.5 126.5 76.5c-18.667 20.667 -36.5 41.834 -53.5 63.501s-32 44.334 -45 68.001s-23.5 48.834 -31.5 75.501s-12 55.334 -12 86.001c0 58.667 11.167 110.834 33.5 156.501 s52.166 83.834 89.499 114.501s80.833 54 130.5 70s101.834 24 156.501 24c80.667 0 148.167 -11.333 202.5 -34s98 -51.5 131 -86.5s56.333 -73.5 70 -115.5s20.5 -82 20.5 -120c0 -40.667 -6.5 -79.334 -19.5 -116.001s-30.833 -70.834 -53.5 -102.501 s-49.667 -60.167 -81 -85.5s-65.333 -47 -102 -65zM592.002 648.989c-30 -16 -57.332 -32.833 -81.999 -50.5s-46 -36.5 -64 -56.5s-32 -41.167 -42 -63.5s-15 -46.5 -15 -72.5c0 -29.333 4.66699 -56.166 14 -80.499s22.666 -45.333 39.999 -63s38.333 -31.334 63 -41.001 s52.667 -14.5 84 -14.5c32 0 61.167 3.83301 87.5 11.5s50.5 17.667 72.5 30s42 25.833 60 40.5s34.667 29 50 43zM541.003 1148.99c0 -25.333 3.5 -47.998 10.5 -67.998s16.833 -38.333 29.5 -55s27.167 -32.5 43.5 -47.5s34.166 -30.5 53.499 -46.5l54.5 34 c19.667 12.667 37.834 27.5 54.501 44.5s30.667 36.5 42 58.5s17 47.333 17 76c0 18.667 -3.83301 36.167 -11.5 52.5s-18.5 30.666 -32.5 42.999s-30.333 22 -49 29s-39 10.5 -61 10.5s-42.167 -3.33301 -60.5 -10s-34.333 -15.834 -48 -27.501s-24.167 -25.5 -31.5 -41.5 s-11 -33.333 -11 -52z"/>
    <glyph glyph-name="quotesingle" unicode="'" horiz-adv-x="647" d="M188 1358c0 20.667 3.16699 39.833 9.5 57.5s15.5 32.834 27.5 45.501s26.333 22.5 43 29.5s35.334 10.5 56.001 10.5c41.333 0 74.166 -13.333 98.499 -40s36.5 -61 36.5 -103v-334c0 -42 -12.167 -76.333 -36.5 -103s-57.166 -40 -98.499 -40 c-20.667 0 -39.334 3.5 -56.001 10.5s-31 16.833 -43 29.5s-21.167 27.667 -27.5 45s-9.5 36.666 -9.5 57.999v334z"/>
    <glyph glyph-name="parenleft" unicode="(" horiz-adv-x="750" d="M137 549c0 105.333 12.667 213 38 323s61.333 220 108 330c29.333 70 53.833 125.5 73.5 166.5s37.334 71.833 53.001 92.5s30.5 33.834 44.5 39.501s30 8.5 48 8.5c15.333 0 29.5 -2.5 42.5 -7.5s24.167 -11.833 33.5 -20.5s16.666 -18.667 21.999 -30s8 -23.333 8 -36 c0 -16.667 -4.5 -39.5 -13.5 -68.5s-20.333 -63.167 -34 -102.5l-44.5 -133.5c-16 -49.667 -30.833 -103.834 -44.5 -162.501s-25 -121.334 -34 -188.001s-13.5 -137 -13.5 -211s4.5 -144.5 13.5 -211.5s20.333 -129.667 34 -188s28.5 -112.333 44.5 -162l44.5 -133.5 c13.667 -39.333 25 -73.5 34 -102.5s13.5 -51.833 13.5 -68.5c0 -13.333 -2.66699 -25.666 -8 -36.999s-12.666 -21.333 -21.999 -30s-20.5 -15.5 -33.5 -20.5s-27.167 -7.5 -42.5 -7.5c-18 0 -34 2.83301 -48 8.5s-28.833 19 -44.5 40s-33.334 52 -53.001 93 s-44.167 96.5 -73.5 166.5c-46.667 110 -82.667 220 -108 330s-38 217.667 -38 323z"/>
    <glyph glyph-name="parenright" unicode=")" horiz-adv-x="750" d="M615 549c0 -105.333 -12.667 -213 -38 -323s-61.333 -220 -108 -330c-29.333 -70 -54 -125.5 -74 -166.5s-37.667 -72 -53 -93s-30 -34.333 -44 -40s-30 -8.5 -48 -8.5c-15.333 0 -29.5 2.5 -42.5 7.5s-24.167 11.833 -33.5 20.5s-16.666 18.667 -21.999 30 s-8 23.666 -8 36.999c0 16.667 4.5 39.5 13.5 68.5s20.333 63.167 34 102.5l44.5 133.5c16 49.667 30.833 103.667 44.5 162s25 121 34 188s13.5 137.5 13.5 211.5s-4.5 144.333 -13.5 211s-20.333 129.334 -34 188.001s-28.5 112.834 -44.5 162.501l-44.5 133.5 c-13.667 39.333 -25 73.333 -34 102s-13.5 51.667 -13.5 69c0 12.667 2.66699 24.667 8 36s12.666 21.333 21.999 30s20.5 15.5 33.5 20.5s27.167 7.5 42.5 7.5c18 0 34 -2.83301 48 -8.5s28.667 -18.834 44 -39.501s33 -51.5 53 -92.5s44.667 -96.5 74 -166.5 c46.667 -110 82.667 -220 108 -330s38 -217.667 38 -323z"/>
    <glyph glyph-name="asterisk" unicode="*" horiz-adv-x="950" d="M389 1409c0 30 7.3291 52.8301 21.9961 68.4971s36 23.5 64 23.5s49.333 -7.83301 64 -23.5s22 -38.5 22 -68.5v-182l160 57c8 3.33301 17 6.16602 27 8.49902s18.667 3.5 26 3.5s15.833 -1.83301 25.5 -5.5s18.834 -9.16699 27.501 -16.5s16 -16.833 22 -28.5 s9 -25.5 9 -41.5c0 -19.333 -5.66699 -35.666 -17 -48.999s-29.666 -23.666 -54.999 -30.999l-180 -53l123 -160c7.33301 -9.33301 13.333 -18.666 18 -27.999s7 -19.666 7 -30.999c0 -17.333 -3.66699 -31.666 -11 -42.999s-16 -20.166 -26 -26.499 s-20.167 -10.666 -30.5 -12.999s-18.5 -3.5 -24.5 -3.5c-14.667 0 -28.167 2.66699 -40.5 8s-22.166 13.666 -29.499 24.999l-117 174l-117 -174c-7.33301 -11.333 -17.166 -19.666 -29.499 -24.999s-25.5 -8 -39.5 -8c-6 0 -14.167 1.16699 -24.5 3.5 s-20.5 6.66602 -30.5 12.999s-18.667 15.166 -26 26.499s-11 25.666 -11 42.999c0 11.333 2.16699 21.666 6.5 30.999s10.166 18.666 17.499 27.999l123 160l-180 53c-48 14.667 -72 41.334 -72 80.001c0 16 3 29.833 9 41.5s13.333 21.167 22 28.5 s17.834 12.833 27.501 16.5s18.167 5.5 25.5 5.5s16 -1.16699 26 -3.5s19 -5.16602 27 -8.49902l160 -57v182z"/>
    <glyph glyph-name="plus" unicode="+" horiz-adv-x="1229" d="M492 1016c0 42 10.835 76.332 32.502 102.999s51.5 40 89.5 40s68 -13.333 90 -40s33 -61 33 -103v-314h314c43.333 0 78 -11.167 104 -33.5s39 -51.833 39 -88.5c0 -37.333 -13 -67.166 -39 -89.499s-60.667 -33.5 -104 -33.5h-314v-314c0 -42 -11 -76.333 -33 -103 s-52 -40 -90 -40s-67.833 13.333 -89.5 40s-32.5 61 -32.5 103v314h-314c-21.333 0 -40.833 3.5 -58.5 10.5s-32.834 16.167 -45.501 27.5s-22.334 24.5 -29.001 39.5s-10 30.167 -10 45.5c0 36.667 13 66.167 39 88.5s60.667 33.5 104 33.5h314v314z"/>
    <glyph glyph-name="comma" unicode="," horiz-adv-x="627" d="M145 154c0 22.667 4.5 44.333 13.5 65s21 38.5 36 53.5s32.667 27 53 36s42.166 13.5 65.499 13.5c33.333 0 62.166 -7 86.499 -21s44.333 -32.667 60 -56s27.334 -50.833 35.001 -82.5s11.5 -64.834 11.5 -99.501s-2.5 -65.334 -7.5 -92.001s-12 -50.834 -21 -72.501 s-20 -41.167 -33 -58.5s-27.5 -34.333 -43.5 -51c-7.33301 -7.33301 -18.166 -16 -32.499 -26s-30.166 -19.667 -47.499 -29s-35.333 -17.166 -54 -23.499s-36 -9.5 -52 -9.5c-22.667 0 -40 6.16699 -52 18.5s-18 26.5 -18 42.5c0 15.333 5.16699 27.333 15.5 36 s23.166 16.5 38.499 23.5l50.5 22.5c18.333 8 35.5 18.667 51.5 32s29.667 31 41 53s18 50.333 20 85c-9.33301 -5.33301 -19.5 -9.66602 -30.5 -12.999s-23.833 -5 -38.5 -5c-23.333 0 -44.166 4.33301 -62.499 13s-33.833 20.334 -46.5 35.001s-22.334 31.5 -29.001 50.5 s-10 38.833 -10 59.5z"/>
    <glyph glyph-name="hyphen" unicode="-" horiz-adv-x="834" d="M586 707c22.667 0 44.167 -2.5 64.5 -7.5s38 -13 53 -24s26.833 -25.667 35.5 -44s13 -40.5 13 -66.5s-4.33301 -48 -13 -66s-20.5 -32.5 -35.5 -43.5s-32.667 -19 -53 -24s-41.833 -7.5 -64.5 -7.5h-338c-23.333 0 -45 2.5 -65 7.5s-37.5 13 -52.5 24 s-26.833 25.5 -35.5 43.5s-13 40 -13 66s4.33301 48.167 13 66.5s20.5 33 35.5 44s32.5 19 52.5 24s41.667 7.5 65 7.5h338z"/>
    <glyph glyph-name="period" unicode="." horiz-adv-x="627" d="M145 154c0 22.667 4.5 44.334 13.5 65.001s21 38.5 36 53.5s32.667 27 53 36s42.166 13.5 65.499 13.5s45.166 -4.5 65.499 -13.5s38.166 -21 53.499 -36s27.333 -32.833 36 -53.5s13 -42.334 13 -65.001c0 -23.333 -4.33301 -45.166 -13 -65.499 s-20.667 -38.166 -36 -53.499s-33.166 -27.333 -53.499 -36s-42.166 -13 -65.499 -13s-45.166 4.33301 -65.499 13s-38 20.667 -53 36s-27 33.166 -36 53.499s-13.5 42.166 -13.5 65.499z"/>
    <glyph glyph-name="slash" unicode="/" horiz-adv-x="758" d="M522 1425c3.33301 8 7.33496 16.998 12.002 26.998s11.167 19.167 19.5 27.5s19 15.333 32 21s29.5 8.5 49.5 8.5c12 0 24.167 -2.33301 36.5 -7s23.666 -11.5 33.999 -20.5s18.833 -20 25.5 -33s10 -27.5 10 -43.5c0 -11.333 -1.66699 -22.666 -5 -33.999 s-7 -22.666 -11 -33.999l-489 -1288c-3.33301 -8 -7.33301 -17 -12 -27s-11.167 -19.167 -19.5 -27.5s-19 -15.333 -32 -21s-29.5 -8.5 -49.5 -8.5c-12 0 -24.167 2.33301 -36.5 7s-23.833 11.5 -34.5 20.5s-19.334 20 -26.001 33s-10 27.833 -10 44.5 c0 11.333 1.83301 22.5 5.5 33.5l11.5 33.5z"/>
    <glyph glyph-name="zero" unicode="0" d="M379 715c0 -92 5.5 -169.5 16.5 -232.5s27 -114 48 -153s47 -67.167 78 -84.5s66.167 -26 105.5 -26s74.333 8.66699 105 26s56.5 45.5 77.5 84.5s37 90 48 153s16.5 140.5 16.5 232.5c0 76.667 -4.5 145.667 -13.5 207s-23.167 113.333 -42.5 156 s-44.833 75.334 -76.5 98.001s-69.834 34 -114.501 34c-45.333 0 -83.666 -11.333 -114.999 -34s-56.833 -55.334 -76.5 -98.001s-34 -94.667 -43 -156s-13.5 -130.333 -13.5 -207zM80 733c0 120.667 13.002 226.333 39.002 317s62.667 166 110 226s104.666 105 171.999 135 s142.666 45 225.999 45c82.667 0 157.667 -15 225 -45s124.833 -75 172.5 -135s84.5 -135.333 110.5 -226s39 -196.334 39 -317.001c0 -60 -3.5 -120.5 -10.5 -181.5s-18.833 -119.667 -35.5 -176s-38.5 -109 -65.5 -158s-60.833 -91.667 -101.5 -128 s-88.5 -64.833 -143.5 -85.5s-118.5 -31 -190.5 -31s-135.5 10.333 -190.5 31s-102.833 49.167 -143.5 85.5s-74.5 79 -101.5 128s-48.833 101.667 -65.5 158s-28.5 114.833 -35.5 175.5s-10.5 121.334 -10.5 182.001z"/>
    <glyph glyph-name="one" unicode="1" horiz-adv-x="834" d="M350 932l-264.002 -0.000976562c-34 0 -59.833 7.5 -77.5 22.5s-26.5 43.5 -26.5 85.5c0 18.667 2.66699 34.5 8 47.5s13.833 23.667 25.5 32s26.834 15.333 45.501 21s41.334 11.167 68.001 16.5l76 17c38 8 68.667 20.667 92 38s42.666 36.333 57.999 57 s28.333 42.167 39 64.5s22.167 42.5 34.5 60.5s27.166 32.833 44.499 44.5s40.666 17.5 69.999 17.5c16 0 31.333 -2.16699 46 -6.5s27.334 -11.666 38.001 -21.999s19.167 -24.5 25.5 -42.5s9.5 -40.667 9.5 -68v-1163c0 -26.667 -2.66699 -51.167 -8 -73.5 s-14.166 -41.5 -26.499 -57.5s-28.5 -28.333 -48.5 -37s-44.333 -13 -73 -13s-53 4.33301 -73 13s-36.167 21 -48.5 37s-21.166 35.167 -26.499 57.5s-8 46.833 -8 73.5v778z"/>
    <glyph glyph-name="two" unicode="2" horiz-adv-x="1214" d="M1016 258c39.333 0 71.6631 -9.99805 96.9961 -29.998s38 -53 38 -99s-13.333 -79 -40 -99s-64 -30 -112 -30h-768c-29.333 0 -54.666 4.5 -75.999 13.5s-38.833 20.833 -52.5 35.5s-23.667 31 -30 49s-9.5 36 -9.5 54c0 72.667 32.167 148.667 96.5 228 s160.833 159.666 289.5 240.999l127 79.5l98.5 63c28.333 19 52.333 37 72 54s35.834 34.667 48.501 53s21.834 38.166 27.501 59.499s8.5 46 8.5 74c0 33.333 -5.83301 62.833 -17.5 88.5s-27.5 47.167 -47.5 64.5s-43 30.5 -69 39.5s-53 13.5 -81 13.5 c-32.667 0 -62.667 -3.66699 -90 -11s-52 -19.333 -74 -36s-41.333 -39 -58 -67s-30.667 -62.333 -42 -103c-5.33301 -18.667 -11.166 -35.167 -17.499 -49.5s-14.333 -26.166 -24 -35.499s-21.5 -16.5 -35.5 -21.5s-31.333 -7.5 -52 -7.5c-21.333 0 -41 2.33301 -59 7 s-33.667 12.334 -47 23.001s-23.833 24.667 -31.5 42s-11.5 39 -11.5 65c0 62.667 14.333 120.834 43 174.501s67.667 100.167 117 139.5s107.333 70.166 174 92.499s137.667 33.5 213 33.5c82 0 155.167 -12.167 219.5 -36.5s119 -55.833 164 -94.5s79.333 -82 103 -130 s35.5 -95.333 35.5 -142c0 -68 -7.66699 -126.667 -23 -176s-37.5 -93 -66.5 -131s-64.833 -72.333 -107.5 -103s-91 -61.334 -145 -92.001c-116 -65.333 -208.333 -120.833 -277 -166.5s-109.667 -87.834 -123 -126.501h615z"/>
    <glyph glyph-name="three" unicode="3" horiz-adv-x="1214" d="M63 328c0 20.667 3.66699 39.8359 11 57.5029s17.5 32.834 30.5 45.501s28.333 22.5 46 29.5s37.167 10.5 58.5 10.5c30 0 53.5 -6.16699 70.5 -18.5s31.167 -27.833 42.5 -46.5s22.166 -39 32.499 -61s24 -42.333 41 -61s39.333 -34.167 67 -46.5 s65.167 -18.5 112.5 -18.5c38.667 0 72.667 5.5 102 16.5s54 26.333 74 46s35 43 45 70s15 56.5 15 88.5c0 24.667 -3 47.5 -9 68.5s-16 39.5 -30 55.5s-32.833 29.167 -56.5 39.5s-53.167 17.5 -88.5 21.5c-14.667 1.33301 -31.667 3.5 -51 6.5s-37.833 8.16699 -55.5 15.5 s-32.667 18 -45 32s-18.5 32.667 -18.5 56c0 26.667 3.83301 48.5 11.5 65.5s19 30.333 34 40s33.5 16.667 55.5 21s47.667 7.16602 77 8.49902c51.333 3.33301 90.166 19 116.499 47s39.5 65.667 39.5 113c0 30.667 -5.66699 57.334 -17 80.001s-26.333 41.334 -45 56.001 s-40.5 25.667 -65.5 33s-50.833 11 -77.5 11c-41.333 0 -75 -5.83301 -101 -17.5s-47.5 -26 -64.5 -43s-31.333 -35.667 -43 -56s-23.667 -39 -36 -56s-26.833 -31.333 -43.5 -43s-38.334 -17.5 -65.001 -17.5c-17.333 0 -34.166 2.16699 -50.499 6.5s-31 11.166 -44 20.499 s-23.333 21.833 -31 37.5s-11.5 35.167 -11.5 58.5c0 42 7.66699 79.833 23 113.5s35.833 63.667 61.5 90s55.334 49.166 89.001 68.499s68.834 35.166 105.501 47.499s73.667 21.5 111 27.5s72.666 9 105.999 9c88.667 0 163.667 -11.333 225 -34s111.333 -52.667 150 -90 s66.667 -79.833 84 -127.5s26 -96.167 26 -145.5c0 -66 -14.5 -122.5 -43.5 -169.5s-72.5 -86.167 -130.5 -117.5c38.667 -10.667 71.834 -26.167 99.501 -46.5s50.334 -44.333 68.001 -72s30.667 -58.5 39 -92.5s12.5 -70 12.5 -108c0 -81.333 -14.667 -152 -44 -212 s-69 -109.833 -119 -149.5s-108.5 -69.334 -175.5 -89.001s-138.5 -29.5 -214.5 -29.5c-64 0 -121 6.16699 -171 18.5s-93.833 28.333 -131.5 48s-69.334 42.167 -95.001 67.5s-46.667 51.166 -63 77.499s-28 52 -35 77s-10.5 47.167 -10.5 66.5z"/>
    <glyph glyph-name="four" unicode="4" horiz-adv-x="1251" d="M696 1092h-4l-395 -531h399v531zM696 328l-513.999 -0.00195312c-26.667 0 -49.667 4.16699 -69 12.5s-35.333 19.333 -48 33s-22.167 28.834 -28.5 45.501s-9.5 33.334 -9.5 50.001c0 26.667 3.16699 49.167 9.5 67.5s16.166 36.166 29.499 53.499l630 809 c15.333 20.667 34.166 35.334 56.499 44.001s47.833 13 76.5 13c55.333 0 94.833 -13.5 118.5 -40.5s35.5 -62.5 35.5 -106.5v-748h102c35.333 0 63.333 -11 84 -33s31 -50 31 -84s-10.333 -61.833 -31 -83.5s-48.667 -32.5 -84 -32.5h-102v-211 c0 -43.333 -10.667 -78.166 -32 -104.499s-58.333 -39.5 -111 -39.5c-53.333 0 -90.666 13.167 -111.999 39.5s-32 61.166 -32 104.499v211z"/>
    <glyph glyph-name="five" unicode="5" horiz-adv-x="1214" d="M170 1300c2.66699 17.333 7.83496 33.832 15.502 49.499s17.334 29.5 29.001 41.5s24.667 21.5 39 28.5s30.166 10.5 47.499 10.5h614c19.333 0 37.333 -2.33301 54 -7s31 -12.334 43 -23.001s21.5 -24.167 28.5 -40.5s10.5 -36.166 10.5 -59.499s-3.33301 -43 -10 -59 s-16 -29.333 -28 -40s-26 -18.334 -42 -23.001s-33 -7 -51 -7h-523l-55 -307l4 -4c37.333 32 81 55.667 131 71s101.333 23 154 23c64 0 125.333 -9.66699 184 -29s110.167 -48.666 154.5 -87.999s79.833 -88.5 106.5 -147.5s40 -127.833 40 -206.5 c0 -82 -14 -154.833 -42 -218.5s-67.167 -117 -117.5 -160s-110 -75.667 -179 -98s-144.5 -33.5 -226.5 -33.5c-58.667 0 -111.5 4.66699 -158.5 14s-88.5 21.833 -124.5 37.5s-66.833 33.667 -92.5 54s-46.5 41.333 -62.5 63s-27.833 43 -35.5 64s-11.5 40.5 -11.5 58.5 c0 20.667 3.5 39.667 10.5 57s17 32.333 30 45s28.5 22.5 46.5 29.5s38 10.5 60 10.5c20.667 0 38.5 -4.83301 53.5 -14.5s29.167 -22 42.5 -37s26.833 -31 40.5 -48s29.667 -33 48 -48s40.166 -27.333 65.499 -37s56 -14.5 92 -14.5c38.667 0 74.167 7.33301 106.5 22 s60 34.334 83 59.001s40.833 52.667 53.5 84s19 63.666 19 96.999c0 43.333 -7.16699 80.833 -21.5 112.5s-34 57.834 -59 78.501s-54.333 36 -88 46s-69.5 15 -107.5 15c-40.667 0 -75 -5.16699 -103 -15.5s-53.333 -21.833 -76 -34.5s-44.334 -24.167 -65.001 -34.5 s-44 -15.5 -70 -15.5c-18 0 -35.5 2.5 -52.5 7.5s-32 12.833 -45 23.5s-23.5 24.667 -31.5 42s-12 38 -12 62c0 20.667 0.833008 39.5 2.5 56.5s4.16699 34.167 7.5 51.5z"/>
    <glyph glyph-name="six" unicode="6" d="M379 803c44 42 91.0098 74.3262 141.01 96.9932s109.333 34 178 34c76.667 0 144.667 -12 204 -36s109.166 -56.5 149.499 -97.5s70.833 -89 91.5 -144s31 -113.5 31 -175.5c0 -84.667 -13.667 -158.667 -41 -222s-64.833 -116.166 -112.5 -158.499 s-103.834 -74.166 -168.501 -95.499s-134.334 -32 -209.001 -32c-72 0 -136 8.83301 -192 26.5s-104.833 42 -146.5 73s-76.834 67.667 -105.501 110s-51.834 88 -69.501 137s-30.334 100.333 -38.001 154s-11.5 107.5 -11.5 161.5c0 151.333 14.167 279.333 42.5 384 s69.166 189.334 122.499 254.001s118 111.334 194 140.001s161.667 43 257 43c60.667 0 116.167 -7.83301 166.5 -23.5s93.5 -36.167 129.5 -61.5s64 -53.666 84 -84.999s30 -62.666 30 -93.999c0 -18.667 -3.33301 -36 -10 -52s-15.834 -30 -27.501 -42 s-25.334 -21.5 -41.001 -28.5s-32.5 -10.5 -50.5 -10.5c-22.667 0 -42 4.33301 -58 13s-30.833 19.5 -44.5 32.5s-26.834 27.167 -39.501 42.5s-26.5 29.5 -41.5 42.5s-32.5 23.833 -52.5 32.5s-43.667 13 -71 13c-53.333 0 -98.5 -11.833 -135.5 -35.5 s-67 -54.167 -90 -91.5s-39.667 -79.666 -50 -126.999s-15.5 -94.333 -15.5 -141v-37zM397.01 460.993c0 -39.333 5.50195 -74.6689 16.502 -106.002s27 -58 48 -80s46.167 -38.833 75.5 -50.5s62.666 -17.5 99.999 -17.5c74 0 132 22.5 174 67.5s63 107.167 63 186.5 c0 43.333 -6 80.833 -18 112.5s-28.667 57.834 -50 78.501s-46.333 36 -75 46s-60 15 -94 15c-33.333 0 -64.5 -5.5 -93.5 -16.5s-54.333 -27.167 -76 -48.5s-38.834 -47.666 -51.501 -78.999s-19 -67.333 -19 -108z"/>
    <glyph glyph-name="seven" unicode="7" horiz-adv-x="1176" d="M987 1430c20 0 38.667 -2.33203 56 -6.99902s32.166 -12.667 44.499 -24s22.166 -26.5 29.499 -45.5s11 -42.833 11 -71.5c0 -20.667 -5 -40.167 -15 -58.5s-23.667 -38.333 -41 -60s-37.833 -46 -61.5 -73s-49.334 -59.333 -77.001 -97s-56.667 -82 -87 -133 s-60.666 -111 -90.999 -180s-60.333 -148.333 -90 -238s-57.5 -192.167 -83.5 -307.5c-6.66699 -30 -13.834 -55.333 -21.501 -76s-17.167 -37.334 -28.5 -50.001s-25.166 -21.834 -41.499 -27.501s-36.5 -8.5 -60.5 -8.5c-30 0 -54.5 4 -73.5 12s-34.167 19 -45.5 33 s-19.166 30.5 -23.499 49.5s-6.5 39.5 -6.5 61.5c0 34 7.16699 77.667 21.5 131s34 112 59 176s54.333 130.667 88 200s70.334 137 110.001 203s81 127.833 124 185.5s86.167 106.5 129.5 146.5h-661c-18.667 0 -36 2.33301 -52 7s-30 12.334 -42 23.001s-21.333 24 -28 40 s-10 35.667 -10 59s3.5 43.166 10.5 59.499s16.5 29.833 28.5 40.5s26.333 18.334 43 23.001s34.667 7 54 7h831z"/>
    <glyph glyph-name="eight" unicode="8" d="M80 432c0 79.333 19.3311 148.666 57.998 207.999s96.334 101.333 173.001 126c-29.333 14 -55.666 31.5 -78.999 52.5s-43.166 44.5 -59.499 70.5s-29 54.167 -38 84.5s-13.5 61.5 -13.5 93.5c0 56 11.5 107.833 34.5 155.5s56.333 88.834 100 123.501 s96.667 61.667 159 81s133.166 29 212.499 29c78.667 0 149.334 -9.66699 212.001 -29s115.667 -46.333 159 -81s76.666 -75.834 99.999 -123.501s35 -99.5 35 -155.5c0 -32 -4.5 -63.167 -13.5 -93.5s-21.667 -58.5 -38 -84.5s-36.333 -49.5 -60 -70.5 s-50.167 -38.5 -79.5 -52.5c38.667 -12 72.5 -28.833 101.5 -50.5s53.167 -46.834 72.5 -75.501s33.833 -60.667 43.5 -96s14.5 -72.666 14.5 -111.999c0 -57.333 -7.66699 -108.666 -23 -153.999s-36.333 -85 -63 -119s-57.667 -62.833 -93 -86.5 s-73.333 -42.834 -114 -57.501s-82.667 -25.334 -126 -32.001s-86 -10 -128 -10s-84.667 3.33301 -128 10s-85.333 17.334 -126 32.001s-78.667 33.834 -114 57.501s-66.333 52.5 -93 86.5s-47.667 73.5 -63 118.5s-23 96.5 -23 154.5zM378.998 430 c0 -35.333 5.99805 -66.833 17.998 -94.5s29 -51 51 -70s48.167 -33.5 78.5 -43.5s63.833 -15 100.5 -15c36 0 69.167 5 99.5 15s56.5 24.5 78.5 43.5s39 42.333 51 70s18 59.167 18 94.5c0 22 -4.16699 46.5 -12.5 73.5s-22.166 52.167 -41.499 75.5s-44.666 43 -75.999 59 s-70.333 24 -117 24s-85.834 -8 -117.501 -24s-57.167 -35.667 -76.5 -59s-33.166 -48.5 -41.499 -75.5s-12.5 -51.5 -12.5 -73.5zM407.996 1047c0 -32 5.66699 -60 17 -84s26.833 -43.667 46.5 -59s42.834 -26.833 69.501 -34.5s55.334 -11.5 86.001 -11.5 s59.334 3.83301 86.001 11.5s49.834 19.167 69.501 34.5s35.167 35 46.5 59s17 52 17 84c0 30 -5.66699 56.667 -17 80s-26.833 43 -46.5 59s-42.834 28.167 -69.501 36.5s-55.334 12.5 -86.001 12.5s-59.334 -4.16699 -86.001 -12.5s-49.834 -20.5 -69.501 -36.5 s-35.167 -35.667 -46.5 -59s-17 -50 -17 -80z"/>
    <glyph glyph-name="nine" unicode="9" d="M874 627c-44 -42 -91.0059 -74.3291 -141.006 -96.9961s-109.333 -34 -178 -34c-76.667 0 -144.5 11.833 -203.5 35.5s-108.667 56 -149 97s-70.833 89 -91.5 144s-31 113.5 -31 175.5c0 84.667 13.667 158.667 41 222s64.666 116.166 111.999 158.499 s103.333 74.166 168 95.499s134.334 32 209.001 32c72 0 136 -8.83301 192 -26.5s105 -42 147 -73s77.333 -67.667 106 -110s51.834 -88 69.501 -137s30.334 -100.167 38.001 -153.5s11.5 -107 11.5 -161c0 -152 -14.333 -280.167 -43 -384.5s-69.667 -189 -123 -254 s-118 -111.833 -194 -140.5s-161.667 -43 -257 -43c-61.333 0 -117.166 8 -167.499 24s-93.5 36.667 -129.5 62s-63.833 53.666 -83.5 84.999s-29.5 62.666 -29.5 93.999c0 18 3.33301 35.167 10 51.5s15.834 30.5 27.501 42.5s25.334 21.5 41.001 28.5s32.5 10.5 50.5 10.5 c22.667 0 42.167 -4.33301 58.5 -13s31.333 -19.5 45 -32.5s26.834 -27.167 39.501 -42.5s26.5 -29.5 41.5 -42.5s32.333 -23.833 52 -32.5s43.5 -13 71.5 -13c53.333 0 98.333 11.667 135 35s66.5 53.833 89.5 91.5s39.667 80 50 127s15.5 94.167 15.5 141.5v37z M855.994 969.004c0 39.333 -5.49902 74.668 -16.499 106.001s-27 58 -48 80s-46.333 38.833 -76 50.5s-62.834 17.5 -99.501 17.5s-69.667 -5.83301 -99 -17.5s-54.166 -28.5 -74.499 -50.5s-36 -48.667 -47 -80s-16.5 -66.666 -16.5 -105.999 c0 -43.333 6 -80.833 18 -112.5s28.667 -57.834 50 -78.501s46.333 -36 75 -46s60 -15 94 -15c33.333 0 64.666 5.5 93.999 16.5s54.833 27.167 76.5 48.5s38.667 47.666 51 78.999s18.5 67.333 18.5 108z"/>
    <glyph glyph-name="colon" unicode=":" horiz-adv-x="627" d="M145 596c0 22.667 4.5 44.334 13.5 65.001s21 38.5 36 53.5s32.667 27 53 36s42.166 13.5 65.499 13.5s45.166 -4.5 65.499 -13.5s38.166 -21 53.499 -36s27.333 -32.833 36 -53.5s13 -42.334 13 -65.001c0 -23.333 -4.33301 -45.166 -13 -65.499s-20.667 -38 -36 -53 s-33.166 -27 -53.499 -36s-42.166 -13.5 -65.499 -13.5s-45.166 4.5 -65.499 13.5s-38 21 -53 36s-27 32.667 -36 53s-13.5 42.166 -13.5 65.499zM145 154c0 22.667 4.5 44.334 13.5 65.001s21 38.5 36 53.5s32.667 27 53 36s42.166 13.5 65.499 13.5 s45.166 -4.5 65.499 -13.5s38.166 -21 53.499 -36s27.333 -32.833 36 -53.5s13 -42.334 13 -65.001c0 -23.333 -4.33301 -45.166 -13 -65.499s-20.667 -38.166 -36 -53.499s-33.166 -27.333 -53.499 -36s-42.166 -13 -65.499 -13s-45.166 4.33301 -65.499 13 s-38 20.667 -53 36s-27 33.166 -36 53.499s-13.5 42.166 -13.5 65.499z"/>
    <glyph glyph-name="semicolon" unicode=";" horiz-adv-x="627" d="M145 154c0 22.667 4.5 44.333 13.5 65s21 38.5 36 53.5s32.667 27 53 36s42.166 13.5 65.499 13.5c33.333 0 62.166 -7 86.499 -21s44.333 -32.667 60 -56s27.334 -50.833 35.001 -82.5s11.5 -64.834 11.5 -99.501s-2.5 -65.334 -7.5 -92.001s-12 -50.834 -21 -72.501 s-20 -41.167 -33 -58.5s-27.5 -34.333 -43.5 -51c-7.33301 -7.33301 -18.166 -16 -32.499 -26s-30.166 -19.667 -47.499 -29s-35.333 -17.166 -54 -23.499s-36 -9.5 -52 -9.5c-22.667 0 -40 6.16699 -52 18.5s-18 26.5 -18 42.5c0 15.333 5.16699 27.333 15.5 36 s23.166 16.5 38.499 23.5l50.5 22.5c18.333 8 35.5 18.667 51.5 32s29.667 31 41 53s18 50.333 20 85c-9.33301 -5.33301 -19.5 -9.66602 -30.5 -12.999s-23.833 -5 -38.5 -5c-23.333 0 -44.166 4.33301 -62.499 13s-33.833 20.334 -46.5 35.001s-22.334 31.5 -29.001 50.5 s-10 38.833 -10 59.5zM145 902.999c0 22.667 4.5 44.334 13.5 65.001s21 38.5 36 53.5s32.667 27 53 36s42.166 13.5 65.499 13.5s45.166 -4.5 65.499 -13.5s38.166 -21 53.499 -36s27.333 -32.833 36 -53.5s13 -42.334 13 -65.001c0 -23.333 -4.33301 -45.166 -13 -65.499 s-20.667 -38 -36 -53s-33.166 -27 -53.499 -36s-42.166 -13.5 -65.499 -13.5s-45.166 4.5 -65.499 13.5s-38 21 -53 36s-27 32.667 -36 53s-13.5 42.166 -13.5 65.499z"/>
    <glyph glyph-name="less" unicode="&lt;" horiz-adv-x="1229" d="M426 580l659 -289.002c21.333 -9.33301 38.5 -19 51.5 -29s22.833 -20.5 29.5 -31.5s11 -22.167 13 -33.5s3 -23 3 -35c0 -33.333 -10.5 -60.166 -31.5 -80.499s-48.167 -30.5 -81.5 -30.5c-14.667 0 -30.667 1.66699 -48 5s-39 11.333 -65 24l-833 383 c-21.333 10 -39.333 25.5 -54 46.5s-22 44.5 -22 70.5c0 25.333 7.33301 48.5 22 69.5s32.667 36.5 54 46.5l833 383c26 12.667 47.667 20.667 65 24s33.333 5 48 5c33.333 0 60.5 -10.167 81.5 -30.5s31.5 -47.166 31.5 -80.499c0 -12 -1 -23.667 -3 -35 s-6.33301 -22.5 -13 -33.5s-16.5 -21.5 -29.5 -31.5s-30.167 -19.667 -51.5 -29z"/>
    <glyph glyph-name="equal" unicode="=" horiz-adv-x="1229" d="M1051 944c43.333 0 78.002 -11.167 104.002 -33.5s39 -52.166 39 -89.499c0 -36.667 -13 -66.334 -39 -89.001s-60.667 -34 -104 -34h-873c-21.333 0 -40.833 3.5 -58.5 10.5s-32.834 16.333 -45.501 28s-22.334 24.834 -29.001 39.501s-10 29.667 -10 45 c0 37.333 13 67.166 39 89.499s60.667 33.5 104 33.5h873zM1051 461c43.333 0 78.002 -11.168 104.002 -33.501s39 -52.166 39 -89.499s-13 -67.166 -39 -89.499s-60.667 -33.5 -104 -33.5h-873c-21.333 0 -40.833 3.5 -58.5 10.5s-32.834 16.167 -45.501 27.5 s-22.334 24.5 -29.001 39.5s-10 30.167 -10 45.5c0 37.333 13 67.166 39 89.499s60.667 33.5 104 33.5h873z"/>
    <glyph glyph-name="greater" unicode="&gt;" horiz-adv-x="1229" d="M803 580l-660 288.002c-21.333 9.33301 -38.333 19 -51 29s-22.334 20.5 -29.001 31.5s-11 22.167 -13 33.5s-3 23 -3 35c0 33.333 10.5 60.166 31.5 80.499s48.167 30.5 81.5 30.5c14 0 29.833 -1.66699 47.5 -5s39.167 -11.333 64.5 -24l834 -383 c21.333 -10 39.333 -25.5 54 -46.5s22 -44.167 22 -69.5c0 -26 -7.33301 -49.5 -22 -70.5s-32.667 -36.5 -54 -46.5l-834 -383c-25.333 -12.667 -46.833 -20.667 -64.5 -24s-33.5 -5 -47.5 -5c-33.333 0 -60.5 10.167 -81.5 30.5s-31.5 47.166 -31.5 80.499 c0 12 1 23.667 3 35s6.33301 22.5 13 33.5s16.334 21.5 29.001 31.5s29.667 19.667 51 29z"/>
    <glyph glyph-name="question" unicode="?" horiz-adv-x="1176" d="M88 1122c0 50 13.1641 97.998 39.4971 143.998s61.666 86.333 105.999 121s95.333 62.334 153 83.001s117.834 31 180.501 31c65.333 0 129.166 -7.83301 191.499 -23.5s117.833 -40 166.5 -73s87.834 -75.333 117.501 -127s44.5 -113.5 44.5 -185.5 c0 -44.667 -7.66699 -84.834 -23 -120.501s-34.833 -68.167 -58.5 -97.5s-50 -55.666 -79 -78.999s-57.167 -44.833 -84.5 -64.5l-75 -54.5c-22.667 -16.667 -39.334 -33 -50.001 -49c-12 -18 -21.333 -37.167 -28 -57.5s-14.667 -39 -24 -56s-22.5 -31 -39.5 -42 s-42.5 -16.5 -76.5 -16.5c-22 0 -41.167 4 -57.5 12s-30 18.5 -41 31.5s-19.167 27.667 -24.5 44s-8 32.833 -8 49.5c0 40.667 8.83301 76.667 26.5 108s39.834 59.833 66.501 85.5s55.334 49.834 86.001 72.501s59.334 45.667 86.001 69s48.834 48.333 66.501 75 s26.5 56.667 26.5 90c0 55.333 -17.333 98.5 -52 129.5s-82.667 46.5 -144 46.5c-44 0 -78.667 -6.66699 -104 -20s-45.833 -30 -61.5 -50s-28.334 -41.833 -38.001 -65.5s-20.5 -45.5 -32.5 -65.5s-27.167 -36.667 -45.5 -50s-44.166 -20 -77.499 -20 c-18 0 -35 2.66699 -51 8s-30 13.166 -42 23.499s-21.667 23.333 -29 39s-11 33.834 -11 54.501zM388.997 153.998c0 22.667 4.5 44.334 13.5 65.001s21 38.5 36 53.5s32.667 27 53 36s42.166 13.5 65.499 13.5c22.667 0 44.334 -4.5 65.001 -13.5s38.5 -21 53.5 -36 s27 -32.833 36 -53.5s13.5 -42.334 13.5 -65.001c0 -23.333 -4.5 -45.166 -13.5 -65.499s-21 -38.166 -36 -53.499s-32.833 -27.333 -53.5 -36s-42.334 -13 -65.001 -13c-23.333 0 -45.166 4.33301 -65.499 13s-38 20.667 -53 36s-27 33.166 -36 53.499 s-13.5 42.166 -13.5 65.499z"/>
    <glyph glyph-name="at" unicode="@" horiz-adv-x="1638" d="M639 688c0 -29.333 4.16895 -55.334 12.502 -78.001s19.833 -41.667 34.5 -57s32 -27 52 -35s41.667 -12 65 -12c29.333 0 56.166 5.83301 80.499 17.5s45.166 27.834 62.499 48.501s30.833 45.167 40.5 73.5s14.5 58.833 14.5 91.5c0 52.667 -13.333 95.167 -40 127.5 s-65.667 48.5 -117 48.5c-30 0 -57.5 -6 -82.5 -18s-46.5 -28.333 -64.5 -49s-32.167 -44.667 -42.5 -72s-15.5 -56 -15.5 -86zM1186 613.999c-1.33301 -4.66699 -2.66309 -10.3281 -3.99609 -16.9951s-2.5 -13.5 -3.5 -20.5s-2 -13.667 -3 -20s-1.5 -11.5 -1.5 -15.5 c0 -12.667 2.83301 -22.667 8.5 -30s15.5 -11 29.5 -11c18.667 0 38.5 6 59.5 18s40.5 30.833 58.5 56.5s33 58.334 45 98.001s18 87.167 18 142.5c0 82.667 -13.5 155.834 -40.5 219.501s-64.667 117 -113 160s-105.666 75.5 -171.999 97.5s-138.833 33 -217.5 33 s-152.5 -15.5 -221.5 -46.5s-129 -73.167 -180 -126.5s-91.333 -115.833 -121 -187.5s-44.5 -148.167 -44.5 -229.5c0 -91.333 15 -173 45 -245s71.167 -133.333 123.5 -184s114.166 -89.334 185.499 -116.001s148.333 -40 231 -40c51.333 0 96.166 3.33301 134.499 10 s72 15 101 25s53.833 20.833 74.5 32.5s38.667 22.5 54 32.5s29 18.333 41 25s24 10 36 10c10 0 19.667 -2.16699 29 -6.5s17.5 -10.166 24.5 -17.499s12.667 -15.833 17 -25.5s6.5 -19.834 6.5 -30.501c0 -18.667 -8 -37.5 -24 -56.5s-37.5 -37.333 -64.5 -55 s-58 -34.334 -93 -50.001s-71.667 -29.334 -110 -41.001s-77 -20.834 -116 -27.501s-75.833 -10 -110.5 -10c-73.333 0 -144.333 8.66699 -213 26s-132.834 42 -192.501 74s-114.167 70.833 -163.5 116.5s-91.666 97 -126.999 154s-62.666 119 -81.999 186 s-29 138.167 -29 213.5c0 74 9.5 144.5 28.5 211.5s45.833 129.167 80.5 186.5s76.167 109.166 124.5 155.499s102 85.833 161 118.5s122.167 57.834 189.5 75.501s137.666 26.5 210.999 26.5c65.333 0 128.5 -6.66699 189.5 -20s118.167 -32.5 171.5 -57.5s102 -56 146 -93 s81.833 -79 113.5 -126s56.334 -98.833 74.001 -155.5s26.5 -117.667 26.5 -183c0 -77.333 -10 -145.5 -30 -204.5s-45.667 -110.333 -77 -154s-66.5 -80.334 -105.5 -110.001s-77.833 -53.334 -116.5 -71.001s-74.667 -30.334 -108 -38.001s-60.333 -11.5 -81 -11.5 c-80 0 -121 34.667 -123 104h-4c-24.667 -28.667 -54.5 -53.167 -89.5 -73.5s-76.167 -30.5 -123.5 -30.5c-43.333 0 -83.5 9.16699 -120.5 27.5s-68.833 43.666 -95.5 75.999s-47.5 70.5 -62.5 114.5s-22.5 91.333 -22.5 142c0 70.667 10.667 136 32 196s50 111.667 86 155 s77.5 77.333 124.5 102s95.833 37 146.5 37c31.333 0 59.333 -2.66699 84 -8s47.167 -13.166 67.5 -23.499s38.666 -23.5 54.999 -39.5s32.166 -34.667 47.499 -56l8 36c3.33301 16 8.66602 28.833 15.999 38.5s15.5 17.167 24.5 22.5s18.5 8.83301 28.5 10.5 s19.667 2.5 29 2.5c25.333 0 46.666 -7.5 63.999 -22.5s26 -36.833 26 -65.5c0 -6 -0.5 -13.833 -1.5 -23.5s-3.16699 -21.5 -6.5 -35.5z"/>
    <glyph glyph-name="A" unicode="A" horiz-adv-x="1366" d="M485 1399c14.667 38 35.3301 64.5 61.9971 79.5s60.667 22.5 102 22.5h80c18.667 0 36.834 -1.5 54.501 -4.5s34.334 -8.83301 50.001 -17.5s29.834 -21.167 42.501 -37.5s23.667 -37.5 33 -63.5l406 -1128c2.66699 -8 6 -17.5 10 -28.5s7.66699 -22.5 11 -34.5 s6.16602 -23.667 8.49902 -35s3.5 -21.666 3.5 -30.999c0 -20.667 -4.16699 -40 -12.5 -58s-19.666 -33.667 -33.999 -47s-31.166 -23.833 -50.499 -31.5s-39.666 -11.5 -60.999 -11.5c-37.333 0 -68.833 7.16699 -94.5 21.5s-44.834 38.166 -57.501 71.499l-86 245h-540 l-88 -245c-11.333 -33.333 -29.166 -57.166 -53.499 -71.499s-56.5 -21.5 -96.5 -21.5c-23.333 0 -44.5 3.5 -63.5 10.5s-35.333 17 -49 30s-24.334 28.5 -32.001 46.5s-11.5 38.333 -11.5 61c0 9.33301 1.16699 19.666 3.5 30.999s5.16602 23 8.49902 35 s6.83301 23.5 10.5 34.5s7.16699 20.5 10.5 28.5zM687.996 1137h-4l-199 -592h394z"/>
    <glyph glyph-name="B" unicode="B" horiz-adv-x="1479" d="M156 1278c0 37.333 4.66602 68.5029 13.999 93.5029s22.5 45.167 39.5 60.5s37.5 26.333 61.5 33s51 10 81 10h447c40.667 0 82.334 -1.83301 125.001 -5.5s83.834 -10.667 123.501 -21s77.167 -24.333 112.5 -42s66 -40.667 92 -69s46.667 -62.5 62 -102.5 s23 -87 23 -141c0 -31.333 -4.16699 -62 -12.5 -92s-21.166 -58 -38.499 -84s-39 -49.5 -65 -70.5s-56.333 -38.5 -91 -52.5v-4c38.667 -10 74 -24.667 106 -44s59.333 -43.5 82 -72.5s40.167 -63.333 52.5 -103s18.5 -84.834 18.5 -135.501 c0 -77.333 -14.667 -143.5 -44 -198.5s-68.833 -100.167 -118.5 -135.5s-107.334 -61.166 -173.001 -77.499s-134.834 -24.5 -207.501 -24.5h-494c-30 0 -57 3.16699 -81 9.5s-44.5 17.166 -61.5 32.499s-30.167 35.666 -39.5 60.999s-14 56.666 -14 93.999v1081z M491.999 258.003l282.001 -0.000976562c32.667 0 65.667 2.33301 99 7s63.333 14 90 28s48.334 33.833 65.001 59.5s25 59.834 25 102.501c0 44.667 -9 80.167 -27 106.5s-41.833 46.5 -71.5 60.5s-63.834 23 -102.501 27s-78.334 6 -119.001 6h-241v-397zM492 868.002 l275.998 -0.000976562c79.333 0 138 15.5 176 46.5s57 75.833 57 134.5c0 35.333 -6.83301 64.5 -20.5 87.5s-31.667 41.333 -54 55s-48.166 23.334 -77.499 29.001s-59.666 8.5 -90.999 8.5h-266v-361z"/>
    <glyph glyph-name="C" unicode="C" horiz-adv-x="1479" d="M109 737c0 104 15.168 202.667 45.501 296s75.666 175.333 135.999 246s135.5 126.667 225.5 168s194.333 62 313 62c64 0 123.167 -6.16699 177.5 -18.5s103.666 -28.833 147.999 -49.5s83.333 -44.167 117 -70.5s61.834 -53.833 84.501 -82.5 s39.834 -57.167 51.501 -85.5s17.5 -54.5 17.5 -78.5c0 -47.333 -12.667 -84.333 -38 -111s-63 -40 -113 -40c-32.667 0 -59.167 6.5 -79.5 19.5s-38.333 29.5 -54 49.5s-31.167 41.333 -46.5 64s-34 44 -56 64s-49.5 36.5 -82.5 49.5s-75.167 19.5 -126.5 19.5 c-52.667 0 -102.334 -11.167 -149.001 -33.5s-87.5 -54.833 -122.5 -97.5s-62.667 -95.167 -83 -157.5s-30.5 -133.5 -30.5 -213.5c0 -67.333 7.16699 -131.166 21.5 -191.499s37.166 -113.5 68.499 -159.5s72.333 -82.5 123 -109.5s112.334 -40.5 185.001 -40.5 c44 0 81.167 7 111.5 21s56.5 31.333 78.5 52s41.333 43.334 58 68.001s33.167 47.334 49.5 68.001s34 38 53 52s42.167 21 69.5 21c20 0 39.833 -2.83301 59.5 -8.5s37.167 -14 52.5 -25s27.666 -24.5 36.999 -40.5s14 -34.333 14 -55 c0 -35.333 -6.83301 -70.333 -20.5 -105s-33.167 -67.834 -58.5 -99.501s-55.666 -60.834 -90.999 -87.501s-74.5 -49.834 -117.5 -69.501s-89.5 -35 -139.5 -46s-102 -16.5 -156 -16.5c-115.333 0 -218.333 16.333 -309 49s-167.5 81.5 -230.5 146.5s-111 145.5 -144 241.5 s-49.5 207.667 -49.5 335z"/>
    <glyph glyph-name="D" unicode="D" horiz-adv-x="1554" d="M156 1278c0 37.333 4.66602 68.5039 13.999 93.5039s22.5 45.167 39.5 60.5s37.5 26.333 61.5 33s51 10 81 10h410c60.667 0 120.334 -4.83301 179.001 -14.5s114 -25.834 166 -48.501s99.833 -52.5 143.5 -89.5s81.334 -82.833 113.001 -137.5s56.334 -119 74.001 -193 s26.5 -159 26.5 -255c0 -116.667 -15.833 -220.667 -47.5 -312s-77.834 -168.5 -138.501 -231.5s-134.834 -111 -222.501 -144s-187.5 -49.5 -299.5 -49.5h-404c-30 0 -57 3.16699 -81 9.5s-44.5 17.166 -61.5 32.499s-30.167 35.666 -39.5 60.999s-14 56.666 -14 93.999 v1081zM491.999 270.004h281.999c66.667 0 122.667 13.667 168 41s81.833 63.166 109.5 107.499s47.334 94.333 59.001 150s17.5 111.834 17.5 168.501c0 72.667 -7 137.834 -21 195.501s-35.5 106.667 -64.5 147s-66 71.166 -111 92.499s-98.167 32 -159.5 32h-280v-934z "/>
    <glyph glyph-name="E" unicode="E" horiz-adv-x="1403" d="M164 1278c0 37.333 4.66699 68.5029 14 93.5029s22.5 45.167 39.5 60.5s37.667 26.333 62 33s51.166 10 80.499 10h789c24.667 0 47.334 -2 68.001 -6s38.5 -11.167 53.5 -21.5s26.833 -24.333 35.5 -42s13 -39.834 13 -66.501s-4.33301 -48.667 -13 -66 s-20.5 -31.166 -35.5 -41.499s-32.833 -17.5 -53.5 -21.5s-43.334 -6 -68.001 -6h-649v-319h569c22 0 42.667 -1.83301 62 -5.5s36 -10.334 50 -20.001s25.167 -22.834 33.5 -39.501s12.5 -38 12.5 -64s-4.16699 -47.5 -12.5 -64.5s-19.5 -30.167 -33.5 -39.5 s-30.667 -15.833 -50 -19.5s-40 -5.5 -62 -5.5h-569v-357h665c24.667 0 47.5 -2 68.5 -6s39 -11.167 54 -21.5s26.667 -24.166 35 -41.499s12.5 -39.333 12.5 -66s-4.16699 -48.667 -12.5 -66s-20 -31.166 -35 -41.499s-33 -17.5 -54 -21.5s-43.833 -6 -68.5 -6h-805 c-29.333 0 -56.166 3.16699 -80.499 9.5s-45 17.166 -62 32.499s-30.167 35.666 -39.5 60.999s-14 56.666 -14 93.999v1081z"/>
    <glyph glyph-name="F" unicode="F" horiz-adv-x="1290" d="M164 1278c0 37.333 4.66895 68.502 14.002 93.502s22.5 45.167 39.5 60.5s37.667 26.333 62 33s51.166 10 80.499 10h740c24.667 0 47.334 -2 68.001 -6s38.5 -11.167 53.5 -21.5s26.833 -24.333 35.5 -42s13 -39.834 13 -66.501s-4.33301 -48.667 -13 -66 s-20.5 -31.166 -35.5 -41.499s-32.833 -17.5 -53.5 -21.5s-43.334 -6 -68.001 -6h-600v-344h508c22 0 42.5 -1.83301 61.5 -5.5s35.667 -10.167 50 -19.5s25.5 -22.5 33.5 -39.5s12 -38.5 12 -64.5s-4 -47.333 -12 -64s-19.167 -29.834 -33.5 -39.501 s-31 -16.334 -50 -20.001s-39.5 -5.5 -61.5 -5.5h-508v-461c0 -25.333 -4 -48.166 -12 -68.499s-19.333 -38 -34 -53s-32.334 -26.5 -53.001 -34.5s-43.667 -12 -69 -12c-26 0 -49.333 4 -70 12s-38.167 19.5 -52.5 34.5s-25.5 32.667 -33.5 53s-12 43.166 -12 68.499v1137z "/>
    <glyph glyph-name="G" unicode="G" horiz-adv-x="1669" d="M1524 86c0 -15.333 -2.83301 -29.8359 -8.5 -43.5029s-13.5 -25.667 -23.5 -36s-22.167 -18.5 -36.5 -24.5s-29.833 -9 -46.5 -9c-24 0 -44 3.83301 -60 11.5s-29.333 19.334 -40 35.001s-19.334 35.5 -26.001 59.5s-12.334 52.333 -17.001 85 c-24 -30 -50.667 -57.333 -80 -82s-61.833 -45.667 -97.5 -63s-75.167 -30.666 -118.5 -39.999s-91 -14 -143 -14c-86.667 0 -164.5 9.5 -233.5 28.5s-130.167 45.667 -183.5 80s-99 75.333 -137 123s-69.167 100 -93.5 157s-42.166 118 -53.499 183s-17 131.833 -17 200.5 c0 124.667 18.5 235 55.5 331s89.333 176.667 157 242s148.667 114.833 243 148.5s198.5 50.5 312.5 50.5c92.667 0 174.667 -12.333 246 -37s131 -55 179 -91s84.333 -74.5 109 -115.5s37 -77.833 37 -110.5c0 -29.333 -4.83301 -53.5 -14.5 -72.5s-22.167 -34 -37.5 -45 s-32.333 -18.667 -51 -23s-37 -6.5 -55 -6.5c-27.333 0 -49.5 5.66699 -66.5 17s-32.5 25.666 -46.5 42.999s-28.167 35.833 -42.5 55.5s-32.833 38.167 -55.5 55.5s-51.5 31.666 -86.5 42.999s-79.833 17 -134.5 17c-58 0 -112.167 -9.83301 -162.5 -29.5 s-94.166 -50.667 -131.499 -93s-66.666 -96.666 -87.999 -162.999s-32 -145.833 -32 -238.5c0 -72.667 9 -139.167 27 -199.5s44.5 -112.166 79.5 -155.499s78.5 -77 130.5 -101s112.333 -36 181 -36c44.667 0 87.167 7.16699 127.5 21.5s76.333 34.833 108 61.5 s57.667 58.334 78 95.001s32.5 77.667 36.5 123h-219c-18 0 -35.833 2 -53.5 6s-33.834 10.833 -48.501 20.5s-26.5 22.834 -35.5 39.501s-13.5 37.667 -13.5 63c0 41.333 11.333 73.166 34 95.499s55 33.5 97 33.5h413c50 0 85.5 -12 106.5 -36s31.5 -59 31.5 -105v-555z "/>
    <glyph glyph-name="H" unicode="H" horiz-adv-x="1593" d="M156 1333c0 50.667 15.0039 91.334 45.0039 122.001s71 46 123 46c51.333 0 92.166 -15.333 122.499 -46s45.5 -71.334 45.5 -122.001v-418h610v418c0 50.667 15 91.334 45 122.001s71 46 123 46c51.333 0 92.166 -15.333 122.499 -46s45.5 -71.334 45.5 -122.001v-1192 c0 -25.333 -4 -48.166 -12 -68.499s-19.333 -38 -34 -53s-32.334 -26.5 -53.001 -34.5s-43.667 -12 -69 -12c-26 0 -49.333 4 -70 12s-38.167 19.5 -52.5 34.5s-25.5 32.667 -33.5 53s-12 43.166 -12 68.499v492h-610v-492c0 -25.333 -4 -48.166 -12 -68.499 s-19.333 -38 -34 -53s-32.334 -26.5 -53.001 -34.5s-43.667 -12 -69 -12c-26 0 -49.333 4 -70 12s-38.167 19.5 -52.5 34.5s-25.5 32.667 -33.5 53s-12 43.166 -12 68.499v1192z"/>
    <glyph glyph-name="I" unicode="I" horiz-adv-x="647" d="M156 1333c0 50.667 15.002 91.334 45.002 122.001s71 46 123 46c51.333 0 92.166 -15.333 122.499 -46s45.5 -71.334 45.5 -122.001v-1192c0 -25.333 -4 -48.166 -12 -68.499s-19.333 -38 -34 -53s-32.334 -26.5 -53.001 -34.5s-43.667 -12 -69 -12 c-26 0 -49.333 4 -70 12s-38.167 19.5 -52.5 34.5s-25.5 32.667 -33.5 53s-12 43.166 -12 68.499v1192z"/>
    <glyph glyph-name="J" unicode="J" horiz-adv-x="1176" d="M1020 461c0 -77.333 -10.6641 -146.668 -31.9971 -208.001s-53.166 -113.333 -95.499 -156s-95 -75.334 -158 -98.001s-135.833 -34 -218.5 -34c-67.333 0 -125.833 6.83301 -175.5 20.5s-92.334 31.834 -128.001 54.501s-64.834 48.5 -87.501 77.5 s-40.5 58.833 -53.5 89.5s-22 60.834 -27 90.501s-7.5 56.834 -7.5 81.501c0 62.667 13.667 112.5 41 149.5s67 55.5 119 55.5c30 0 54.667 -5.5 74 -16.5s34.833 -25.5 46.5 -43.5s19.667 -38.833 24 -62.5s6.5 -47.834 6.5 -72.501c0 -24 3 -46.167 9 -66.5 s15.5 -37.833 28.5 -52.5s29.833 -26.167 50.5 -34.5s46 -12.5 76 -12.5c56 0 98.667 20.167 128 60.5s44 100.833 44 181.5v868c0 50.667 15.167 91.334 45.5 122.001s71.166 46 122.499 46s92.166 -15.333 122.499 -46s45.5 -71.334 45.5 -122.001v-872z"/>
    <glyph glyph-name="K" unicode="K" horiz-adv-x="1403" d="M156 1333c0 50.667 15.0029 91.3359 45.0029 122.003s71 46 123 46c51.333 0 92.166 -15.333 122.499 -46s45.5 -71.334 45.5 -122.001v-487l528 581c19.333 20.667 39 38.167 59 52.5s44.667 21.5 74 21.5c20 0 39.5 -3 58.5 -9s36 -14.833 51 -26.5 s27.167 -25.834 36.5 -42.501s14 -35.667 14 -57c0 -25.333 -5.66699 -47.166 -17 -65.499s-24.333 -34.833 -39 -49.5l-344 -362l408 -621l43 -68c13.333 -22 20 -43.667 20 -65c0 -31.333 -5.16699 -57.333 -15.5 -78s-23.833 -37.334 -40.5 -50.001 s-35.167 -21.5 -55.5 -26.5s-40.5 -7.5 -60.5 -7.5c-16.667 0 -31.667 1.33301 -45 4s-25.833 7.16699 -37.5 13.5s-22.834 15.166 -33.501 26.499s-21.667 26 -33 44l-387 598l-184 -184v-334c0 -25.333 -4 -48.166 -12 -68.499s-19.333 -38 -34 -53 s-32.334 -26.5 -53.001 -34.5s-43.667 -12 -69 -12c-26 0 -49.333 4 -70 12s-38.167 19.5 -52.5 34.5s-25.5 32.667 -33.5 53s-12 43.166 -12 68.499v1192z"/>
    <glyph glyph-name="L" unicode="L" horiz-adv-x="1251" d="M156 1333c0 50.667 15.001 91.3369 45.001 122.004s71 46 123 46c51.333 0 92.166 -15.333 122.499 -46s45.5 -71.334 45.5 -122.001v-1050h561c24 0 46.5 -3.16699 67.5 -9.5s39.5 -15.5 55.5 -27.5s28.5 -26.833 37.5 -44.5s13.5 -37.834 13.5 -60.501 c0 -23.333 -4.5 -43.666 -13.5 -60.999s-21.5 -32 -37.5 -44s-34.5 -21 -55.5 -27s-43.5 -9 -67.5 -9h-701c-30 0 -57 3.16699 -81 9.5s-44.5 17.166 -61.5 32.499s-30.167 35.666 -39.5 60.999s-14 56.666 -14 93.999v1136z"/>
    <glyph glyph-name="M" unicode="M" horiz-adv-x="1819" d="M150 1335c0 34 5.33105 61.667 15.998 83s24.5 38.166 41.5 50.499s36.333 20.833 58 25.5s43.834 7 66.501 7h98c26 0 48.833 -2.66699 68.5 -8s37 -14.166 52 -26.499s27.833 -28.166 38.5 -47.499s20.334 -43 29.001 -71l293 -947h4l289 947 c8.66699 28 18.5 51.667 29.5 71s24 35.166 39 47.499s32.333 21.166 52 26.499s42.5 8 68.5 8h94c22.667 0 44.834 -2.33301 66.501 -7s41 -13.167 58 -25.5s30.833 -29.166 41.5 -50.499s16 -49 16 -83v-1198c0 -21.333 -2.66699 -41.833 -8 -61.5s-14 -37 -26 -52 s-27.5 -27.167 -46.5 -36.5s-41.833 -14 -68.5 -14c-27.333 0 -50.5 4.66699 -69.5 14s-34.5 21.5 -46.5 36.5s-20.667 32.333 -26 52s-8 40.167 -8 61.5v914h-4l-313 -979c-11.333 -35.333 -29.333 -60.666 -54 -75.999s-54.667 -23 -90 -23 c-34.667 0 -64.334 7.66699 -89.001 23s-42.667 40.666 -54 75.999l-313 979h-4v-914c0 -21.333 -2.66699 -41.833 -8 -61.5s-14 -37 -26 -52s-27.5 -27.167 -46.5 -36.5s-42.167 -14 -69.5 -14s-50.5 4.66699 -69.5 14s-34.333 21.5 -46 36.5s-20.167 32.333 -25.5 52 s-8 40.167 -8 61.5v1198z"/>
    <glyph glyph-name="N" unicode="N" horiz-adv-x="1593" d="M150 1305c0 70 17.0039 120.166 51.0039 150.499s87 45.5 159 45.5c35.333 0 67.666 -6.83301 96.999 -20.5s53 -36.167 71 -67.5l588 -948h4v874c0 54.667 14.5 95.334 43.5 122.001s68.5 40 118.5 40s89.5 -13.333 118.5 -40s43.5 -67.334 43.5 -122.001v-1157 c0 -66.667 -15.5 -118.167 -46.5 -154.5s-81.833 -54.5 -152.5 -54.5c-26.667 0 -49.167 1.5 -67.5 4.5s-34.333 8 -48 15s-25.834 16.333 -36.501 28s-21.334 25.834 -32.001 42.501l-584 922h-4v-850c0 -54 -14.333 -94.5 -43 -121.5s-68.334 -40.5 -119.001 -40.5 c-50 0 -89.333 13.5 -118 40.5s-43 67.5 -43 121.5v1170z"/>
    <glyph glyph-name="O" unicode="O" horiz-adv-x="1671" d="M90 756c0 108 16.165 208.001 48.498 300.001s80 171.5 143 238.5s140.833 119.5 233.5 157.5s199.667 57 321 57c120.667 0 227.334 -19 320.001 -57s170.5 -90.5 233.5 -157.5s110.667 -146.5 143 -238.5s48.5 -192 48.5 -300c0 -69.333 -6.83301 -137 -20.5 -203 s-34 -128.333 -61 -187s-61.167 -112.5 -102.5 -161.5s-89.5 -91.333 -144.5 -127s-117.167 -63.334 -186.5 -83.001s-146 -29.5 -230 -29.5c-132 0 -245.167 20.167 -339.5 60.5s-171.666 96 -231.999 167s-104.5 154.667 -132.5 251s-42 200.5 -42 312.5zM425.998 756.001 c0 -70.667 6.50098 -137.5 19.501 -200.5s35.333 -118.167 67 -165.5s73.667 -84.833 126 -112.5s118.166 -41.5 197.499 -41.5c76 0 140.167 13.833 192.5 41.5s94.5 65.167 126.5 112.5s55 102.5 69 165.5s21 129.833 21 200.5s-8.5 135.5 -25.5 194.5 s-42.5 109.833 -76.5 152.5s-76.5 76 -127.5 100s-110.833 36 -179.5 36s-128.667 -12 -180 -36s-94 -57.333 -128 -100s-59.5 -93.5 -76.5 -152.5s-25.5 -123.833 -25.5 -194.5z"/>
    <glyph glyph-name="P" unicode="P" horiz-adv-x="1442" d="M156 1278c0 37.333 4.66992 68.5 14.0029 93.5s22.5 45.167 39.5 60.5s37.5 26.333 61.5 33s51 10 81 10h514c70.667 0 137 -9 199 -27s116 -46 162 -84s82.333 -86.333 109 -145s40 -129 40 -211c0 -67.333 -11.333 -129.5 -34 -186.5s-55.834 -106.333 -99.501 -148 s-97.334 -74.167 -161.001 -97.5s-136.167 -35 -217.5 -35h-372v-400c0 -25.333 -4 -48.166 -12 -68.499s-19.333 -38 -34 -53s-32.334 -26.5 -53.001 -34.5s-43.667 -12 -69 -12c-26 0 -49.333 4 -70 12s-38.167 19.5 -52.5 34.5s-25.5 32.667 -33.5 53 s-12 43.166 -12 68.499v1137zM492.003 799h312.998c34 0 65.333 5 94 15s53.5 24 74.5 42s37.333 39.833 49 65.5s17.5 54.5 17.5 86.5c0 36.667 -6.33301 68.167 -19 94.5s-30.667 48 -54 65s-51.666 29.5 -84.999 37.5s-70.666 12 -111.999 12h-278v-418z"/>
    <glyph glyph-name="Q" unicode="Q" horiz-adv-x="1671" d="M90 756c0 108 16.165 208.002 48.498 300.002s80 171.5 143 238.5s140.833 119.5 233.5 157.5s199.667 57 321 57c120.667 0 227.334 -19 320.001 -57s170.5 -90.5 233.5 -157.5s110.667 -146.5 143 -238.5s48.5 -192 48.5 -300c0 -54 -4.16699 -107.333 -12.5 -160 s-20.833 -103.334 -37.5 -152.001s-37.667 -94.834 -63 -138.501s-55.333 -83.5 -90 -119.5l129 -120c18 -16 27 -35.333 27 -58c0 -14 -3.16699 -28.5 -9.5 -43.5s-14.833 -28.5 -25.5 -40.5s-23 -21.833 -37 -29.5s-28.333 -11.5 -43 -11.5c-12 0 -22.5 1 -31.5 3 s-17 4.83301 -24 8.5s-13.667 8.16699 -20 13.5l-20.5 18l-129 121c-50 -26.667 -104.667 -47 -164 -61s-124 -21 -194 -21c-132 0 -245.167 20.167 -339.5 60.5s-171.666 96 -231.999 167s-104.5 154.667 -132.5 251s-42 200.5 -42 312.5zM425.998 756.002 c0 -70.667 6.5 -137.499 19.5 -200.499s35.333 -118.167 67 -165.5s73.667 -84.833 126 -112.5s118.166 -41.5 197.499 -41.5c50.667 0 95.667 6 135 18l-115 106c-8 7.33301 -14.5 16 -19.5 26s-7.5 20.667 -7.5 32c0 14 3.16699 28.5 9.5 43.5s14.833 28.5 25.5 40.5 s23 21.833 37 29.5s28.333 11.5 43 11.5c24.667 0 43.334 -4 56.001 -12s26 -18.333 40 -31l117 -107c31.333 46 53.833 100.167 67.5 162.5s20.5 129.166 20.5 200.499c0 70.667 -8.5 135.5 -25.5 194.5s-42.5 109.833 -76.5 152.5s-76.5 76 -127.5 100 s-110.833 36 -179.5 36s-128.667 -12 -180 -36s-94 -57.333 -128 -100s-59.5 -93.5 -76.5 -152.5s-25.5 -123.833 -25.5 -194.5z"/>
    <glyph glyph-name="R" unicode="R" horiz-adv-x="1518" d="M156 1278c0 37.333 4.6709 68.498 14.0039 93.498s22.5 45.167 39.5 60.5s37.5 26.333 61.5 33s51 10 81 10h559c66.667 0 125.5 -5.66699 176.5 -17s95.167 -27 132.5 -47s68.666 -43.333 93.999 -70s45.666 -55.167 60.999 -85.5s26.166 -61.833 32.499 -94.5 s9.5 -64.667 9.5 -96c0 -40 -5.66699 -79.167 -17 -117.5s-28 -73.5 -50 -105.5s-48.667 -59.5 -80 -82.5s-67 -39.167 -107 -48.5v-4c42.667 -6 77.334 -18 104.001 -36s47.334 -40.333 62.001 -67s24.5 -56.667 29.5 -90s7.5 -68.666 7.5 -105.999 c0 -42.667 2.33301 -79.167 7 -109.5s9.83398 -57 15.501 -80l15.5 -61.5c4.66699 -18 7 -35.667 7 -53c0 -19.333 -4.5 -37 -13.5 -53s-21 -29.833 -36 -41.5s-32 -20.667 -51 -27s-38.167 -9.5 -57.5 -9.5c-30.667 0 -56.834 4.5 -78.501 13.5s-39.834 20.667 -54.501 35 s-26.334 30.5 -35.001 48.5s-15.167 35.833 -19.5 53.5s-7.16602 34.167 -8.49902 49.5s-2 28 -2 38c0 64.667 -3.33301 119.834 -10 165.501s-18.834 83 -36.501 112s-41.5 50.333 -71.5 64s-68 20.5 -114 20.5h-331v-432c0 -25.333 -4 -48.166 -12 -68.499 s-19.333 -38 -34 -53s-32.334 -26.5 -53.001 -34.5s-43.667 -12 -69 -12c-26 0 -49.333 4 -70 12s-38.167 19.5 -52.5 34.5s-25.5 32.667 -33.5 53s-12 43.166 -12 68.499v1137zM492.004 818.998h334.999c32 0 63.167 2.5 93.5 7.5s57.333 14.833 81 29.5 s42.834 35 57.501 61s22 59.667 22 101c0 39.333 -5.83301 71.833 -17.5 97.5s-28 46 -49 61s-46.5 25.5 -76.5 31.5s-63.333 9 -100 9h-346v-398z"/>
    <glyph glyph-name="S" unicode="S" horiz-adv-x="1403" d="M928 854c76.667 -17.333 139.834 -41.1641 189.501 -71.4971s89 -64.5 118 -102.5s49.167 -78.5 60.5 -121.5s17 -85.833 17 -128.5c0 -66.667 -12.5 -128.334 -37.5 -185.001s-62.833 -105.834 -113.5 -147.501s-113.834 -74.167 -189.501 -97.5 s-164.167 -35 -265.5 -35c-106.667 0 -198.834 12 -276.501 36s-141.667 54.167 -192 90.5s-87.666 76.5 -111.999 120.5s-36.5 86 -36.5 126c0 20.667 3.5 39.5 10.5 56.5s16.833 31.667 29.5 44s27.667 21.833 45 28.5s36 10 56 10c30.667 0 55.834 -6.5 75.501 -19.5 s37.667 -29.5 54 -49.5l50 -64c17 -22.667 38 -44 63 -64s56 -36.5 93 -49.5s83.833 -19.5 140.5 -19.5c43.333 0 81.833 5.5 115.5 16.5s62 25.667 85 44s40.333 39.166 52 62.499s17.5 47.333 17.5 72c0 14.667 -2.16699 29.5 -6.5 44.5s-11.833 29.333 -22.5 43 s-25.167 26.167 -43.5 37.5s-41.833 20.666 -70.5 27.999l-379 96c-76 19.333 -137.667 43.833 -185 73.5s-84 62.5 -110 98.5s-43.5 73.833 -52.5 113.5s-13.5 79.167 -13.5 118.5c0 54.667 8 103.667 24 147s37.833 81.666 65.5 114.999s60.334 61.833 98.001 85.5 s78.167 43.167 121.5 58.5s88.833 26.5 136.5 33.5s95.167 10.5 142.5 10.5c43.333 0 87.666 -4 132.999 -12s89.166 -19.167 131.499 -33.5s82.166 -31.833 119.499 -52.5s69.833 -43.667 97.5 -69s49.5 -53 65.5 -83s24 -61.333 24 -94 c0 -21.333 -4.16699 -40.166 -12.5 -56.499s-19.5 -30.166 -33.5 -41.499s-30.167 -20 -48.5 -26s-37.833 -9 -58.5 -9c-26 0 -47.667 5.33301 -65 16s-33.666 24.167 -48.999 40.5l-47.5 53c-16.333 19 -36.5 36.667 -60.5 53s-53.5 29.833 -88.5 40.5s-78.5 16 -130.5 16 c-78 0 -137.667 -16 -179 -48s-62 -74 -62 -126c0 -25.333 7 -46.833 21 -64.5s32 -32.5 54 -44.5s46.5 -21.833 73.5 -29.5s53.833 -14.5 80.5 -20.5z"/>
    <glyph glyph-name="T" unicode="T" horiz-adv-x="1368" d="M516 1192h-316.998c-24 0 -46.667 3 -68 9s-39.833 15 -55.5 27s-28 26.667 -37 44s-13.5 37.666 -13.5 60.999c0 22.667 4.5 42.834 13.5 60.501s21.333 32.5 37 44.5s34.167 21.167 55.5 27.5s44 9.5 68 9.5h970c24 0 46.667 -3.16699 68 -9.5s39.833 -15.5 55.5 -27.5 s28 -26.833 37 -44.5s13.5 -37.834 13.5 -60.501c0 -23.333 -4.5 -43.666 -13.5 -60.999s-21.333 -32 -37 -44s-34.167 -21 -55.5 -27s-44 -9 -68 -9h-317v-1051c0 -25.333 -4 -48.166 -12 -68.499s-19.333 -38 -34 -53s-32.334 -26.5 -53.001 -34.5s-43.667 -12 -69 -12 s-48.333 4 -69 12s-38.334 19.5 -53.001 34.5s-26 32.667 -34 53s-12 43.166 -12 68.499v1051z"/>
    <glyph glyph-name="U" unicode="U" horiz-adv-x="1593" d="M156 1333c0 50.667 15.002 91.334 45.002 122.001s71 46 123 46c51.333 0 92.166 -15.333 122.499 -46s45.5 -71.334 45.5 -122.001v-807c0 -100 26.667 -173.333 80 -220s128.333 -70 225 -70c96 0 170.833 23.333 224.5 70s80.5 120 80.5 220v807 c0 50.667 15 91.334 45 122.001s71 46 123 46c51.333 0 92.166 -15.333 122.499 -46s45.5 -71.334 45.5 -122.001v-780c0 -101.333 -15 -189 -45 -263s-72.833 -135 -128.5 -183s-123 -83.667 -202 -107s-167.5 -35 -265.5 -35s-186.5 11.667 -265.5 35 s-146.333 59 -202 107s-98.5 109 -128.5 183s-45 161.667 -45 263v780z"/>
    <glyph glyph-name="V" unicode="V" horiz-adv-x="1327" d="M862 90c-8.66699 -24 -19.3311 -43.667 -31.998 -59s-27.5 -27.166 -44.5 -35.499s-36.167 -14.166 -57.5 -17.499s-45 -5 -71 -5s-49.667 1.66699 -71 5s-40.5 9.16602 -57.5 17.499s-31.667 20.166 -44 35.499s-22.833 35 -31.5 59l-414 1163 c-14 38.667 -21 71.667 -21 99c0 28 4.83301 51.5 14.5 70.5s22.5 34.333 38.5 46s34.167 20 54.5 25s41.166 7.5 62.499 7.5c46 0 82 -12 108 -36s46.667 -61 62 -111l304 -1004h4l315 1004c15.333 50 35.666 87 60.999 111s57.666 36 96.999 36 c20.667 0 41.167 -2.5 61.5 -7.5s38.5 -13.333 54.5 -25s29 -27 39 -46s15 -42.5 15 -70.5c0 -13.333 -1.66699 -28.333 -5 -45s-8.66602 -34.667 -15.999 -54z"/>
    <glyph glyph-name="W" unicode="W" horiz-adv-x="1896" d="M1573 133c-8 -29.333 -17.1621 -54.166 -27.4951 -74.499s-23.5 -36.833 -39.5 -49.5s-35 -21.834 -57 -27.501s-48.333 -8.5 -79 -8.5c-32 0 -59 3.33301 -81 10s-40.667 17 -56 31s-28 31.333 -38 52s-18.667 45 -26 73l-219 899h-4l-219 -899 c-6.66699 -28 -15 -52.333 -25 -73s-22.667 -38 -38 -52s-34.166 -24.333 -56.499 -31s-49.5 -10 -81.5 -10c-30.667 0 -57 2.83301 -79 8.5s-40.833 14.834 -56.5 27.501s-28.834 29.167 -39.501 49.5s-19.667 45.166 -27 74.499l-289 1120 c-4 15.333 -7.83301 31.166 -11.5 47.499s-5.5 32.833 -5.5 49.5c0 25.333 4.83301 47.5 14.5 66.5s22.167 34.667 37.5 47s32.666 21.666 51.999 27.999s38.666 9.5 57.999 9.5c43.333 0 77.833 -10.5 103.5 -31.5s43.834 -56.167 54.501 -105.5l199 -979h4l229 991 c4.66699 20.667 10.5 38.667 17.5 54s17 28.333 30 39s29.833 18.667 50.5 24s46.667 8 78 8c35.333 0 64.166 -4 86.499 -12s40.333 -19 54 -33s24.167 -30.833 31.5 -50.5s13.666 -41.167 18.999 -64.5l223 -956h4l201 979c10 49.333 27.667 84.5 53 105.5 s58 31.5 98 31.5c19.333 0 38.666 -3.16699 57.999 -9.5s36.666 -15.666 51.999 -27.999s27.833 -28 37.5 -47s14.5 -41.167 14.5 -66.5c0 -16.667 -1.66699 -33.167 -5 -49.5s-7 -32.166 -11 -47.499z"/>
    <glyph glyph-name="X" unicode="X" horiz-adv-x="1212" d="M420 760l-322.001 481c-10 15.333 -18.333 31.333 -25 48s-10 34.667 -10 54c0 22 4.16699 42.667 12.5 62s20 36.166 35 50.499s32.833 25.5 53.5 33.5s43 12 67 12c20 0 37.5 -2.66699 52.5 -8s28.167 -12 39.5 -20s20.833 -16.833 28.5 -26.5 s14.167 -18.834 19.5 -27.501l243 -420l260 420c8.66699 14 17.334 26.167 26.001 36.5s18.167 18.833 28.5 25.5s22.166 11.667 35.499 15s29.333 5 48 5c20.667 0 40.667 -2.83301 60 -8.5s36.5 -14.667 51.5 -27s27.167 -28 36.5 -47s14 -41.833 14 -68.5 c0 -14.667 -3.16699 -30.5 -9.5 -47.5s-13.5 -31.167 -21.5 -42.5l-342 -500l334 -502l23 -35.5c6.66699 -10.333 12.334 -20 17.001 -29s8.33398 -17.833 11.001 -26.5s4 -18 4 -28c0 -27.333 -4.5 -51.333 -13.5 -72s-21.333 -38 -37 -52s-34 -24.5 -55 -31.5 s-43.167 -10.5 -66.5 -10.5c-28 0 -53.667 4.83301 -77 14.5s-44.666 30.834 -63.999 63.501l-271 453l-291 -465c-14 -23.333 -32.833 -40.166 -56.5 -50.499s-48.5 -15.5 -74.5 -15.5c-24.667 0 -46.834 3.66699 -66.501 11s-36.5 17.5 -50.5 30.5 s-24.833 28.167 -32.5 45.5s-11.5 36.333 -11.5 57c0 17.333 2.66699 35.833 8 55.5s17.666 44.167 36.999 73.5z"/>
    <glyph glyph-name="Y" unicode="Y" d="M459 575l-411.999 685c-8 13.333 -14.833 27.5 -20.5 42.5s-8.5 30.167 -8.5 45.5c0 28.667 5.83301 52.667 17.5 72s26 35 43 47s35.5 20.667 55.5 26s38 8 54 8c40 0 71 -8.16699 93 -24.5s41.667 -40.833 59 -73.5l293 -539l291 539 c10 18.667 19.833 34.167 29.5 46.5s20.167 22.333 31.5 30s23.833 13.167 37.5 16.5s29.167 5 46.5 5c15.333 0 32.5 -2.66699 51.5 -8s37 -14 54 -26s31.333 -27.667 43 -47s17.5 -43.333 17.5 -72c0 -15.333 -2.66699 -30.5 -8 -45.5s-12.333 -29.167 -21 -42.5 l-411 -685v-434c0 -25.333 -4 -48.166 -12 -68.499s-19.333 -38 -34 -53s-32.334 -26.5 -53.001 -34.5s-43.667 -12 -69 -12c-26 0 -49.333 4 -70 12s-38.167 19.5 -52.5 34.5s-25.5 32.667 -33.5 53s-12 43.166 -12 68.499v434z"/>
    <glyph glyph-name="Z" unicode="Z" horiz-adv-x="1403" d="M877 1192l-585.999 -0.000976562c-24 0 -46.5 3 -67.5 9s-39.5 15 -55.5 27s-28.5 26.667 -37.5 44s-13.5 37.666 -13.5 60.999c0 22.667 4.5 42.834 13.5 60.501s21.5 32.5 37.5 44.5s34.5 21.167 55.5 27.5s43.5 9.5 67.5 9.5h885c21.333 0 41.5 -2.5 60.5 -7.5 s35.5 -13.5 49.5 -25.5s25 -27.833 33 -47.5s12 -44.167 12 -73.5c0 -20.667 -4 -41.667 -12 -63s-19.667 -40.666 -35 -57.999l-772 -917h655c24 0 46.667 -3.16699 68 -9.5s39.833 -15.5 55.5 -27.5s28 -26.833 37 -44.5s13.5 -37.834 13.5 -60.501 c0 -23.333 -4.5 -43.666 -13.5 -60.999s-21.333 -32 -37 -44s-34.167 -21 -55.5 -27s-44 -9 -68 -9h-911c-30.667 -0 -58.167 2.83301 -82.5 8.5s-44.833 15 -61.5 28s-29.334 30 -38.001 51s-13 47.167 -13 78.5c0 26.667 5.5 50.167 16.5 70.5s24.167 39.833 39.5 58.5z "/>
    <glyph glyph-name="bracketleft" unicode="[" horiz-adv-x="899" d="M473 -156h143c37.333 0 67.5 -8.33301 90.5 -25s34.5 -45 34.5 -85s-11.5 -68.5 -34.5 -85.5s-53.167 -25.5 -90.5 -25.5h-248c-21.333 0 -41.833 2.33301 -61.5 7s-37.334 13.334 -53.001 26.001s-28.167 30.167 -37.5 52.5s-14 51.166 -14 86.499v1508 c0 35.333 4.66699 64.166 14 86.499s21.833 39.833 37.5 52.5s33.334 21.334 53.001 26.001s40.167 7 61.5 7h248c37.333 0 67.5 -8.5 90.5 -25.5s34.5 -45.5 34.5 -85.5s-11.5 -68.5 -34.5 -85.5s-53.167 -25.5 -90.5 -25.5h-143v-1409z"/>
    <glyph glyph-name="backslash" unicode="\" horiz-adv-x="758" d="M725 137c4 -11.333 7.66504 -22.499 10.998 -33.499s5 -22.167 5 -33.5c0 -16.667 -3.33301 -31.5 -10 -44.5s-15.167 -24 -25.5 -33s-21.666 -15.833 -33.999 -20.5s-24.5 -7 -36.5 -7c-20 0 -36.5 2.83301 -49.5 8.5s-23.667 12.667 -32 21s-14.833 17.5 -19.5 27.5 s-8.66699 19 -12 27l-489 1288l-11.5 34c-3.66699 11.333 -5.5 22.666 -5.5 33.999c0 16 3.33301 30.5 10 43.5s15.334 24 26.001 33s22.167 15.833 34.5 20.5s24.5 7 36.5 7c20 0 36.5 -2.83301 49.5 -8.5s23.667 -12.667 32 -21s14.833 -17.5 19.5 -27.5 s8.66699 -19 12 -27z"/>
    <glyph glyph-name="bracketright" unicode="]" horiz-adv-x="899" d="M407 1253h-143c-37.333 0 -67.5 8.5 -90.5 25.5s-34.5 45.5 -34.5 85.5s11.5 68.5 34.5 85.5s53.167 25.5 90.5 25.5h248c20.667 0 41 -2.33301 61 -7s37.833 -13.334 53.5 -26.001s28.167 -30.167 37.5 -52.5s14 -51.166 14 -86.499v-1508 c0 -35.333 -4.66699 -64.166 -14 -86.499s-21.833 -39.833 -37.5 -52.5s-33.5 -21.334 -53.5 -26.001s-40.333 -7 -61 -7h-248c-37.333 0 -67.5 8.5 -90.5 25.5s-34.5 45.5 -34.5 85.5s11.5 68.333 34.5 85s53.167 25 90.5 25h143v1409z"/>
    <glyph glyph-name="asciicircum" unicode="^" horiz-adv-x="1229" d="M614 1110l-230.996 -424c-9.33301 -17.333 -19 -31.333 -29 -42s-20.667 -19 -32 -25s-23.5 -10 -36.5 -12s-27.5 -3 -43.5 -3c-21.333 0 -38.833 2.33301 -52.5 7s-24.334 10.667 -32.001 18s-13 15.333 -16 24s-4.5 17 -4.5 25c0 14.667 2.16699 29 6.5 43 s11.166 29.667 20.499 47l315 573c19.333 36 40 59.833 62 71.5s46.333 17.5 73 17.5c27.333 0 52 -5.83301 74 -17.5s42.667 -35.5 62 -71.5l315 -573c9.33301 -17.333 16.166 -33 20.499 -47s6.5 -28.333 6.5 -43c0 -8 -1.5 -16.333 -4.5 -25s-8.33301 -16.667 -16 -24 s-18.334 -13.333 -32.001 -18s-31.167 -7 -52.5 -7c-16 0 -30.5 1 -43.5 3s-25.167 6 -36.5 12s-22 14.333 -32 25s-19.667 24.667 -29 42z"/>
    <glyph glyph-name="underscore" unicode="_" horiz-adv-x="1024" d="M0 -256c-16.667 0 -30.667 4.33301 -42 13s-17 21.334 -17 38.001s5.66699 29.334 17 38.001s25.333 13 42 13h1024c16.667 0 30.667 -4.33301 42 -13s17 -21.334 17 -38.001s-5.66699 -29.334 -17 -38.001s-25.333 -13 -42 -13h-1024z"/>
    <glyph glyph-name="grave" unicode="`" horiz-adv-x="569" d="M399 1372c22.667 -18.667 38.332 -35 46.999 -49s13 -30.333 13 -49c0 -17.333 -3.33301 -32.333 -10 -45s-15 -23 -25 -31s-21.167 -14 -33.5 -18s-24.5 -6 -36.5 -6c-5.33301 0 -10.666 0.333008 -15.999 1s-11.666 2.16699 -18.999 4.5s-15.833 5.83301 -25.5 10.5 s-20.834 11.334 -33.501 20.001l-184 125c-24.667 16.667 -43.5 34.5 -56.5 53.5s-19.5 38.167 -19.5 57.5c0 10 2 21.667 6 35s10.333 25.666 19 36.999s20 21 34 29s31.333 12 52 12c24.667 0 48.5 -7.5 71.5 -22.5s44.833 -30.833 65.5 -47.5z"/>
    <glyph glyph-name="a" unicode="a" horiz-adv-x="1251" d="M1112 289c0 -31.333 1.65918 -57.1729 4.99219 -77.5059s6.83301 -37.666 10.5 -51.999s7.16699 -26.833 10.5 -37.5s5 -22 5 -34c0 -17.333 -3.66699 -33 -11 -47s-17.333 -26 -30 -36s-27 -17.833 -43 -23.5s-33 -8.5 -51 -8.5c-32 0 -59 4.66699 -81 14s-40 22 -54 38 s-24.167 34.5 -30.5 55.5s-10.166 43.167 -11.499 66.5c-29.333 -32 -59.666 -59.167 -90.999 -81.5s-64 -40.333 -98 -54s-69.333 -23.5 -106 -29.5s-74.667 -9 -114 -9c-42.667 0 -84.167 7 -124.5 21s-76.333 34.333 -108 61s-57.167 58.834 -76.5 96.501 s-29 80.167 -29 127.5c0 62 11 113.5 33 154.5s52 74.333 90 100s82.333 45.334 133 59.001s104.667 23.834 162 30.501l182 20c18 2 34.833 4.83301 50.5 8.5s29.334 9.5 41.001 17.5s20.834 18.833 27.501 32.5s10 31.167 10 52.5s-5.16699 39.833 -15.5 55.5 s-24 28.5 -41 38.5s-37 17.333 -60 22s-46.833 7 -71.5 7c-37.333 0 -69 -4 -95 -12s-48.5 -18.167 -67.5 -30.5s-35.5 -25.5 -49.5 -39.5l-41 -39.5c-13.333 -12.333 -27.333 -22.5 -42 -30.5s-31.667 -12 -51 -12s-36.666 3 -51.999 9s-28.666 14.333 -39.999 25 s-20 22.834 -26 36.501s-9 28.167 -9 43.5c0 30 10.333 60.833 31 92.5s51 60.834 91 87.501s89.5 48.5 148.5 65.5s127.167 25.5 204.5 25.5c71.333 0 136.833 -5.83301 196.5 -17.5s110.834 -30 153.501 -55s75.834 -56.833 99.501 -95.5s35.5 -85 35.5 -139v-502z M812.992 503.993c-8 -8 -17.666 -14.6709 -28.999 -20.0039s-23 -9.66602 -35 -12.999s-23.667 -6.16602 -35 -8.49902s-21.333 -4.16602 -30 -5.49902l-109 -17c-62.667 -9.33301 -110.334 -24.833 -143.001 -46.5s-49 -55.167 -49 -100.5 c0 -17.333 3.83301 -33.333 11.5 -48s18.667 -27.667 33 -39s31.666 -20.166 51.999 -26.499s43.5 -9.5 69.5 -9.5c40.667 0 77.334 6.16699 110.001 18.5s60.5 28.5 83.5 48.5s40.5 43 52.5 69s18 53 18 81v117z"/>
    <glyph glyph-name="b" unicode="b" horiz-adv-x="1251" d="M119 1352c0 49.333 13.5 86.5029 40.5 111.503s63.167 37.5 108.5 37.5s81.666 -12.5 108.999 -37.5s41 -62.167 41 -111.5v-406h4c30 48 70 85.333 120 112s108.333 40 175 40c78.667 0 147 -15.5 205 -46.5s106 -72.333 144 -124s66.167 -110.834 84.5 -177.501 s27.5 -135.667 27.5 -207c0 -96.667 -12.833 -180.834 -38.5 -252.501s-60 -131 -103 -178s-92.833 -82 -149.5 -105s-116 -34.5 -178 -34.5c-73.333 0 -138.166 15.667 -194.499 47s-96.833 78.666 -121.5 141.999h-4v-47c0 -46 -11.5 -81.167 -34.5 -105.5 s-56.5 -36.5 -100.5 -36.5c-46 0 -80 12.167 -102 36.5s-33 59.5 -33 105.5v1237zM879 532.003c0 23.333 -1.49902 47.665 -4.49902 72.998s-8 50.333 -15 75s-16.333 48.167 -28 70.5s-26.334 41.833 -44.001 58.5s-38.667 30 -63 40s-52.166 15 -83.499 15 c-45.333 0.666992 -83.333 -9.16602 -114 -29.499s-55.334 -46.5 -74.001 -78.5s-32 -67.667 -40 -107s-12 -78.333 -12 -117c0 -42.667 4.33301 -83.5 13 -122.5s22.5 -73.5 41.5 -103.5s43.833 -54 74.5 -72s67.667 -27 111 -27c40 0.666992 74.833 9.83398 104.5 27.501 s54.5 41.167 74.5 70.5s34.833 63.5 44.5 102.5s14.5 80.5 14.5 124.5z"/>
    <glyph glyph-name="c" unicode="c" horiz-adv-x="1100" d="M61 514c0 86 12.001 164.841 36.001 236.508s59.667 133.167 107 184.5s106 91.333 176 120s151 43 243 43c62 0 119.667 -8.16699 173 -24.5s99.5 -37.666 138.5 -63.999s69.5 -56.333 91.5 -90s33 -67.834 33 -102.501c0 -21.333 -3.66699 -40.166 -11 -56.499 s-17.333 -29.833 -30 -40.5s-27.5 -18.667 -44.5 -24s-34.833 -8 -53.5 -8c-24 0 -43.167 4.33301 -57.5 13s-26.833 19.5 -37.5 32.5s-21 27.167 -31 42.5s-22.333 29.5 -37 42.5s-33.167 23.833 -55.5 32.5s-51.5 13 -87.5 13c-29.333 0 -59 -5.5 -89 -16.5 s-57.167 -30 -81.5 -57s-44.333 -63 -60 -108s-23.5 -101.167 -23.5 -168.5c0 -46.667 5.5 -88.834 16.5 -126.501s27.167 -69.834 48.5 -96.501s47.666 -47.334 78.999 -62.001s67.333 -22 108 -22c34.667 0 63.167 4.66699 85.5 14s41 21.166 56 35.499 s27.833 29.833 38.5 46.5s22.167 32.167 34.5 46.5s26.666 26.166 42.999 35.499s37.833 14 64.5 14c18.667 0 35.834 -3.16699 51.501 -9.5s28.834 -14.833 39.501 -25.5s19 -22.834 25 -36.501s9 -27.834 9 -42.501c0 -32.667 -9.33301 -67.334 -28 -104.001 s-46.834 -70.334 -84.501 -101.001s-85 -56.167 -142 -76.5s-123.833 -30.5 -200.5 -30.5c-92 0 -172 13.5 -240 40.5s-124.5 64.5 -169.5 112.5s-78.5 105.167 -100.5 171.5s-33 138.5 -33 216.5z"/>
    <glyph glyph-name="d" unicode="d" horiz-adv-x="1251" d="M1133 115c0 -46 -10.999 -81.1699 -32.999 -105.503s-56.333 -36.5 -103 -36.5c-44 0 -77.5 12.167 -100.5 36.5s-34.5 59.5 -34.5 105.5v47h-4c-24.667 -63.333 -65.167 -110.666 -121.5 -141.999s-120.833 -47 -193.5 -47c-62.667 0 -122.334 11.5 -179.001 34.5 s-106.5 58 -149.5 105s-77.167 106.333 -102.5 178s-38 155.834 -38 252.501c0 71.333 9.16699 140.333 27.5 207s46.5 125.834 84.5 177.501s85.833 93 143.5 124s126.167 46.5 205.5 46.5c66.667 0 124.834 -13.333 174.501 -40s89.5 -64 119.5 -112h5v406 c0 49.333 13.5 86.5 40.5 111.5s63.167 37.5 108.5 37.5s81.666 -12.5 108.999 -37.5s41 -62.167 41 -111.5v-1237zM373.001 531.997c0 -44 4.83105 -85.499 14.498 -124.499s24.334 -73.167 44.001 -102.5s44.334 -52.833 74.001 -70.5s64.5 -26.834 104.5 -27.501 c43.333 0 80.333 9 111 27s55.5 42 74.5 72s32.833 64.5 41.5 103.5s13 79.833 13 122.5c0 38.667 -4 77.667 -12 117s-21.167 75 -39.5 107s-42.833 58.167 -73.5 78.5s-69 30.166 -115 29.499c-32 0 -60 -5 -84 -15s-44.667 -23.333 -62 -40s-31.833 -36.167 -43.5 -58.5 s-21 -45.833 -28 -70.5s-12 -49.667 -15 -75s-4.5 -49.666 -4.5 -72.999z"/>
    <glyph glyph-name="e" unicode="e" d="M373 479c0 -39.333 6.16797 -75.666 18.501 -108.999s30.333 -62 54 -86s52.667 -42.833 87 -56.5s73.166 -20.5 116.499 -20.5c37.333 0 69 3.66699 95 11s48.5 16.333 67.5 27s35.5 22.5 49.5 35.5s27.5 24.833 40.5 35.5s26.833 19.667 41.5 27s32 11 52 11 c18 0 34.5 -3.5 49.5 -10.5s28 -16 39 -27s19.5 -23.333 25.5 -37s9 -27.5 9 -41.5c0 -30 -7.33301 -57.5 -22 -82.5s-34.5 -47.333 -59.5 -67s-53.5 -36.667 -85.5 -51s-65.5 -26.333 -100.5 -36s-69.833 -16.834 -104.5 -21.501s-67 -7 -97 -7 c-69.333 0 -131.833 7.33301 -187.5 22s-104.834 35 -147.501 61s-79.167 56.333 -109.5 91s-55.166 72.167 -74.499 112.5s-33.5 82.333 -42.5 126s-13.5 87.167 -13.5 130.5c0 86.667 12.833 165.834 38.5 237.501s62.667 133 111 184s107.5 90.5 177.5 118.5 s149.333 42 238 42c86 0 162.5 -14 229.5 -42s123.667 -65 170 -111s81.5 -98.333 105.5 -157s36 -118.667 36 -180c0 -25.333 -2.16699 -46.333 -6.5 -63s-11.5 -29.834 -21.5 -39.501s-23.5 -16.5 -40.5 -20.5s-37.833 -6 -62.5 -6h-676zM897.001 651 c-4 34 -13.167 65.667 -27.5 95s-32.5 54.5 -54.5 75.5s-47.5 37.5 -76.5 49.5s-60.167 18 -93.5 18c-74.667 0 -134.5 -21.333 -179.5 -64s-75.833 -100.667 -92.5 -174h524z"/>
    <glyph glyph-name="f" unicode="f" horiz-adv-x="758" d="M213 874l-68.002 -0.000976562c-42 0 -72.167 8.16699 -90.5 24.5s-27.5 41.166 -27.5 74.499c0 32.667 9.16699 57.167 27.5 73.5s48.5 24.5 90.5 24.5h68v150c0 46.667 9 88 27 124s42.167 66.167 72.5 90.5s65.5 42.666 105.5 54.999s81.667 18.5 125 18.5 c26.667 0 52 -2.83301 76 -8.5s44.833 -14.167 62.5 -25.5s31.667 -26.166 42 -44.499s15.5 -39.833 15.5 -64.5c0 -14 -2.5 -27.167 -7.5 -39.5s-11.833 -23.166 -20.5 -32.499s-18.834 -16.666 -30.501 -21.999s-24.167 -8 -37.5 -8c-11.333 0 -22.166 1 -32.499 3 s-21.166 3 -32.499 3c-21.333 0 -37.666 -6.5 -48.999 -19.5s-17 -29.833 -17 -50.5v-129h92c44 0 77.5 -7.33301 100.5 -22s34.5 -40 34.5 -76s-11.5 -61.5 -34.5 -76.5s-56.5 -22.5 -100.5 -22.5h-92v-751c0 -49.333 -13.5 -86.666 -40.5 -111.999s-63.5 -38 -109.5 -38 c-45.333 0 -81.5 12.667 -108.5 38s-40.5 62.666 -40.5 111.999v751z"/>
    <glyph glyph-name="g" unicode="g" horiz-adv-x="1251" d="M373 539c0 -34.667 4.33301 -69.166 13 -103.499s22.5 -65.333 41.5 -93s43.5 -50 73.5 -67s66.333 -25.5 109 -25.5c33.333 0 64.333 5.66699 93 17s53.667 29.166 75 53.499s38 55.5 50 93.5s18 83.667 18 137c0 108.667 -19.5 188 -58.5 238s-93.167 75 -162.5 75 c-48 0 -88.167 -8.33301 -120.5 -25s-58.333 -39.5 -78 -68.5s-33.5 -63.333 -41.5 -103s-12 -82.5 -12 -128.5zM1133 88.001c0 -90 -13.1709 -168.001 -39.5039 -234.001s-63.166 -120.667 -110.499 -164s-103.5 -75.5 -168.5 -96.5s-136.5 -31.5 -214.5 -31.5 c-56.667 0 -112 6 -166 18s-102 29 -144 51s-75.833 48.167 -101.5 78.5s-38.5 63.833 -38.5 100.5c0 18 3.33301 34.833 10 50.5s15.5 29.167 26.5 40.5s24 20.166 39 26.499s30.5 9.5 46.5 9.5c20.667 0 39 -3.83301 55 -11.5s31.167 -17.167 45.5 -28.5 s28.5 -23.666 42.5 -36.999s29.333 -25.666 46 -36.999s35.334 -20.833 56.001 -28.5s45 -11.5 73 -11.5c45.333 0 84.166 6 116.499 18s58.833 31.167 79.5 57.5s35.834 60.166 45.501 101.499s14.5 91.666 14.5 150.999v61h-4 c-13.333 -19.333 -30.333 -37.666 -51 -54.999s-43.667 -32.5 -69 -45.5s-52.333 -23.333 -81 -31s-58 -11.5 -88 -11.5c-78.667 0 -147.834 12.167 -207.501 36.5s-109.667 58.5 -150 102.5s-70.666 96.5 -90.999 157.5s-30.5 128.5 -30.5 202.5 c0 96.667 12.667 180.834 38 252.501s59.333 131 102 178s92.334 82 149.001 105s116.667 34.5 180 34.5c72.667 0 136.334 -15.833 191.001 -47.5s96 -75.167 124 -130.5h4v36c0 46.667 11.5 82 34.5 106s56.5 36 100.5 36c46.667 0 81 -12 103 -36s33 -59.333 33 -106 v-868z"/>
    <glyph glyph-name="h" unicode="h" horiz-adv-x="1251" d="M119 1352c0 49.333 13.4951 86.501 40.4951 111.501s63.167 37.5 108.5 37.5s81.666 -12.5 108.999 -37.5s41 -62.167 41 -111.5v-412h4c14.667 19.333 32.334 38.5 53.001 57.5s44.834 36 72.501 51s58.667 27 93 36s72.833 13.5 115.5 13.5 c44.667 0 89.5 -6.33301 134.5 -19s85.5 -34 121.5 -64s65.167 -70.167 87.5 -120.5s33.5 -113.5 33.5 -189.5v-582c0 -20 -2.33301 -39 -7 -57s-12.667 -34 -24 -48s-26.666 -25 -45.999 -33s-43.666 -12 -72.999 -12s-53.5 4 -72.5 12s-34.167 19 -45.5 33 s-19.333 30 -24 48s-7 37 -7 57v522c0 30 -3.83301 57.667 -11.5 83s-19.167 47.166 -34.5 65.499s-35 32.666 -59 42.999s-52 15.5 -84 15.5c-26 0 -52.5 -5.33301 -79.5 -16s-51.333 -26 -73 -46s-39.5 -44.667 -53.5 -74s-21 -62.666 -21 -99.999v-493 c0 -20 -2.33301 -39 -7 -57s-12.667 -34 -24 -48s-26.666 -25 -45.999 -33s-43.666 -12 -72.999 -12s-53.5 4 -72.5 12s-34.167 19 -45.5 33s-19.333 30 -24 48s-7 37 -7 57v1229z"/>
    <glyph glyph-name="i" unicode="i" horiz-adv-x="569" d="M135 948c0 20 2.33301 39 7 57s12.667 34 24 48s26.666 25 45.999 33s43.666 12 72.999 12c28.667 0 52.667 -4 72 -12s34.666 -19 45.999 -33s19.333 -30 24 -48s7 -37 7 -57v-825c0 -20 -2.33301 -39 -7 -57s-12.667 -34 -24 -48s-26.666 -25 -45.999 -33 s-43.333 -12 -72 -12c-29.333 0 -53.666 4 -72.999 12s-34.666 19 -45.999 33s-19.333 30 -24 48s-7 37 -7 57v825zM129 1354c0 21.333 4.16699 41.5 12.5 60.5s19.5 35.5 33.5 49.5s30.5 25 49.5 33s39.167 12 60.5 12s41.5 -4 60.5 -12s35.5 -19 49.5 -33 s25 -30.5 33 -49.5s12 -39.167 12 -60.5s-4 -41.5 -12 -60.5s-19 -35.5 -33 -49.5s-30.5 -25.167 -49.5 -33.5s-39.167 -12.5 -60.5 -12.5s-41.5 4.16699 -60.5 12.5s-35.5 19.5 -49.5 33.5s-25.167 30.5 -33.5 49.5s-12.5 39.167 -12.5 60.5z"/>
    <glyph glyph-name="j" unicode="j" horiz-adv-x="569" d="M135 948c0 20 2.33594 39.001 7.00293 57.001s12.667 34 24 48s26.666 25 45.999 33s43.666 12 72.999 12c28.667 0 52.667 -4 72 -12s34.666 -19 45.999 -33s19.333 -30 24 -48s7 -37 7 -57v-1054c0 -54 -5.5 -101 -16.5 -141s-28.5 -73 -52.5 -99 s-55.333 -45.5 -94 -58.5s-86 -19.5 -142 -19.5c-58 0 -99.833 10.667 -125.5 32s-38.5 53.666 -38.5 96.999c0 38 7.66699 65 23 81s39 24 71 24h33c14.667 0 25.5 5.16699 32.5 15.5s10.5 22.833 10.5 37.5v1085zM129.003 1354c0 21.333 4.16699 41.5 12.5 60.5 s19.5 35.5 33.5 49.5s30.5 25 49.5 33s39.167 12 60.5 12s41.5 -4 60.5 -12s35.5 -19 49.5 -33s25 -30.5 33 -49.5s12 -39.167 12 -60.5s-4 -41.5 -12 -60.5s-19 -35.5 -33 -49.5s-30.5 -25.167 -49.5 -33.5s-39.167 -12.5 -60.5 -12.5s-41.5 4.16699 -60.5 12.5 s-35.5 19.5 -49.5 33.5s-25.167 30.5 -33.5 49.5s-12.5 39.167 -12.5 60.5z"/>
    <glyph glyph-name="k" unicode="k" horiz-adv-x="1100" d="M119 1352c0 49.333 13.499 86.4961 40.499 111.496s63.167 37.5 108.5 37.5s81.666 -12.5 108.999 -37.5s41 -62.167 41 -111.5v-680l332 368c15.333 16.667 32.5 30.5 51.5 41.5s39.833 16.5 62.5 16.5c16.667 0 33.5 -3.5 50.5 -10.5s32.333 -16.667 46 -29 s24.667 -26.666 33 -42.999s12.5 -33.833 12.5 -52.5c0 -13.333 -1.16699 -24.666 -3.5 -33.999s-5.5 -17.666 -9.5 -24.999s-8.66699 -14 -14 -20l-18 -20l-222 -231l312 -418c5.33301 -7.33301 11.666 -19 18.999 -35s11 -36.333 11 -61 c0 -19.333 -3.66699 -37.666 -11 -54.999s-17.166 -32.833 -29.499 -46.5s-27.166 -24.5 -44.499 -32.5s-36 -12 -56 -12c-18.667 0 -35.167 2.16699 -49.5 6.5s-26.833 9.83301 -37.5 16.5s-20 14.167 -28 22.5s-14.667 16.5 -20 24.5l-283 399l-104 -92v-227 c0 -49.333 -13.667 -86.666 -41 -111.999s-63.666 -38 -108.999 -38s-81.5 12.667 -108.5 38s-40.5 62.666 -40.5 111.999v1229z"/>
    <glyph glyph-name="l" unicode="l" horiz-adv-x="569" d="M135 1352c0 49.333 13.667 86.5 41 111.5s63.666 37.5 108.999 37.5s81.5 -12.5 108.5 -37.5s40.5 -62.167 40.5 -111.5v-1229c0 -49.333 -13.5 -86.666 -40.5 -111.999s-63.167 -38 -108.5 -38s-81.666 12.667 -108.999 38s-41 62.666 -41 111.999v1229z"/>
    <glyph glyph-name="m" unicode="m" horiz-adv-x="1896" d="M119 948c0 45.333 12.4922 81.6631 37.4922 108.996s59.5 41 103.5 41s78.5 -13.667 103.5 -41s37.5 -63.666 37.5 -108.999v-39h5c38.667 60 89.167 106.5 151.5 139.5s131.833 49.5 208.5 49.5c25.333 0 52 -3.16699 80 -9.5s55 -16.833 81 -31.5s50 -34.167 72 -58.5 s40 -54.166 54 -89.499c20.667 29.333 43.167 55.666 67.5 78.999s50.833 43.166 79.5 59.499s59.834 28.833 93.501 37.5s70.834 13 111.501 13c52 0 100.667 -6.33301 146 -19s84.833 -33.167 118.5 -61.5s60.167 -65.666 79.5 -111.999s29 -103.166 29 -170.499v-612 c0 -20 -2.33301 -39 -7 -57s-12.667 -34 -24 -48s-26.666 -25 -45.999 -33s-43.666 -12 -72.999 -12s-53.5 4 -72.5 12s-34.167 19 -45.5 33s-19.333 30 -24 48s-7 37 -7 57v536c0 26.667 -3 51.667 -9 75s-15.667 43.833 -29 61.5s-30.333 31.5 -51 41.5s-45.667 15 -75 15 c-28.667 0 -56.167 -5.5 -82.5 -16.5s-49.5 -26.667 -69.5 -47s-35.833 -44.666 -47.5 -72.999s-17.5 -59.833 -17.5 -94.5v-498c0 -20 -2.33301 -39 -7 -57s-12.667 -34 -24 -48s-26.666 -25 -45.999 -33s-43.666 -12 -72.999 -12s-53.5 4 -72.5 12s-34.167 19 -45.5 33 s-19.333 30 -24 48s-7 37 -7 57v536c0 26.667 -3 51.667 -9 75s-15.667 43.833 -29 61.5s-30.333 31.5 -51 41.5s-45.667 15 -75 15c-28.667 0 -56.167 -5.5 -82.5 -16.5s-49.5 -26.667 -69.5 -47s-35.833 -44.666 -47.5 -72.999s-17.5 -59.833 -17.5 -94.5v-498 c0 -20 -2.33301 -39 -7 -57s-12.667 -34 -24 -48s-26.666 -25 -45.999 -33s-43.666 -12 -72.999 -12s-53.5 4 -72.5 12s-34.167 19 -45.5 33s-19.333 30 -24 48s-7 37 -7 57v825z"/>
    <glyph glyph-name="n" unicode="n" horiz-adv-x="1251" d="M119 948c0 45.333 10.665 81.667 31.998 109s55.666 41 102.999 41s81.666 -13.667 102.999 -41s32 -63.666 32 -108.999v-39h4c20.667 28 43.334 53.5 68.001 76.5s51.667 42.833 81 59.5s61.666 29.667 96.999 39s74.333 14 117 14c44.667 0 89.5 -6.33301 134.5 -19 s85.5 -34 121.5 -64s65.167 -70.167 87.5 -120.5s33.5 -113.5 33.5 -189.5v-582c0 -20 -2.33301 -39 -7 -57s-12.667 -34 -24 -48s-26.666 -25 -45.999 -33s-43.666 -12 -72.999 -12s-53.5 4 -72.5 12s-34.167 19 -45.5 33s-19.333 30 -24 48s-7 37 -7 57v522 c0 30 -3.83301 57.667 -11.5 83s-19.167 47.166 -34.5 65.499s-35 32.666 -59 42.999s-52 15.5 -84 15.5c-26 0 -52.5 -5.33301 -79.5 -16s-51.333 -26 -73 -46s-39.5 -44.667 -53.5 -74s-21 -62.666 -21 -99.999v-493c0 -20 -2.33301 -39 -7 -57s-12.667 -34 -24 -48 s-26.666 -25 -45.999 -33s-43.666 -12 -72.999 -12s-53.5 4 -72.5 12s-34.167 19 -45.5 33s-19.333 30 -24 48s-7 37 -7 57v825z"/>
    <glyph glyph-name="o" unicode="o" d="M373 537c0 -46 4.83105 -89.667 14.498 -131s24.834 -77.666 45.501 -108.999s47 -56.166 79 -74.499s70.333 -27.5 115 -27.5s83 9.16699 115 27.5s58.333 43.166 79 74.499s35.834 67.666 45.501 108.999s14.5 85 14.5 131c0 48.667 -5 93.667 -15 135 s-25.5 77.166 -46.5 107.499s-47.5 54.166 -79.5 71.499s-69.667 26 -113 26s-81 -8.66699 -113 -26s-58.5 -41.166 -79.5 -71.499s-36.5 -66.166 -46.5 -107.499s-15 -86.333 -15 -135zM73.998 537c0 78.667 11.832 152.167 35.499 220.5s58.834 127.666 105.501 177.999 s104.5 90 173.5 119s148.5 43.5 238.5 43.5s169.5 -14.5 238.5 -43.5s126.667 -68.667 173 -119s81.5 -109.666 105.5 -177.999s36 -141.833 36 -220.5c0 -74.667 -9.66699 -146 -29 -214s-50.833 -128 -94.5 -180s-100.667 -93.333 -171 -124s-156.5 -46 -258.5 -46 s-188.167 15.333 -258.5 46s-127.333 72 -171 124s-75.167 112 -94.5 180s-29 139.333 -29 214z"/>
    <glyph glyph-name="p" unicode="p" horiz-adv-x="1251" d="M119 956c0 46.667 11 82.002 33 106.002s56 36 102 36c44 0 77.5 -12 100.5 -36s34.5 -59.333 34.5 -106v-47h4c24.667 63.333 65.167 110.666 121.5 141.999s121.166 47 194.499 47c62 0 121.333 -11.5 178 -34.5s106.5 -58 149.5 -105s77.333 -106.333 103 -178 s38.5 -155.834 38.5 -252.501c0 -71.333 -9.16699 -140.5 -27.5 -207.5s-46.5 -126.167 -84.5 -177.5s-86 -92.5 -144 -123.5s-126.333 -46.5 -205 -46.5c-68.667 0 -128 13.333 -178 40s-89 64 -117 112h-4v-399c0 -50 -13.667 -87.5 -41 -112.5 s-63.666 -37.5 -108.999 -37.5s-81.5 12.5 -108.5 37.5s-40.5 62.5 -40.5 112.5v1230zM879 539.002c0 44 -4.83398 85.5029 -14.501 124.503s-24.5 73.167 -44.5 102.5s-44.833 52.666 -74.5 69.999s-64.5 26.666 -104.5 27.999c-43.333 0 -80.333 -9 -111 -27 s-55.5 -42 -74.5 -72s-32.833 -64.5 -41.5 -103.5s-13 -79.833 -13 -122.5c0 -38.667 4 -77.834 12 -117.501s21.333 -75.5 40 -107.5s43.334 -58 74.001 -78s68.667 -29.667 114 -29c47.333 0 86.333 10.667 117 32s55 48.5 73 81.5s30.5 68.833 37.5 107.5 s10.5 75.667 10.5 111z"/>
    <glyph glyph-name="q" unicode="q" horiz-adv-x="1251" d="M1133 -274c0 -50 -13.668 -87.502 -41.001 -112.502s-63.666 -37.5 -108.999 -37.5s-81.5 12.5 -108.5 37.5s-40.5 62.5 -40.5 112.5v399h-5c-28 -48 -66.833 -85.333 -116.5 -112s-108.834 -40 -177.501 -40c-79.333 0 -147.833 15.5 -205.5 46.5 s-105.5 72.167 -143.5 123.5s-66.167 110.5 -84.5 177.5s-27.5 136.167 -27.5 207.5c0 96.667 12.667 180.834 38 252.501s59.5 131 102.5 178s92.833 82 149.5 105s116.334 34.5 179.001 34.5c72.667 0 137.167 -15.667 193.5 -47s96.833 -78.666 121.5 -141.999h4v47 c0 46.667 11.5 82 34.5 106s56.5 36 100.5 36c46.667 0 81 -12 103 -36s33 -59.333 33 -106v-1230zM372.999 538.998c0 -35.333 3.50098 -72.3359 10.501 -111.003s19.333 -74.5 37 -107.5s41.834 -60.167 72.501 -81.5s69.667 -32 117 -32c46 -0.666992 84.333 9 115 29 s55.167 46 73.5 78s31.5 67.833 39.5 107.5s12 78.834 12 117.501c0 42.667 -4.33301 83.5 -13 122.5s-22.5 73.5 -41.5 103.5s-43.833 54 -74.5 72s-67.667 27 -111 27c-40 -1.33301 -74.833 -10.666 -104.5 -27.999s-54.334 -40.666 -74.001 -69.999 s-34.334 -63.5 -44.001 -102.5s-14.5 -80.5 -14.5 -124.5z"/>
    <glyph glyph-name="r" unicode="r" horiz-adv-x="834" d="M135 958c0 22.667 3.5 42.668 10.5 60.001s16.667 32 29 44s26.666 21 42.999 27s33.833 9 52.5 9s36.334 -3 53.001 -9s31.167 -15 43.5 -27s22 -26.667 29 -44s10.5 -37.333 10.5 -60v-114h4c8.66699 31.333 19.5 62.166 32.5 92.499s29.333 57.5 49 81.5 s43.167 43.333 70.5 58s59 22 95 22c24 0 46 -3.66699 66 -11s37.167 -17.5 51.5 -30.5s25.666 -28.5 33.999 -46.5s12.5 -37.333 12.5 -58c0 -27.333 -4.16699 -50.5 -12.5 -69.5s-19.333 -34.333 -33 -46s-29.334 -20.167 -47.001 -25.5s-35.834 -8 -54.501 -8h-53 c-30 0 -56.667 -5.66699 -80 -17s-43 -30 -59 -56s-28 -60.167 -36 -102.5s-12 -94.5 -12 -156.5v-348c0 -20 -2.33301 -39 -7 -57s-12.667 -34 -24 -48s-26.666 -25 -45.999 -33s-43.333 -12 -72 -12c-29.333 0 -53.666 4 -72.999 12s-34.666 19 -45.999 33 s-19.333 30 -24 48s-7 37 -7 57v835z"/>
    <glyph glyph-name="s" unicode="s" horiz-adv-x="1100" d="M72 764c0 60.667 13.6689 112.332 41.002 154.999s62.5 77.167 105.5 103.5s91 45.5 144 57.5s105.5 18 157.5 18c56.667 0 112.5 -5.33301 167.5 -16s103.833 -26 146.5 -46s77.167 -44 103.5 -72s39.5 -59.333 39.5 -94c0 -17.333 -2.83301 -33.833 -8.5 -49.5 s-13.834 -29.5 -24.501 -41.5s-23.834 -21.667 -39.501 -29s-33.167 -11 -52.5 -11s-36.166 3.33301 -50.499 10s-27.666 15.167 -39.999 25.5s-24.833 21.5 -37.5 33.5s-27.167 23.167 -43.5 33.5s-35.5 18.833 -57.5 25.5s-48.667 10 -80 10 c-52.667 0 -94.5 -7.5 -125.5 -22.5s-46.5 -38.5 -46.5 -70.5c0 -17.333 4 -31.666 12 -42.999s19 -20.833 33 -28.5s30.667 -14.167 50 -19.5s40.666 -10.333 63.999 -15l125 -29c42.667 -10 86 -22.333 130 -37s84 -34.167 120 -58.5s65.5 -54.666 88.5 -90.999 s34.5 -80.5 34.5 -132.5c0 -61.333 -13.5 -114.333 -40.5 -159s-62.167 -81.667 -105.5 -111s-92.5 -51.166 -147.5 -65.499s-110.833 -21.5 -167.5 -21.5c-67.333 0 -131 7 -191 21s-112.5 33.333 -157.5 58s-80.667 53.167 -107 85.5s-39.5 67.166 -39.5 104.499 c0 16 2.33301 31.667 7 47s12 28.666 22 39.999s22.5 20.5 37.5 27.5s33.167 10.5 54.5 10.5s40 -4.5 56 -13.5s31.333 -20.5 46 -34.5l44.5 -44.5c15 -15.667 32.333 -30.5 52 -44.5s42.667 -25.5 69 -34.5s57.833 -13.5 94.5 -13.5c54 0 96.5 10.333 127.5 31 s46.5 46.667 46.5 78c0 18.667 -4 34 -12 46s-19.333 22 -34 30s-32.667 14.833 -54 20.5l-72 18.5l-176 43c-43.333 10.667 -83.833 23.667 -121.5 39s-70.334 35 -98.001 59s-49.5 53.667 -65.5 89s-24 78 -24 128z"/>
    <glyph glyph-name="t" unicode="t" horiz-adv-x="758" d="M197 874h-51.998c-42 0 -72.167 8.16699 -90.5 24.5s-27.5 41.166 -27.5 74.499c0 32.667 9.16699 57.167 27.5 73.5s48.5 24.5 90.5 24.5h52v182c0 50 13.5 87.5 40.5 112.5s63.167 37.5 108.5 37.5s81.666 -12.5 108.999 -37.5s41 -62.5 41 -112.5v-182h90 c44 0 77.5 -7.33301 100.5 -22s34.5 -40 34.5 -76s-11.5 -61.5 -34.5 -76.5s-56.5 -22.5 -100.5 -22.5h-90v-598c0 -46 25.667 -69 77 -69h43c33.333 0 59.166 -8.83301 77.499 -26.5s27.5 -42.5 27.5 -74.5c0 -43.333 -18.167 -76.333 -54.5 -99s-90.5 -34 -162.5 -34 c-108.667 0 -187 22.333 -235 67s-72 111.334 -72 200.001v634z"/>
    <glyph glyph-name="u" unicode="u" horiz-adv-x="1251" d="M1133 123c0 -45.333 -10.833 -81.667 -32.5 -109s-56.167 -41 -103.5 -41s-81.666 13.667 -102.999 41s-32 63.666 -32 108.999v39h-4c-21.333 -28 -44.166 -53.5 -68.499 -76.5s-51.166 -42.833 -80.499 -59.5s-61.5 -29.667 -96.5 -39s-73.833 -14 -116.5 -14 c-45.333 0 -90.5 6.33301 -135.5 19s-85.333 34 -121 64s-64.667 70.333 -87 121s-33.5 114 -33.5 190v581c0 20 2.33301 39 7 57s12.667 34 24 48s26.5 25 45.5 33s43.167 12 72.5 12s53.666 -4 72.999 -12s34.666 -19 45.999 -33s19.333 -30 24 -48s7 -37 7 -57v-522 c0 -30 3.66699 -57.667 11 -83s18.833 -47.166 34.5 -65.499s35.334 -32.666 59.001 -42.999s51.5 -15.5 83.5 -15.5c26 0 52.5 5.33301 79.5 16s51.5 26 73.5 46s40 44.667 54 74s21 62.666 21 99.999v493c0 20 2.33301 39 7 57s12.667 34 24 48s26.5 25 45.5 33 s43.167 12 72.5 12s53.666 -4 72.999 -12s34.666 -19 45.999 -33s19.333 -30 24 -48s7 -37 7 -57v-825z"/>
    <glyph glyph-name="v" unicode="v" horiz-adv-x="1024" d="M33 866l-12.5039 40.5c-4.33301 14.333 -6.5 26.166 -6.5 35.499c0 26.667 4.16699 49.834 12.5 69.501s19.5 35.834 33.5 48.501s29.667 22.167 47 28.5s35 9.5 53 9.5c28 0 51.167 -5 69.5 -15s33 -21.833 44 -35.5s19.167 -27.5 24.5 -41.5s9 -25 11 -33l201 -676h4 l201 676c2 8 5.66699 19 11 33s13.5 27.833 24.5 41.5s25.667 25.5 44 35.5s41.5 15 69.5 15c18 0 35.667 -3.16699 53 -9.5s33 -15.833 47 -28.5s25.167 -28.834 33.5 -48.501s12.5 -42.834 12.5 -69.501c0 -9.33301 -2.16699 -21.166 -6.5 -35.499l-12.5 -40.5l-282 -786 c-7.33301 -20 -14.666 -36.833 -21.999 -50.5s-17.666 -24.667 -30.999 -33s-31.333 -14.333 -54 -18s-52.667 -5.5 -90 -5.5s-67.333 1.83301 -90 5.5s-40.667 9.66699 -54 18s-23.666 19.333 -30.999 33s-14.666 30.5 -21.999 50.5z"/>
    <glyph glyph-name="w" unicode="w" horiz-adv-x="1593" d="M47 848c-5.33301 16.667 -9.99707 33.5 -13.9971 50.5s-6 36.833 -6 59.5c0 19.333 4 37.5 12 54.5s18.667 31.833 32 44.5s28.666 22.667 45.999 30s35.666 11 54.999 11c28 0 50.333 -3.5 67 -10.5s30.167 -17 40.5 -30s18.166 -28.5 23.499 -46.5 s10.666 -37.667 15.999 -59l158 -655h4l127 596c6 29.333 12.667 56.666 20 81.999s17.666 47.333 30.999 66s30.833 33 52.5 43s50.167 14.667 85.5 14c35.333 0.666992 64.166 -4 86.499 -14s40.5 -24.167 54.5 -42.5s25 -40.166 33 -65.499s15.333 -53 22 -83l129 -596h4 l148 655c4.66699 21.333 9.66699 41 15 59s13.333 33.5 24 46.5s24.5 23 41.5 30s39.167 10.5 66.5 10.5c18.667 0 36.834 -3.66699 54.501 -11s33.334 -17.333 47.001 -30s24.5 -27.5 32.5 -44.5s12 -35.167 12 -54.5c0 -22.667 -2.16699 -42.5 -6.5 -59.5 s-9.16602 -33.833 -14.499 -50.5l-219 -713c-10.667 -35.333 -21.334 -63.666 -32.001 -84.999s-23 -37.666 -37 -48.999s-31 -18.833 -51 -22.5s-44.667 -5.5 -74 -5.5c-31.333 0 -57.166 2.5 -77.499 7.5s-37.333 13.5 -51 25.5s-24.834 28 -33.501 48s-17 45 -25 75 l-147 588h-4l-148 -588c-8 -30 -16.333 -55 -25 -75s-19.667 -36 -33 -48s-30.166 -20.5 -50.499 -25.5s-46.166 -7.5 -77.499 -7.5c-30 0 -55 1.83301 -75 5.5s-37 11.167 -51 22.5s-26.333 27.666 -37 48.999s-21.334 49.666 -32.001 84.999z"/>
    <glyph glyph-name="x" unicode="x" horiz-adv-x="985" d="M295 33c-10.667 -15.333 -25.8301 -29.1689 -45.4971 -41.502s-43.5 -18.5 -71.5 -18.5c-18 0 -35.667 3.5 -53 10.5s-32.833 16.667 -46.5 29s-24.667 27 -33 44s-12.5 35.833 -12.5 56.5c0 24.667 13.667 56.667 41 96l229 338l-215 323 c-8 11.333 -15.167 23.666 -21.5 36.999s-9.5 27 -9.5 41c0 16 3.33301 32.833 10 50.5s16.5 33.834 29.5 48.501s29.5 26.834 49.5 36.501s43.667 14.5 71 14.5c23.333 0 45 -5.5 65 -16.5s38.667 -30.833 56 -59.5l168 -277l162 265 c11.333 18.667 22.666 33.834 33.999 45.501s22.666 20.667 33.999 27s22.666 10.5 33.999 12.5s23 3 35 3c17.333 0 34.166 -3.5 50.499 -10.5s30.666 -16.5 42.999 -28.5s22.333 -25.833 30 -41.5s11.5 -31.834 11.5 -48.501c0 -21.333 -2.83301 -40.166 -8.5 -56.499 s-13.167 -31.166 -22.5 -44.499l-217 -321l232 -344c8 -11.333 14.667 -23.833 20 -37.5s8 -31.167 8 -52.5c0 -18 -3.33301 -35.5 -10 -52.5s-16.5 -32 -29.5 -45s-28.833 -23.333 -47.5 -31s-40 -11.5 -64 -11.5c-31.333 0 -57.166 8.66699 -77.499 26 s-40.166 41.666 -59.499 72.999l-172 274z"/>
    <glyph glyph-name="y" unicode="y" horiz-adv-x="1024" d="M516 287l3.99512 -0.00195312l182 678c5.33301 18.667 12 36.167 20 52.5s17.667 30.5 29 42.5s24.833 21.333 40.5 28s33.834 10 54.501 10c30 0 54.833 -5.33301 74.5 -16s35.334 -23.334 47.001 -38.001s19.834 -29.667 24.501 -45s7 -27.333 7 -36 c0 -12.667 -1.83301 -26.834 -5.5 -42.501s-9.16699 -33.167 -16.5 -52.5l-346 -981c-18 -51.333 -37.167 -96.333 -57.5 -135s-43.666 -71 -69.999 -97s-57 -45.667 -92 -59s-75.833 -20 -122.5 -20c-33.333 0 -61.833 3.83301 -85.5 11.5s-43.167 17.834 -58.5 30.501 s-26.666 27.167 -33.999 43.5s-11 33.5 -11 51.5c0 40 13 70.167 39 90.5s59 30.5 99 30.5h30c10 0 20 0.5 30 1.5s19.5 4.5 28.5 10.5s17.5 15.333 25.5 28s15 30.667 21 54l-312 887l-16 47.5c-4.66699 13.667 -8.5 25.834 -11.5 36.501s-5.16699 20.334 -6.5 29.001 s-2 17.334 -2 26.001c0 20.667 3.83301 39.667 11.5 57s18 32.5 31 45.5s28.333 23.167 46 30.5s36.5 11 56.5 11c40 0 73.333 -10.333 100 -31s44.667 -48 54 -82z"/>
    <glyph glyph-name="z" unicode="z" horiz-adv-x="1139" d="M664 838l-433 -0.00195312c-14 0 -28 2 -42 6s-26.833 10.5 -38.5 19.5s-21.167 21 -28.5 36s-11 33.167 -11 54.5s3.66699 39.5 11 54.5s16.833 27.167 28.5 36.5s24.5 16 38.5 20s28 6 42 6h711c40 0 70.5 -12 91.5 -36s31.5 -55.667 31.5 -95 c0 -16.667 -4.16699 -33.667 -12.5 -51s-19.833 -33.666 -34.5 -48.999l-553 -607h491c14 0 28.167 -2 42.5 -6s27.333 -10.5 39 -19.5s21.167 -21 28.5 -36s11 -33.167 11 -54.5s-3.66699 -39.5 -11 -54.5s-16.833 -27.167 -28.5 -36.5s-24.667 -16 -39 -20 s-28.5 -6 -42.5 -6h-761c-22 0 -41.5 3.33301 -58.5 10s-31 15.334 -42 26.001s-19.333 23 -25 37s-8.5 28.667 -8.5 44c0 44 13 80 39 108z"/>
    <glyph glyph-name="braceleft" unicode="{" horiz-adv-x="773" d="M477 758c0 -46.667 -7.83301 -83.5029 -23.5 -110.503s-34.667 -47.333 -57 -61s-45.833 -22.667 -70.5 -27s-46 -7.16602 -64 -8.49902v-4c18 -1.33301 39.333 -4.16602 64 -8.49902s48.167 -13.5 70.5 -27.5s41.333 -34.333 57 -61s23.5 -63.334 23.5 -110.001v-410 c0 -43.333 8.83301 -74.666 26.5 -93.999s40.834 -29 69.501 -29h52c26.667 0 48.667 -7.33301 66 -22s26 -38 26 -70c0 -30 -8.66699 -52.833 -26 -68.5s-39.333 -23.5 -66 -23.5h-152c-89.333 0 -156 21.833 -200 65.5s-66 112.834 -66 207.501v417 c0 31.333 -3 56.166 -9 74.499s-14 32.166 -24 41.499s-21.333 15.333 -34 18s-25.334 4 -38.001 4c-16.667 0 -31.167 2.83301 -43.5 8.5s-22.5 13 -30.5 22s-14 19.5 -18 31.5s-6 24 -6 36s2 24 6 36s10 22.5 18 31.5s18.167 16.333 30.5 22s26.833 8.5 43.5 8.5 c12.667 0 25.334 1.33301 38.001 4s24 8.66699 34 18s18 23 24 41s9 42.667 9 74v418c0 94.667 22 163.834 66 207.501s110.667 65.5 200 65.5h152c26.667 0 48.667 -8 66 -24s26 -39 26 -69c0 -32 -8.66699 -55.333 -26 -70s-39.333 -22 -66 -22h-52 c-28.667 0 -51.834 -9.66699 -69.501 -29s-26.5 -50.666 -26.5 -93.999v-409z"/>
    <glyph glyph-name="bar" unicode="|" horiz-adv-x="455" d="M104 1376c0 18.667 2.5 36 7.5 52s12.667 30 23 42s23.166 21.5 38.499 28.5s33.333 10.5 54 10.5s38.667 -3.5 54 -10.5s28.166 -16.5 38.499 -28.5s18 -26 23 -42s7.5 -33.333 7.5 -52v-1278c0 -18 -2.5 -35.167 -7.5 -51.5s-12.667 -30.5 -23 -42.5 s-23.166 -21.5 -38.499 -28.5s-33.333 -10.5 -54 -10.5s-38.667 3.5 -54 10.5s-28.166 16.5 -38.499 28.5s-18 26.167 -23 42.5s-7.5 33.5 -7.5 51.5v1278z"/>
    <glyph glyph-name="braceright" unicode="}" horiz-adv-x="812" d="M314 340c0 46.667 7.83301 83.3369 23.5 110.004s34.667 47 57 61s45.833 23.167 70.5 27.5s46 7.16602 64 8.49902v4c-18 1.33301 -39.333 4.16602 -64 8.49902s-48.167 13.333 -70.5 27s-41.333 34 -57 61s-23.5 63.833 -23.5 110.5v409 c0 43.333 -8.83301 74.666 -26.5 93.999s-41.167 29 -70.5 29h-51c-26.667 0 -48.667 7.33301 -66 22s-26 38 -26 70c0 30 8.66699 53 26 69s39.333 24 66 24h152c88.667 0 155.167 -21.833 199.5 -65.5s66.5 -112.834 66.5 -207.501v-418c0 -31.333 3 -56 9 -74 s14 -31.667 24 -41s21.167 -15.333 33.5 -18s24.833 -4 37.5 -4c16.667 0 31.334 -2.83301 44.001 -8.5s23 -13 31 -22s14 -19.5 18 -31.5s6 -24 6 -36s-2 -24 -6 -36s-10 -22.5 -18 -31.5s-18.333 -16.333 -31 -22s-27.334 -8.5 -44.001 -8.5 c-12.667 0 -25.167 -1.33301 -37.5 -4s-23.5 -8.66699 -33.5 -18s-18 -23.166 -24 -41.499s-9 -43.166 -9 -74.499v-417c0 -94.667 -22.167 -163.834 -66.5 -207.501s-110.833 -65.5 -199.5 -65.5h-152c-26.667 0 -48.667 7.83301 -66 23.5s-26 38.5 -26 68.5 c0 32 8.66699 55.333 26 70s39.333 22 66 22h51c29.333 0 52.833 9.66699 70.5 29s26.5 50.666 26.5 93.999v410z"/>
    <glyph glyph-name="asciitilde" unicode="~" horiz-adv-x="1229" d="M1145 657c0 -30.667 -6.83203 -61.998 -20.499 -93.998s-33.5 -61 -59.5 -87s-57.667 -47.333 -95 -64s-79.333 -25 -126 -25c-40.667 0 -81.667 7.16699 -123 21.5s-81.5 30.333 -120.5 48l-110.5 48c-34.667 14.333 -65 21.5 -91 21.5c-28 0 -51.5 -6.33301 -70.5 -19 s-36.5 -26.834 -52.5 -42.501s-32 -29.834 -48 -42.501s-34.667 -19 -56 -19c-16.667 0 -30.5 3 -41.5 9s-20 13.667 -27 23s-12 19.833 -15 31.5s-4.5 23.5 -4.5 35.5c0 30.667 6.83301 62 20.5 94s33 61 58 87s55.333 47.333 91 64s75.5 25 119.5 25 c43.333 0 86.666 -7.16699 129.999 -21.5s84.833 -30.333 124.5 -48l111 -48c34.333 -14.333 64.5 -21.5 90.5 -21.5c28 0 51.667 6.33301 71 19s37 26.834 53 42.501s32 29.834 48 42.501s34.667 19 56 19c16 0 29.667 -2.83301 41 -8.5s20.5 -13.334 27.5 -23.001 s12 -20.334 15 -32.001s4.5 -23.5 4.5 -35.5z"/>
    <glyph glyph-name="nonbreakingspace" unicode=" " horiz-adv-x="1000"/>
    <glyph glyph-name="exclamdown" unicode="¡" horiz-adv-x="647" d="M162 -29c0 15.333 0.833008 31.166 2.5 47.499s3.5 32.833 5.5 49.5l63 479c4.66699 30 14.167 50.167 28.5 60.5s35.166 15.5 62.499 15.5c26.667 0 47.334 -5.16699 62.001 -15.5s24 -30.5 28 -60.5l63 -479c2 -16.667 3.83301 -33.167 5.5 -49.5 s2.5 -32.166 2.5 -47.499v-237c0 -52.667 -14 -92.167 -42 -118.5s-67.667 -39.5 -119 -39.5c-52 0 -92 13.167 -120 39.5s-42 65.833 -42 118.5v237zM492 924c0 -23.333 -4.5 -45.166 -13.5 -65.499s-21 -38.166 -36 -53.499s-32.833 -27.333 -53.5 -36 s-42.334 -13 -65.001 -13c-23.333 0 -45.166 4.33301 -65.499 13s-38.166 20.667 -53.499 36s-27.333 33.166 -36 53.499s-13 42.166 -13 65.499c0 22.667 4.33301 44.334 13 65.001s20.667 38.5 36 53.5s33.166 27 53.499 36s42.166 13.5 65.499 13.5 c22.667 0 44.334 -4.5 65.001 -13.5s38.5 -21 53.5 -36s27 -32.833 36 -53.5s13.5 -42.334 13.5 -65.001z"/>
    <glyph glyph-name="cent" unicode="¢" d="M618 852c-23.333 -6.66699 -46 -17.833 -68 -33.5s-41.5 -37 -58.5 -64s-30.5 -60.333 -40.5 -100s-15 -86.5 -15 -140.5c0 -79.333 15.5 -145 46.5 -197s76.167 -85.333 135.5 -100v635zM618 -22.999c-82 6 -153.168 23.5029 -213.501 52.5029s-110.333 67 -150 114 s-69.167 102 -88.5 165s-29 131.5 -29 205.5c0 79.333 10.333 152.5 31 219.5s51.167 125.833 91.5 176.5s90.5 91.667 150.5 123s129.333 51 208 59v135c0 17.333 6 33.166 18 47.499s26.667 21.5 44 21.5s31.833 -7.16699 43.5 -21.5s17.5 -30.166 17.5 -47.499v-131 c57.333 -4 110.166 -14.667 158.499 -32s90 -38.833 125 -64.5s62.167 -54.334 81.5 -86.001s29 -63.834 29 -96.501c0 -21.333 -3.66699 -40.166 -11 -56.499s-17.5 -29.833 -30.5 -40.5s-28 -18.667 -45 -24s-34.833 -8 -53.5 -8c-21.333 0 -38.666 3.5 -51.999 10.5 s-25.166 16.167 -35.499 27.5s-19.833 23.666 -28.5 36.999s-19 26.333 -31 39s-26.333 24 -43 34s-38 17.333 -64 22v-645c25.333 5.33301 46.166 13.5 62.499 24.5s30.5 23.5 42.5 37.5s22.833 28.333 32.5 43s20.334 28 32.001 40s25.167 21.833 40.5 29.5 s35 11.5 59 11.5c18.667 0 35.667 -3.16699 51 -9.5s28.5 -14.833 39.5 -25.5s19.5 -22.834 25.5 -36.501s9 -27.834 9 -42.501c0 -30 -8 -62 -24 -96s-40.333 -65.667 -73 -95s-73.667 -54.666 -123 -75.999s-107.333 -35 -174 -41v-143 c0 -17.333 -5.83301 -33.333 -17.5 -48s-26.167 -22 -43.5 -22s-32 7.33301 -44 22s-18 30.667 -18 48v143z"/>
    <glyph glyph-name="sterling" unicode="£" d="M758 805c84.667 0 126.996 -32.6641 126.996 -97.9971c0 -34 -10.667 -59 -32 -75s-53 -24 -95 -24h-162c3.33301 -8 5.83301 -15.833 7.5 -23.5s2.5 -16.167 2.5 -25.5c0 -30 -5.83301 -59.833 -17.5 -89.5s-27.167 -58.334 -46.5 -86.001s-41.5 -53.834 -66.5 -78.501 s-51.167 -47 -78.5 -67l4 -5c18 7.33301 35.333 14.833 52 22.5s34 14.5 52 20.5s37 11 57 15s42.333 6 67 6c33.333 0 63.333 -2.16699 90 -6.5s52 -9 76 -14s47.667 -9.66699 71 -14s48 -6.5 74 -6.5c8.66699 0 20 1.16699 34 3.5s28.333 5 43 8s28.834 5.66699 42.501 8 s24.5 3.5 32.5 3.5c18.667 0 35.334 -3.33301 50.001 -10s27 -16 37 -28s17.667 -26 23 -42s8 -33.333 8 -52c0 -31.333 -6.83301 -58 -20.5 -80s-31.667 -40 -54 -54s-47.5 -24.167 -75.5 -30.5s-56.333 -9.5 -85 -9.5c-34.667 0 -70.334 4 -107.001 12s-74.5 17 -113.5 27 s-79.333 19 -121 27s-84.834 12 -129.501 12c-41.333 0 -74.666 -3.83301 -99.999 -11.5s-46.666 -16.834 -63.999 -27.501c-18.667 -9.33301 -35.167 -18.166 -49.5 -26.499s-31.833 -12.5 -52.5 -12.5c-43.333 0 -76.166 13.667 -98.499 41s-33.5 61 -33.5 101 c0 22 5.33301 42.333 16 61s23.834 36.834 39.501 54.501s32.667 35.667 51 54s35.333 38.166 51 59.499s28.834 45.166 39.501 71.499s16 56.5 16 90.5c0 18.667 -2.16699 36.5 -6.5 53.5s-9.5 33.167 -15.5 48.5h-109c-32.667 0 -59.167 8.16699 -79.5 24.5 s-30.5 41.166 -30.5 74.499c0 30 8 53.833 24 71.5s40 26.5 72 26.5h43c-21.333 30.667 -36.833 64.834 -46.5 102.501s-14.5 76.5 -14.5 116.5c0 63.333 13.167 121.5 39.5 174.5s62.666 98.5 108.999 136.5s100.833 67.667 163.5 89s130 32 202 32 c89.333 0 167.333 -10.833 234 -32.5s122 -49.5 166 -83.5s77 -71.833 99 -113.5s33 -82.5 33 -122.5c0 -46 -14.167 -81.333 -42.5 -106s-65.166 -37 -110.499 -37c-30 0 -53 6.16699 -69 18.5s-29.167 27.666 -39.5 45.999s-20 38.333 -29 60s-21.333 41.667 -37 60 s-36.834 33.666 -63.501 45.999s-63 18.5 -109 18.5c-30 0 -59.167 -4.33301 -87.5 -13s-53.333 -21.667 -75 -39s-39.167 -38.666 -52.5 -63.999s-20 -54.666 -20 -87.999c0 -35.333 7.16699 -70 21.5 -104s29.833 -66.333 46.5 -97h223z"/>
    <glyph glyph-name="currency" unicode="¤" d="M193 426c-28 41.333 -49.832 86.332 -65.499 134.999s-23.5 100 -23.5 154c0 53.333 7.66699 104.5 23 153.5s36.333 94.167 63 135.5l-55 51c-11.333 12 -19.333 24.667 -24 38s-7 25 -7 35c0 14 3 27.5 9 40.5s14 24.667 24 35s21.333 18.5 34 24.5s26 9 40 9 c16.667 0 32 -2.66699 46 -8s27.333 -14.333 40 -27l47 -49c42 26.667 86.667 47.334 134 62.001s97 22 149 22s101.667 -7.33301 149 -22s91.666 -35.334 132.999 -62.001l47 49c12.667 12.667 26.334 21.667 41.001 27s29.667 8 45 8c14.667 0 28.5 -3 41.5 -9 s24.333 -14.167 34 -24.5s17.334 -22 23.001 -35s8.5 -26.5 8.5 -40.5c0 -10 -2.33301 -21.5 -7 -34.5s-12.667 -25.167 -24 -36.5l-55 -53c28 -43.333 49.333 -89.333 64 -138s22 -99 22 -151c0 -52.667 -7.33301 -103.167 -22 -151.5s-36 -94.166 -64 -137.499l55 -53 c11.333 -11.333 19.333 -23.5 24 -36.5s7 -24.833 7 -35.5c0 -14 -2.83301 -27.5 -8.5 -40.5s-13.334 -24.5 -23.001 -34.5s-21 -18 -34 -24s-26.833 -9 -41.5 -9c-15.333 0 -30.333 2.66699 -45 8s-28.334 14 -41.001 26l-49 49 c-41.333 -26.667 -85.5 -47.167 -132.5 -61.5s-96.167 -21.5 -147.5 -21.5c-52 0 -101.5 7.16699 -148.5 21.5s-91.167 34.833 -132.5 61.5l-49 -49c-12.667 -12 -26 -20.667 -40 -26s-29.333 -8 -46 -8c-14 0 -27.333 3 -40 9s-24 14 -34 24s-18 21.5 -24 34.5 s-9 26.5 -9 40.5c0 10.667 2.5 22.5 7.5 35.5s13.5 25.167 25.5 36.5zM350.001 714.999c0 -40 7.16699 -77.5 21.5 -112.5s34 -65.667 59 -92s54.333 -47 88 -62s69.834 -22.5 108.501 -22.5c38 0 73.833 7.5 107.5 22.5s63 35.667 88 62s44.667 57 59 92 s21.5 72.5 21.5 112.5s-7.16699 77.5 -21.5 112.5s-34 65.5 -59 91.5s-54.333 46.667 -88 62s-69.5 23 -107.5 23c-38.667 0 -74.834 -7.66699 -108.501 -23s-63 -36 -88 -62s-44.667 -56.5 -59 -91.5s-21.5 -72.5 -21.5 -112.5z"/>
    <glyph glyph-name="yen" unicode="¥" d="M465 340h-254.002c-22.667 0 -41.667 7.66699 -57 23s-23 34.333 -23 57s7.66699 41.667 23 57s34.333 23 57 23h254v59l-35 59h-219c-22.667 0 -41.667 7.66699 -57 23s-23 34.333 -23 57s7.66699 41.667 23 57s34.333 23 57 23h125l-270 445 c-7.33301 12 -14 25.333 -20 40s-9 29.334 -9 44.001c0 28 5.83301 51.5 17.5 70.5s26.167 34.333 43.5 46s36.333 20 57 25s40 7.5 58 7.5c21.333 0 40 -3.66699 56 -11s29.5 -16 40.5 -26s20 -20.5 27 -31.5s12.167 -20.167 15.5 -27.5l275 -522l274 522 c3.33301 7.33301 8.5 16.5 15.5 27.5s16 21.5 27 31.5s24.5 18.667 40.5 26s34.667 11 56 11c18 0 37.333 -2.5 58 -7.5s39.834 -13.333 57.501 -25s32.334 -27 44.001 -46s17.5 -42.5 17.5 -70.5c0 -14.667 -3 -29.334 -9 -44.001s-12.667 -28 -20 -40l-270 -445h124 c22.667 0 41.667 -7.66699 57 -23s23 -34.333 23 -57s-7.66699 -41.667 -23 -57s-34.333 -23 -57 -23h-219l-35 -59v-59h254c22.667 0 41.667 -7.66699 57 -23s23 -34.333 23 -57s-7.66699 -41.667 -23 -57s-34.333 -23 -57 -23h-254v-203c0 -49.333 -14 -89 -42 -119 s-67.667 -45 -119 -45c-52 0 -92 15 -120 45s-42 69.667 -42 119v203z"/>
    <glyph glyph-name="brokenbar" unicode="¦" horiz-adv-x="455" d="M104 479c0 17.333 2.5 33.666 7.5 48.999s12.667 28.833 23 40.5s23.166 20.834 38.499 27.501s33.333 10 54 10s38.667 -3.33301 54 -10s28.166 -15.834 38.499 -27.501s18 -25.167 23 -40.5s7.5 -31.666 7.5 -48.999v-387c0 -17.333 -2.5 -33.666 -7.5 -48.999 s-12.667 -28.833 -23 -40.5s-23.166 -20.834 -38.499 -27.501s-33.333 -10 -54 -10s-38.667 3.33301 -54 10s-28.166 15.834 -38.499 27.501s-18 25.167 -23 40.5s-7.5 31.666 -7.5 48.999v387zM104 1382c0 17.333 2.5 33.666 7.5 48.999s12.667 28.833 23 40.5 s23.166 20.834 38.499 27.501s33.333 10 54 10s38.667 -3.33301 54 -10s28.166 -15.834 38.499 -27.501s18 -25.167 23 -40.5s7.5 -31.666 7.5 -48.999v-387c0 -17.333 -2.5 -33.666 -7.5 -48.999s-12.667 -28.833 -23 -40.5s-23.166 -20.834 -38.499 -27.501 s-33.333 -10 -54 -10s-38.667 3.33301 -54 10s-28.166 15.834 -38.499 27.501s-18 25.167 -23 40.5s-7.5 31.666 -7.5 48.999v387z"/>
    <glyph glyph-name="section" unicode="§" horiz-adv-x="1251" d="M829 903c50 -25.333 94.1689 -50.666 132.502 -75.999s70.5 -52.833 96.5 -82.5s45.667 -61.834 59 -96.501s20 -74 20 -118c0 -74.667 -18.5 -138.834 -55.5 -192.501s-87.5 -94.5 -151.5 -122.5c20.667 -12 38.667 -26.333 54 -43s28.333 -35.334 39 -56.001 s18.667 -42.5 24 -65.5s8 -46.5 8 -70.5c0 -59.333 -11.667 -111.333 -35 -156s-54.5 -82 -93.5 -112s-83.5 -52.667 -133.5 -68s-102 -23 -156 -23c-81.333 0 -150.166 10.5 -206.499 31.5s-102 46.833 -137 77.5s-60.5 63.167 -76.5 97.5s-24 65.166 -24 92.499 c0 16 2.66699 31.167 8 45.5s13 26.666 23 36.999s22.167 18.666 36.5 24.999s30.5 9.5 48.5 9.5c23.333 0 42.333 -5.33301 57 -16s27.834 -24.167 39.501 -40.5s23 -34 34 -53s24.5 -36.667 40.5 -53s35.5 -29.833 58.5 -40.5s52.5 -16 88.5 -16 c18 0 36.833 2.16699 56.5 6.5s38 11.666 55 21.999s31 24 42 41s16.5 38.167 16.5 63.5c0 24.667 -6.83301 46.5 -20.5 65.5s-32.834 37 -57.501 54s-54.334 33.833 -89.001 50.5l-114 57l-143.5 73c-47.667 24.667 -90.667 52.834 -129 84.501s-69.333 68.334 -93 110.001 s-35.5 91.834 -35.5 150.501c0 40.667 5.33301 76.834 16 108.501s25.5 60.167 44.5 85.5s42 48 69 68s56.833 39 89.5 57c-19.333 12.667 -36.833 27.334 -52.5 44.001s-28.834 34.5 -39.501 53.5s-18.834 38.833 -24.501 59.5s-8.5 41.667 -8.5 63 c0 62.667 11.667 117.5 35 164.5s54.666 86 93.999 117s84.833 54.167 136.5 69.5s105.834 23 162.501 23c66 0 124.5 -9.83301 175.5 -29.5s93.833 -44.167 128.5 -73.5s61 -61.5 79 -96.5s27 -67.5 27 -97.5c0 -16 -3 -31.333 -9 -46s-14.167 -27.5 -24.5 -38.5 s-22.5 -19.667 -36.5 -26s-29 -9.5 -45 -9.5c-24.667 0 -44 5.5 -58 16.5s-26 24.667 -36 41s-19.667 34 -29 53s-21 36.667 -35 53s-32.167 30 -54.5 41s-51.833 16.5 -88.5 16.5c-28 0 -52.333 -4 -73 -12s-37.834 -18.5 -51.501 -31.5s-23.667 -27.333 -30 -43 s-9.5 -31.167 -9.5 -46.5c0 -26.667 6.33301 -49.667 19 -69s28.334 -36.166 47.001 -50.499s39 -26.833 61 -37.5l61 -30zM776.002 319c14.667 4 29.668 10.668 45.001 20.001s29 21.166 41 35.499s21.833 30.833 29.5 49.5s11.5 39.667 11.5 63 c0 36 -9.83301 66.167 -29.5 90.5s-52.834 48.833 -99.501 73.5l-301 160l-43 -29.5c-14.667 -10.333 -28 -22.166 -40 -35.499s-22 -28.333 -30 -45s-12 -36 -12 -58c0 -12 1.83301 -24.5 5.5 -37.5s9 -25.5 16 -37.5s15.5 -23.333 25.5 -34s21 -19.334 33 -26.001z"/>
    <glyph glyph-name="dieresis" unicode="¨" horiz-adv-x="569" d="M-74 1356c0 20.667 4 40 12 58s18.833 33.667 32.5 47s29.5 24 47.5 32s37.333 12 58 12s40 -4 58 -12s33.667 -18.667 47 -32s24 -29 32 -47s12 -37.333 12 -58s-4 -40 -12 -58s-18.667 -33.833 -32 -47.5s-29 -24.5 -47 -32.5s-37.333 -12 -58 -12s-40 4 -58 12 s-33.833 18.833 -47.5 32.5s-24.5 29.5 -32.5 47.5s-12 37.333 -12 58zM344 1356c0 20.667 4 40 12 58s18.833 33.667 32.5 47s29.5 24 47.5 32s37.333 12 58 12c20 0 39.167 -4 57.5 -12s34.166 -18.667 47.499 -32s24 -29 32 -47s12 -37.333 12 -58s-4 -40 -12 -58 s-18.667 -33.833 -32 -47.5s-29.166 -24.5 -47.499 -32.5s-37.5 -12 -57.5 -12c-20.667 0 -40 4 -58 12s-33.833 18.833 -47.5 32.5s-24.5 29.5 -32.5 47.5s-12 37.333 -12 58z"/>
    <glyph glyph-name="copyright" unicode="©" horiz-adv-x="1638" d="M47 737c0 81.333 9.83301 157 29.5 227s46.834 133.667 81.501 191s76.167 108 124.5 152s101 81 158 111s117.667 52.667 182 68s129.833 23 196.5 23s132 -7.66699 196 -23s124.667 -38 182 -68s110 -67 158 -111s89.5 -94.667 124.5 -152s62.333 -121 82 -191 s29.5 -145.667 29.5 -227s-9.83301 -157 -29.5 -227s-47 -133.5 -82 -190.5s-76.5 -107.5 -124.5 -151.5s-100.667 -81.167 -158 -111.5s-118 -53.166 -182 -68.499s-129.333 -23 -196 -23s-132.167 7.66699 -196.5 23s-125 38.166 -182 68.499s-109.667 67.5 -158 111.5 s-89.833 94.5 -124.5 151.5s-61.834 120.5 -81.501 190.5s-29.5 145.667 -29.5 227zM281 737c0 -87.333 13.833 -167 41.5 -239s65.834 -133.667 114.501 -185s105.667 -91.333 171 -120s135.666 -43 210.999 -43c74 0 143.833 14.333 209.5 43s122.834 68.667 171.501 120 s87.167 113 115.5 185s42.5 151.667 42.5 239c0 86.667 -14.167 166.167 -42.5 238.5s-66.833 134.333 -115.5 186s-105.834 91.834 -171.501 120.501s-135.5 43 -209.5 43c-75.333 0 -145.666 -14.333 -210.999 -43s-122.333 -68.834 -171 -120.501 s-86.834 -113.667 -114.501 -186s-41.5 -151.833 -41.5 -238.5zM438 743c0 63.333 9.50391 122.333 28.5039 177s46 102 81 142s77.667 71.333 128 94s107.166 34 170.499 34c54 0 102.167 -7.83301 144.5 -23.5s78.166 -35.834 107.499 -60.501s51.666 -51.667 66.999 -81 s23 -57.666 23 -84.999c0 -19.333 -3.16699 -35.5 -9.5 -48.5s-14 -23.5 -23 -31.5s-18.5 -13.667 -28.5 -17s-18.333 -5 -25 -5c-22.667 0 -40.167 4.16699 -52.5 12.5s-22.5 18.666 -30.5 30.999s-15.333 25.833 -22 40.5s-15.834 28.167 -27.501 40.5 s-27 22.666 -46 30.999s-44.833 12.5 -77.5 12.5c-28 0 -53.5 -6 -76.5 -18s-42.667 -29.167 -59 -51.5s-29 -49.333 -38 -81s-13.5 -67.5 -13.5 -107.5c0 -38.667 4.5 -74.167 13.5 -106.5s21.667 -60.333 38 -84s36.333 -42 60 -55s50.167 -19.5 79.5 -19.5 c30 0 54.167 4.33301 72.5 13s33.5 19.334 45.5 32.001s22.167 26.667 30.5 42s17.166 29.333 26.499 42s20.5 23.334 33.5 32.001s30.167 13 51.5 13c25.333 0 46 -8 62 -24s24 -38 24 -66c0 -20 -7.66699 -45.167 -23 -75.5s-37.666 -59.833 -66.999 -88.5 s-65.5 -53.167 -108.5 -73.5s-92.167 -30.5 -147.5 -30.5c-62 0 -118.333 11.5 -169 34.5s-94 54.5 -130 94.5s-63.833 87 -83.5 141s-29.5 112 -29.5 174z"/>
    <glyph glyph-name="ordfeminine" unicode="ª" horiz-adv-x="813" d="M727 971c0 -19.333 1.17188 -35.0049 3.50488 -47.0049s4.66602 -22.333 6.99902 -31s4.66602 -16.167 6.99902 -22.5s3.5 -13.166 3.5 -20.499c0 -10 -2.66699 -19.333 -8 -28s-12.333 -16.167 -21 -22.5s-18.5 -11.166 -29.5 -14.499s-22.5 -5 -34.5 -5 c-21.333 0 -39 2.83301 -53 8.5s-25.5 13.334 -34.5 23.001s-15.5 20.834 -19.5 33.501s-6.33301 26 -7 40c-38 -39.333 -79 -66.666 -123 -81.999s-92 -23 -144 -23c-27.333 0 -54.333 4.16699 -81 12.5s-50.334 20.5 -71.001 36.5s-37.334 35.5 -50.001 58.5 s-19 48.833 -19 77.5c0 36.667 7.16699 67.167 21.5 91.5s33.833 44 58.5 59s53.667 26.5 87 34.5s68.666 14.333 105.999 19l118 15c21.333 2.66699 39 7.83398 53 15.501s21 24.167 21 49.5s-11 43.666 -33 54.999s-48.333 17 -79 17c-35.333 0 -63 -5 -83 -15 s-37.167 -21 -51.5 -33l-41 -33c-13 -10 -29.833 -15 -50.5 -15c-26.667 0 -47.667 6.5 -63 19.5s-23 28.833 -23 47.5c0 18 6.66699 36.667 20 56s33.333 37 60 53s59.5 29.167 98.5 39.5s84.167 15.5 135.5 15.5c46.667 0 89.5 -3.5 128.5 -10.5s72.667 -18 101 -33 s50.333 -34.167 66 -57.5s23.5 -51 23.5 -83v-301zM518.005 1100c-10 -9.33301 -21.999 -15.999 -35.999 -19.999s-26.667 -7 -38 -9l-69 -10c-39.333 -6 -68 -15.167 -86 -27.5s-27 -29.833 -27 -52.5c0 -20.667 8 -36.834 24 -48.501s39.333 -17.5 70 -17.5 c26.667 0 50.167 3.33301 70.5 10s37.166 15.5 50.499 26.5s23.5 23.833 30.5 38.5s10.5 30 10.5 46v64z"/>
    <glyph glyph-name="guillemotleft" unicode="«" horiz-adv-x="1214" d="M358 565l168 -113.997c18.667 -12.667 34.334 -28 47.001 -46s19 -38.333 19 -61c0 -14 -2.5 -27.333 -7.5 -40s-11.667 -23.834 -20 -33.501s-18.333 -17.5 -30 -23.5s-24.5 -9 -38.5 -9c-18.667 0 -34.167 3.5 -46.5 10.5s-23.5 14.167 -33.5 21.5l-201 146 c-23.333 16.667 -40.833 38.167 -52.5 64.5s-17.5 54.5 -17.5 84.5s5.83301 58.333 17.5 85s29.167 48.334 52.5 65.001l201 145c10 7.33301 21.167 14.666 33.5 21.999s27.833 11 46.5 11c14 0 26.833 -3 38.5 -9s21.667 -13.833 30 -23.5s15 -21 20 -34 s7.5 -26.5 7.5 -40.5c0 -22.667 -6.33301 -42.834 -19 -60.501s-28.334 -32.834 -47.001 -45.501zM836 565.003l168 -113.997c18 -12.667 33.333 -28 46 -46s19 -38.333 19 -61c0 -14 -2.5 -27.333 -7.5 -40s-11.667 -23.834 -20 -33.501s-18.333 -17.5 -30 -23.5 s-24.5 -9 -38.5 -9c-18.667 0 -34.167 3.5 -46.5 10.5s-23.5 14.167 -33.5 21.5l-201 146c-23.333 16.667 -40.666 38.167 -51.999 64.5s-17 54.5 -17 84.5s5.66699 58.333 17 85s28.666 48.334 51.999 65.001l201 145c10 7.33301 21.167 14.666 33.5 21.999 s27.833 11 46.5 11c14 0 26.833 -3 38.5 -9s21.667 -13.833 30 -23.5s15 -21 20 -34s7.5 -26.5 7.5 -40.5c0 -22.667 -6.33301 -42.834 -19 -60.501s-28 -32.834 -46 -45.501z"/>
    <glyph glyph-name="logicalnot" unicode="¬" horiz-adv-x="1229" d="M948 698h-769.999c-21.333 0 -40.833 3.5 -58.5 10.5s-32.834 16.333 -45.501 28s-22.334 24.834 -29.001 39.501s-10 29.667 -10 45c0 37.333 13 67.166 39 89.499s60.667 33.5 104 33.5h852c30.667 0 56.5 -2.83301 77.5 -8.5s37.833 -14.5 50.5 -26.5 s21.834 -27.667 27.501 -47s8.5 -42.333 8.5 -69v-416c0 -42 -11 -76.5 -33 -103.5s-52 -40.5 -90 -40.5s-68 13.5 -90 40.5s-33 61.5 -33 103.5v321z"/>
    <glyph glyph-name="uni00AD" unicode="­" horiz-adv-x="761" d="M206 499c1.33301 6 4.33594 13.3291 9.00293 21.9961s10 17.334 16 26.001s12.5 16 19.5 22s13.833 9 20.5 9h143c21.333 0 43.5 1.33301 66.5 4s46.167 5.66699 69.5 9s47 6.33301 71 9s48 4 72 4c36.667 0 64 -2.66699 82 -8s27 -18.666 27 -39.999 c0 -25.333 -6.33301 -46.833 -19 -64.5s-29.667 -32 -51 -43s-46.666 -19.167 -75.999 -24.5s-60.333 -8 -93 -8c-26 -6 -52.333 -11.167 -79 -15.5s-52.334 -7.66602 -77.001 -9.99902s-47.334 -4.16602 -68.001 -5.49902s-38.334 -2 -53.001 -2 c-12.667 0 -24.334 0.666992 -35.001 2s-20 4 -28 8s-14.167 10.167 -18.5 18.5s-6.5 19.5 -6.5 33.5c0 12.667 2.66699 30.667 8 54z"/>
    <glyph glyph-name="registered" unicode="®" horiz-adv-x="1638" d="M47 737c0 122.667 21.499 231.833 64.499 327.5s100.333 176.5 172 242.5s153.834 116.167 246.501 150.5s189 51.5 289 51.5c66.667 0 132 -7.66699 196 -23s124.667 -38 182 -68s110 -67 158 -111s89.5 -94.667 124.5 -152s62.333 -121 82 -191 s29.5 -145.667 29.5 -227s-9.83301 -157 -29.5 -227s-47 -133.5 -82 -190.5s-76.5 -107.5 -124.5 -151.5s-100.667 -81.167 -158 -111.5s-118 -53.166 -182 -68.499s-129.333 -23 -196 -23s-132 7.66699 -196 23s-124.5 38.166 -181.5 68.499s-109.667 67.5 -158 111.5 s-90 94.5 -125 151.5s-62.333 120.5 -82 190.5s-29.5 145.667 -29.5 227zM280.999 736.999c0 -87.333 13.833 -167 41.5 -239s65.834 -133.667 114.501 -185s105.667 -91.333 171 -120s135.666 -43 210.999 -43c74 0 143.833 14.333 209.5 43s122.834 68.667 171.501 120 s87.167 113 115.5 185s42.5 151.667 42.5 239c0 86.667 -14.167 166.167 -42.5 238.5s-66.833 134.333 -115.5 186s-105.834 91.834 -171.501 120.501s-135.5 43 -209.5 43c-75.333 0 -145.666 -14.333 -210.999 -43s-122.333 -68.834 -171 -120.501 s-86.834 -113.667 -114.501 -186s-41.5 -151.833 -41.5 -238.5zM513.999 1059c0 15.333 2.6709 28.666 8.00391 39.999s12.166 20.833 20.499 28.5s18 13.5 29 17.5s22.5 6 34.5 6h260c46 0 87.5 -3.83301 124.5 -11.5s68.167 -21 93.5 -40s44.833 -44.5 58.5 -76.5 s20.5 -72 20.5 -120c0 -38 -5.33301 -71.167 -16 -99.5s-25 -52.166 -43 -71.499s-38.333 -34.166 -61 -44.499s-46 -16.166 -70 -17.499l135 -181c11.333 -15.333 18.666 -29.333 21.999 -42s5 -25.667 5 -39c0 -8.66699 -2.16699 -17.334 -6.5 -26.001 s-10.5 -16.334 -18.5 -23.001s-17.333 -12.167 -28 -16.5s-22.334 -6.5 -35.001 -6.5c-21.333 0 -40.333 5 -57 15s-33.334 26.667 -50.001 50l-188 269h-54v-240c0 -32 -9 -55.667 -27 -71s-39.667 -23 -65 -23c-24.667 0 -46.167 7.66699 -64.5 23s-27.5 39 -27.5 71v629z M698.003 816.999l158 -0.000976562c14.667 0 28.667 1.33301 42 4s25.166 7.5 35.499 14.5s18.5 16.5 24.5 28.5s9 27.667 9 47c0 18.667 -3 34.167 -9 46.5s-14.167 21.833 -24.5 28.5s-22.166 11.334 -35.499 14.001s-27.333 4 -42 4h-158v-187z"/>
    <glyph glyph-name="macron" unicode="¯" horiz-adv-x="569" d="M557 1448c30.667 0 55.334 -8.16699 74.001 -24.5s28 -38.833 28 -67.5c0 -29.333 -9.33301 -52 -28 -68s-43.334 -24 -74.001 -24h-545c-30.667 0 -55.334 8 -74.001 24s-28 38.667 -28 68c0 28.667 9.33301 51.167 28 67.5s43.334 24.5 74.001 24.5h545z"/>
    <glyph glyph-name="degree" unicode="°" horiz-adv-x="819" d="M264 1163c0 -19.333 4 -37.833 12 -55.5s18.667 -33.167 32 -46.5s28.833 -23.833 46.5 -31.5s36.167 -11.5 55.5 -11.5s37.666 3.83301 54.999 11.5s32.666 18.167 45.999 31.5s24 28.833 32 46.5s12 36.167 12 55.5s-4 37.833 -12 55.5s-18.667 33.167 -32 46.5 s-28.666 24 -45.999 32s-35.666 12 -54.999 12s-37.833 -4 -55.5 -12s-33.167 -18.667 -46.5 -32s-24 -28.833 -32 -46.5s-12 -36.167 -12 -55.5zM117 1163c0 40.667 7.5 78.834 22.5 114.501s35.833 66.834 62.5 93.501s57.667 47.5 93 62.5s73.666 22.5 114.999 22.5 c40.667 0 78.834 -7.5 114.501 -22.5s66.667 -35.833 93 -62.5s47 -57.834 62 -93.501s22.5 -73.834 22.5 -114.501c0 -41.333 -7.5 -79.666 -22.5 -114.999s-35.667 -66.333 -62 -93s-57.333 -47.5 -93 -62.5s-73.834 -22.5 -114.501 -22.5 c-41.333 0 -79.666 7.5 -114.999 22.5s-66.333 35.833 -93 62.5s-47.5 57.667 -62.5 93s-22.5 73.666 -22.5 114.999z"/>
    <glyph glyph-name="plusminus" unicode="±" horiz-adv-x="1229" d="M492 1016c0 42 10.835 76.333 32.502 103s51.5 40 89.5 40s68 -13.333 90 -40s33 -61 33 -103v-148h314c43.333 0 78 -11.167 104 -33.5s39 -52.166 39 -89.499c0 -15.333 -3.5 -30.333 -10.5 -45s-16.667 -27.667 -29 -39s-27.333 -20.5 -45 -27.5 s-37.167 -10.5 -58.5 -10.5h-314v-148c0 -42 -11 -76.333 -33 -103s-52 -40 -90 -40s-67.833 13.333 -89.5 40s-32.5 61 -32.5 103v148h-314c-21.333 0 -40.833 3.5 -58.5 10.5s-32.834 16.167 -45.501 27.5s-22.334 24.333 -29.001 39s-10 29.667 -10 45 c0 37.333 13 67.166 39 89.499s60.667 33.5 104 33.5h314v148zM1051 246c43.333 0 78.002 -11.167 104.002 -33.5s39 -52.166 39 -89.499c0 -15.333 -3.5 -30.5 -10.5 -45.5s-16.667 -28.167 -29 -39.5s-27.333 -20.5 -45 -27.5s-37.167 -10.5 -58.5 -10.5h-873 c-21.333 0 -40.833 3.5 -58.5 10.5s-32.834 16.167 -45.501 27.5s-22.334 24.5 -29.001 39.5s-10 30.167 -10 45.5c0 37.333 13 67.166 39 89.499s60.667 33.5 104 33.5h873z"/>
    <glyph glyph-name="twosuperior" unicode="²" horiz-adv-x="788" d="M649 764c31.333 0 55.667 -7.66797 73 -23.001s26 -38.333 26 -69c0 -35.333 -8.66699 -59.5 -26 -72.5s-41.666 -19.5 -72.999 -19.5h-499c-19.333 0 -35.833 2.83301 -49.5 8.5s-24.834 13.334 -33.501 23.001s-15.167 20.667 -19.5 33s-6.5 25.5 -6.5 39.5 c0 44 18.833 88 56.5 132s98.167 90 181.5 138l116.5 68c31 18 55.833 34.667 74.5 50s32 31.5 40 48.5s12 38.167 12 63.5c0 15.333 -3.5 29.166 -10.5 41.499s-16.667 22.833 -29 31.5s-26.5 15.334 -42.5 20.001s-33 7 -51 7c-37.333 0 -70 -8.5 -98 -25.5 s-48.667 -43.833 -62 -80.5c-4 -11.333 -8.16699 -21.333 -12.5 -30s-9.5 -16 -15.5 -22s-13.5 -10.5 -22.5 -13.5s-20.167 -4.5 -33.5 -4.5c-27.333 0 -50.5 6.16699 -69.5 18.5s-28.5 34.166 -28.5 65.499c0 37.333 9.33301 72 28 104s44.167 59.833 76.5 83.5 s70 42.334 113 56.001s89.167 20.5 138.5 20.5c53.333 0 101 -6.16699 143 -18.5s77.667 -29.333 107 -51s51.666 -47.5 66.999 -77.5s23 -62.333 23 -97c0 -40 -4.16699 -74.833 -12.5 -104.5s-21 -56 -38 -79s-38.333 -43.667 -64 -62s-56.167 -36.833 -91.5 -55.5 l-173.5 -91c-40.333 -22 -65.166 -40.667 -74.499 -56h360z"/>
    <glyph glyph-name="threesuperior" unicode="³" horiz-adv-x="788" d="M31 778c0 25.333 9.00293 45.998 27.0029 61.998s42.333 24 73 24c20 0 35.333 -3.16699 46 -9.5s19.667 -14.166 27 -23.499s14.166 -19.5 20.499 -30.5s14.666 -21.167 24.999 -30.5s24.166 -17.166 41.499 -23.499s41 -9.5 71 -9.5c25.333 0 47.333 3 66 9 s34 14 46 24s21 21.5 27 34.5s9 26.833 9 41.5c0 13.333 -1.66699 25.833 -5 37.5s-9.33301 22 -18 31s-20.5 16.5 -35.5 22.5s-33.833 10.333 -56.5 13c-9.33301 0.666992 -20.333 2 -33 4s-24.667 5.5 -36 10.5s-21 12 -29 21s-12 21.167 -12 36.5c0 18 2.5 32.5 7.5 43.5 s12.5 19.667 22.5 26s22.167 10.666 36.5 12.999s30.833 4.16602 49.5 5.49902c30 2 52.167 11.167 66.5 27.5s21.5 37.166 21.5 62.499c0 14 -3.16699 26.167 -9.5 36.5s-15 19 -26 26s-23.833 12.333 -38.5 16s-30 5.5 -46 5.5c-26 0 -47 -2.83301 -63 -8.5 s-29.333 -12.834 -40 -21.501s-19.667 -18.167 -27 -28.5s-15 -19.833 -23 -28.5s-17.333 -15.834 -28 -21.501s-25 -8.5 -43 -8.5c-25.333 0 -47.333 5.5 -66 16.5s-28 30.167 -28 57.5c0 24.667 5 47.334 15 68.001s23.333 38.834 40 54.501s36.167 29.334 58.5 41.001 s45.5 21.334 69.5 29.001s48.5 13.334 73.5 17.001s48.833 5.5 71.5 5.5c60.667 0 112 -7 154 -21s76.167 -32.167 102.5 -54.5s45.5 -47.833 57.5 -76.5s18 -57.667 18 -87c0 -39.333 -10.833 -73.166 -32.5 -101.499s-53.167 -51.166 -94.5 -68.499v-5 c52 -11.333 89.5 -34 112.5 -68s34.5 -74 34.5 -120c0 -48.667 -9.66699 -91.167 -29 -127.5s-45.5 -66.5 -78.5 -90.5s-71.667 -41.833 -116 -53.5s-91.833 -17.5 -142.5 -17.5c-64 0 -117.333 7.83301 -160 23.5s-77 34.667 -103 57s-44.333 45.666 -55 69.999 s-16 45.166 -16 62.499z"/>
    <glyph glyph-name="acute" unicode="´" horiz-adv-x="569" d="M322 1489c20 16.667 41.665 32.5 64.998 47.5s47.333 22.5 72 22.5c20.667 0 38 -4 52 -12s25.333 -17.667 34 -29s14.834 -23.666 18.501 -36.999s5.5 -25 5.5 -35c0 -40 -25 -77 -75 -111l-185 -125c-12.667 -8.66699 -23.667 -15.334 -33 -20.001 s-17.666 -8.16699 -24.999 -10.5s-13.833 -3.83301 -19.5 -4.5s-11.167 -1 -16.5 -1c-12 0 -24.167 2 -36.5 6s-23.5 10 -33.5 18s-18.167 18.333 -24.5 31s-9.5 27.667 -9.5 45c0 18.667 4.16699 35 12.5 49s23.833 30.333 46.5 49z"/>
    <glyph glyph-name="mu" unicode="µ" horiz-adv-x="1251" d="M1133 123c0 -45.333 -10.835 -81.667 -32.502 -109s-56.167 -41 -103.5 -41s-81.666 13.667 -102.999 41s-32 63.666 -32 108.999v39h-4c-21.333 -28 -44.666 -53.5 -69.999 -76.5s-52 -42.833 -80 -59.5s-56.5 -29.667 -85.5 -39s-57.5 -14 -85.5 -14 c-29.333 0 -54.666 3 -75.999 9s-35.666 12 -42.999 18v-274c0 -50 -13.667 -87.5 -41 -112.5s-63.666 -37.5 -108.999 -37.5s-81.5 12.5 -108.5 37.5s-40.5 62.5 -40.5 112.5v1222c0 20 2.33301 39 7 57s12.667 34 24 48s26.5 25 45.5 33s43.167 12 72.5 12 s53.666 -4 72.999 -12s34.666 -19 45.999 -33s19.333 -30 24 -48s7 -37 7 -57v-522c0 -30 3.66699 -57.667 11 -83s18.833 -47.166 34.5 -65.499s35.334 -32.666 59.001 -42.999s51.5 -15.5 83.5 -15.5c26 0 52.5 5.33301 79.5 16s51.5 26 73.5 46s40 44.667 54 74 s21 62.666 21 99.999v493c0 20 2.33301 39 7 57s12.667 34 24 48s26.5 25 45.5 33s43.167 12 72.5 12s53.666 -4 72.999 -12s34.666 -19 45.999 -33s19.333 -30 24 -48s7 -37 7 -57v-825z"/>
    <glyph glyph-name="paragraph" unicode="¶" horiz-adv-x="1270" d="M477 760c-74 0 -139.498 8.00195 -196.498 24.002s-104.833 39 -143.5 69s-67.834 66.667 -87.501 110s-29.5 92.333 -29.5 147c0 74 13 134.5 39 181.5s61.5 84.167 106.5 111.5s98.167 46.166 159.5 56.499s127.666 15.5 198.999 15.5h520c38 0 68 -11.333 90 -34 s33 -52.334 33 -89.001v-1581c0 -37.333 -11 -67.166 -33 -89.499s-52 -33.5 -90 -33.5s-67.833 11.167 -89.5 33.5s-32.5 52.166 -32.5 89.499v1519h-199v-1519c0 -37.333 -11 -67.166 -33 -89.499s-52 -33.5 -90 -33.5s-68 11.167 -90 33.5s-33 52.166 -33 89.499v989z "/>
    <glyph glyph-name="uni00B7" unicode="·" horiz-adv-x="627" d="M133 547c0 24.667 4.66699 48 14 70s22.166 41.167 38.499 57.5s35.333 29.166 57 38.499s45.167 14 70.5 14s49 -4.66699 71 -14s41.167 -22.166 57.5 -38.499s29.166 -35.5 38.499 -57.5s14 -45.333 14 -70c0 -25.333 -4.66699 -48.833 -14 -70.5 s-22.166 -40.667 -38.499 -57s-35.5 -29.166 -57.5 -38.499s-45.667 -14 -71 -14s-48.833 4.66699 -70.5 14s-40.667 22.166 -57 38.499s-29.166 35.333 -38.499 57s-14 45.167 -14 70.5z"/>
    <glyph glyph-name="cedilla" unicode="¸" horiz-adv-x="569" d="M236 0l113.999 0.000976562l-76 -113h15c26.667 0 51.834 -2.66699 75.501 -8s44 -13.833 61 -25.5s30.5 -26.5 40.5 -44.5s15 -39.667 15 -65c0 -28.667 -6.83301 -54.334 -20.5 -77.001s-32 -41.667 -55 -57s-49.5 -27.166 -79.5 -35.499s-61 -12.5 -93 -12.5 c-30.667 0 -56.667 2.5 -78 7.5s-38.833 11.5 -52.5 19.5s-23.667 17 -30 27s-9.5 20 -9.5 30c0 13.333 4.66699 25.5 14 36.5s21.333 16.5 36 16.5c5.33301 0 12.333 -1.16699 21 -3.5s18 -5 28 -8s20.5 -5.66699 31.5 -8s21.5 -3.5 31.5 -3.5 c22.667 0 40.334 6.16699 53.001 18.5s19 28.166 19 47.499c0 15.333 -3.83301 28 -11.5 38s-20.834 15 -39.501 15c-14.667 0 -27.167 -1 -37.5 -3s-19.833 -3 -28.5 -3c-18.667 0 -31.167 3.66699 -37.5 11s-9.5 17.333 -9.5 30c0 7.33301 2.5 15.333 7.5 24 s10.167 17 15.5 25z"/>
    <glyph glyph-name="onesuperior" unicode="¹" horiz-adv-x="543" d="M209 1118l-162 0.000976562c-21.333 0 -38.666 6.33301 -51.999 19s-20 31.667 -20 57c0 14 1.83301 25.5 5.5 34.5s9.33398 16.333 17.001 22s17.667 10.167 30 13.5s27.166 6.66602 44.499 9.99902l49 8c24 4 43.167 11.167 57.5 21.5s26.333 22 36 35s18 26.333 25 40 s14.667 26.334 23 38.001s18.333 21.167 30 28.5s27.5 11 47.5 11c27.333 0 49.166 -5.83301 65.499 -17.5s24.5 -33.834 24.5 -66.501v-690c0 -33.333 -8 -59.833 -24 -79.5s-45 -29.5 -87 -29.5c-38.667 0 -66.667 9.83301 -84 29.5s-26 46.167 -26 79.5v436z"/>
    <glyph glyph-name="ordmasculine" unicode="º" horiz-adv-x="815" d="M256 1118c0 -26.667 2.83301 -52.167 8.5 -76.5s14.5 -45.833 26.5 -64.5s27.667 -33.667 47 -45s42.666 -17 69.999 -17c26.667 0 49.667 5.66699 69 17s35 26.333 47 45s20.833 40.167 26.5 64.5s8.5 49.833 8.5 76.5c0 28.667 -2.83301 55.334 -8.5 80.001 s-14.667 46.167 -27 64.5s-28 32.666 -47 42.999s-41.833 15.5 -68.5 15.5s-49.667 -5.16699 -69 -15.5s-35.166 -24.666 -47.499 -42.999s-21.333 -39.833 -27 -64.5s-8.5 -51.334 -8.5 -80.001zM47 1118c0 48 7.83594 92.5 23.5029 133.5s38.667 76.667 69 107 s68 54.166 113 71.499s96.833 26 155.5 26c58 0 109.5 -8.66699 154.5 -26s82.667 -41.166 113 -71.499s53.333 -66 69 -107s23.5 -85.5 23.5 -133.5c0 -44.667 -6.33301 -87.334 -19 -128.001s-33.334 -76.5 -62.001 -107.5s-65.834 -55.833 -111.501 -74.5 s-101.5 -28 -167.5 -28s-122 9.33301 -168 28s-83.333 43.5 -112 74.5s-49.334 66.833 -62.001 107.5s-19 83.334 -19 128.001z"/>
    <glyph glyph-name="guillemotright" unicode="»" horiz-adv-x="1214" d="M856 565l-168 114.997c-18.667 12.667 -34.167 27.834 -46.5 45.501s-18.5 37.834 -18.5 60.501c0 14 2.5 27.5 7.5 40.5s11.667 24.333 20 34s18.333 17.5 30 23.5s24.5 9 38.5 9c18.667 0 34 -3.66699 46 -11s23.333 -14.666 34 -21.999l200 -145 c24 -16.667 41.667 -38.334 53 -65.001s17 -55 17 -85s-5.66699 -58.167 -17 -84.5s-29 -47.833 -53 -64.5l-200 -146c-10.667 -7.33301 -22 -14.5 -34 -21.5s-27.333 -10.5 -46 -10.5c-14 0 -26.833 3 -38.5 9s-21.667 13.833 -30 23.5s-15 20.834 -20 33.501 s-7.5 26 -7.5 40c0 22.667 6.16699 43 18.5 61s27.833 33.333 46.5 46zM379 564.997l-168 114.997c-18.667 12.667 -34.334 27.834 -47.001 45.501s-19 37.834 -19 60.501c0 14 2.5 27.5 7.5 40.5s11.667 24.333 20 34s18.5 17.5 30.5 23.5s25 9 39 9 c18.667 0 34 -3.66699 46 -11s23.333 -14.666 34 -21.999l200 -145c23.333 -16.667 40.833 -38.334 52.5 -65.001s17.5 -55 17.5 -85s-5.83301 -58.167 -17.5 -84.5s-29.167 -47.833 -52.5 -64.5l-200 -146c-10.667 -7.33301 -22 -14.5 -34 -21.5s-27.333 -10.5 -46 -10.5 c-14 0 -27 3 -39 9s-22.167 13.833 -30.5 23.5s-15 20.834 -20 33.501s-7.5 26 -7.5 40c0 22.667 6.33301 43 19 61s28.334 33.333 47.001 46z"/>
    <glyph glyph-name="onequarter" unicode="¼" horiz-adv-x="1876" d="M1479 643h-4l-234 -297h238v297zM1479 186l-329.999 0.00195312c-17.333 0 -32.5 2.83301 -45.5 8.5s-23.667 12.834 -32 21.501s-14.5 18.167 -18.5 28.5s-6 20.166 -6 29.499c0 19.333 1.83301 34.666 5.5 45.999s8.5 20.666 14.5 27.999l385 469 c7.33301 8.66699 14.666 16.5 21.999 23.5s15.833 13 25.5 18s20.5 8.83301 32.5 11.5s26.333 4 43 4c32.667 0 59.667 -8.33301 81 -25s32 -39.667 32 -69v-434h49c22.667 0 40.5 -7.5 53.5 -22.5s19.5 -34.167 19.5 -57.5s-6.5 -42.5 -19.5 -57.5 s-30.833 -22.5 -53.5 -22.5h-49v-108c0 -25.333 -7.5 -46 -22.5 -62s-42.5 -24 -82.5 -24s-67.333 8 -82 24s-22 36.667 -22 62v108zM1114 1452c7.33301 13.333 17.333 26.1641 30 38.4971s29.334 18.5 50.001 18.5c11.333 0 21.833 -2 31.5 -6s18.167 -9.16699 25.5 -15.5 s13 -13.666 17 -21.999s6 -16.833 6 -25.5c0 -19.333 -7.66699 -42.666 -23 -69.999l-737 -1393c-7.33301 -13.333 -17.333 -26.166 -30 -38.499s-29.334 -18.5 -50.001 -18.5c-11.333 0 -21.833 2 -31.5 6s-18.167 9.33301 -25.5 16s-13 14.167 -17 22.5s-6 16.833 -6 25.5 c0 19.333 7.66699 42.333 23 69zM209.001 1118l-162 0.000976562c-21.333 0 -38.666 6.33301 -51.999 19s-20 31.667 -20 57c0 14 1.83301 25.5 5.5 34.5s9.33398 16.333 17.001 22s17.667 10.167 30 13.5s27.166 6.66602 44.499 9.99902l49 8c24 4 43.167 11.167 57.5 21.5 s26.333 22 36 35s18 26.333 25 40s14.667 26.334 23 38.001s18.333 21.167 30 28.5s27.5 11 47.5 11c27.333 0 49.166 -5.83301 65.499 -17.5s24.5 -33.834 24.5 -66.501v-690c0 -33.333 -8 -59.833 -24 -79.5s-45 -29.5 -87 -29.5c-38.667 0 -66.667 9.83301 -84 29.5 s-26 46.167 -26 79.5v436z"/>
    <glyph glyph-name="onehalf" unicode="½" horiz-adv-x="1876" d="M1114 1452c7.33301 13.333 17.333 26.1641 30 38.4971s29.334 18.5 50.001 18.5c11.333 0 21.833 -2 31.5 -6s18.167 -9.16699 25.5 -15.5s13 -13.666 17 -21.999s6 -16.833 6 -25.5c0 -19.333 -7.66699 -42.666 -23 -69.999l-737 -1393 c-7.33301 -13.333 -17.333 -26.166 -30 -38.499s-29.334 -18.5 -50.001 -18.5c-11.333 0 -21.833 2 -31.5 6s-18.167 9.33301 -25.5 16s-13 14.167 -17 22.5s-6 16.833 -6 25.5c0 19.333 7.66699 42.333 23 69zM1712 183.998c31.333 0 55.501 -7.50391 72.501 -22.5039 s25.5 -38.167 25.5 -69.5c0 -34.667 -8.5 -58.667 -25.5 -72s-41.167 -20 -72.5 -20h-500c-18.667 0 -34.834 2.83301 -48.501 8.5s-24.834 13.334 -33.501 23.001s-15.167 20.667 -19.5 33s-6.5 25.5 -6.5 39.5c0 44.667 18.833 89 56.5 133s97.834 90 180.501 138l117 67 c31.333 18 56.333 34.833 75 50.5s32 31.834 40 48.501s12 37.667 12 63c0 15.333 -3.5 29.333 -10.5 42s-16.667 23.334 -29 32.001s-26.5 15.334 -42.5 20.001s-33 7 -51 7c-37.333 0 -70 -8.5 -98 -25.5s-48.667 -44.167 -62 -81.5 c-4 -11.333 -8.16699 -21.333 -12.5 -30s-9.5 -16 -15.5 -22s-13.5 -10.5 -22.5 -13.5s-20.167 -4.5 -33.5 -4.5c-28 0 -51.333 6.33301 -70 19s-28 34.334 -28 65.001c0 37.333 9.33301 72.166 28 104.499s44.167 60.333 76.5 84s70 42.334 113 56.001 s89.167 20.5 138.5 20.5c53.333 0 101 -6.16699 143 -18.5s77.667 -29.5 107 -51.5s51.666 -47.833 66.999 -77.5s23 -61.834 23 -96.501c0 -40.667 -4.16699 -75.667 -12.5 -105s-21 -55.5 -38 -78.5s-38.5 -43.667 -64.5 -62s-56.667 -36.833 -92 -55.5l-99 -51.5 c-28.667 -15 -53.167 -28.333 -73.5 -40s-36.666 -22 -48.999 -31s-20.833 -17.5 -25.5 -25.5h360zM209.001 1117.99l-162 0.000976562c-21.333 0 -38.666 6.33301 -51.999 19s-20 31.667 -20 57c0 14 1.83301 25.5 5.5 34.5s9.33398 16.333 17.001 22 s17.667 10.167 30 13.5s27.166 6.66602 44.499 9.99902l49 8c24 4 43.167 11.167 57.5 21.5s26.333 22 36 35s18 26.333 25 40s14.667 26.334 23 38.001s18.333 21.167 30 28.5s27.5 11 47.5 11c27.333 0 49.166 -5.83301 65.499 -17.5s24.5 -33.834 24.5 -66.501v-690 c0 -33.333 -8 -59.833 -24 -79.5s-45 -29.5 -87 -29.5c-38.667 0 -66.667 9.83301 -84 29.5s-26 46.167 -26 79.5v436z"/>
    <glyph glyph-name="threequarters" unicode="¾" horiz-adv-x="1876" d="M1479 643h-4l-234 -297h238v297zM1479 186l-329.999 0.00195312c-17.333 0 -32.5 2.83301 -45.5 8.5s-23.667 12.834 -32 21.501s-14.5 18.167 -18.5 28.5s-6 20.166 -6 29.499c0 19.333 1.83301 34.666 5.5 45.999s8.5 20.666 14.5 27.999l385 469 c7.33301 8.66699 14.666 16.5 21.999 23.5s15.833 13 25.5 18s20.5 8.83301 32.5 11.5s26.333 4 43 4c32.667 0 59.667 -8.33301 81 -25s32 -39.667 32 -69v-434h49c22.667 0 40.5 -7.5 53.5 -22.5s19.5 -34.167 19.5 -57.5s-6.5 -42.5 -19.5 -57.5 s-30.833 -22.5 -53.5 -22.5h-49v-108c0 -25.333 -7.5 -46 -22.5 -62s-42.5 -24 -82.5 -24s-67.333 8 -82 24s-22 36.667 -22 62v108zM1260 1452c7.33301 13.333 17.166 26.1641 29.499 38.4971s28.833 18.5 49.5 18.5c11.333 0 21.833 -2 31.5 -6 s18.167 -9.16699 25.5 -15.5s13 -13.666 17 -21.999s6 -16.833 6 -25.5c0 -10.667 -1.83301 -21.667 -5.5 -33s-9.16699 -23.666 -16.5 -36.999l-738 -1393c-7.33301 -13.333 -17.166 -26.166 -29.499 -38.499s-28.833 -18.5 -49.5 -18.5c-11.333 0 -21.833 2 -31.5 6 s-18.167 9.33301 -25.5 16s-13 14.167 -17 22.5s-6 16.833 -6 25.5c0 18.667 7.33301 41.667 22 69zM31.001 778c0 25.333 9.00293 45.998 27.0029 61.998s42.333 24 73 24c20 0 35.333 -3.16699 46 -9.5s19.667 -14.166 27 -23.499s14.166 -19.5 20.499 -30.5 s14.666 -21.167 24.999 -30.5s24.166 -17.166 41.499 -23.499s41 -9.5 71 -9.5c25.333 0 47.333 3 66 9s34 14 46 24s21 21.5 27 34.5s9 26.833 9 41.5c0 13.333 -1.66699 25.833 -5 37.5s-9.33301 22 -18 31s-20.5 16.5 -35.5 22.5s-33.833 10.333 -56.5 13 c-9.33301 0.666992 -20.333 2 -33 4s-24.667 5.5 -36 10.5s-21 12 -29 21s-12 21.167 -12 36.5c0 18 2.5 32.5 7.5 43.5s12.5 19.667 22.5 26s22.167 10.666 36.5 12.999s30.833 4.16602 49.5 5.49902c30 2 52.167 11.167 66.5 27.5s21.5 37.166 21.5 62.499 c0 14 -3.16699 26.167 -9.5 36.5s-15 19 -26 26s-23.833 12.333 -38.5 16s-30 5.5 -46 5.5c-26 0 -47 -2.83301 -63 -8.5s-29.333 -12.834 -40 -21.501s-19.667 -18.167 -27 -28.5s-15 -19.833 -23 -28.5s-17.333 -15.834 -28 -21.501s-25 -8.5 -43 -8.5 c-25.333 0 -47.333 5.5 -66 16.5s-28 30.167 -28 57.5c0 24.667 5 47.334 15 68.001s23.333 38.834 40 54.501s36.167 29.334 58.5 41.001s45.5 21.334 69.5 29.001s48.5 13.334 73.5 17.001s48.833 5.5 71.5 5.5c60.667 0 112 -7 154 -21s76.167 -32.167 102.5 -54.5 s45.5 -47.833 57.5 -76.5s18 -57.667 18 -87c0 -39.333 -10.833 -73.166 -32.5 -101.499s-53.167 -51.166 -94.5 -68.499v-5c52 -11.333 89.5 -34 112.5 -68s34.5 -74 34.5 -120c0 -48.667 -9.66699 -91.167 -29 -127.5s-45.5 -66.5 -78.5 -90.5s-71.667 -41.833 -116 -53.5 s-91.833 -17.5 -142.5 -17.5c-64 0 -117.333 7.83301 -160 23.5s-77 34.667 -103 57s-44.333 45.666 -55 69.999s-16 45.166 -16 62.499z"/>
    <glyph glyph-name="questiondown" unicode="¿" horiz-adv-x="1176" d="M1087 -45c0 -50 -13.166 -98.0029 -39.499 -144.003s-61.666 -86.333 -105.999 -121s-95.333 -62.334 -153 -83.001s-117.834 -31 -180.501 -31c-65.333 0 -129.166 7.83301 -191.499 23.5s-117.833 40 -166.5 73s-87.834 75.5 -117.501 127.5s-44.5 114 -44.5 186 c0 44 7.66699 84 23 120s34.833 68.5 58.5 97.5s50 55.167 79 78.5s57.333 44.833 85 64.5l75 55c22.333 17 39.166 33.5 50.499 49.5c8 12 14.667 24.5 20 37.5l15.5 38.5c5 12.667 10.5 24.834 16.5 36.501s13.833 21.834 23.5 30.501s21.834 15.667 36.501 21 s33.334 8 56.001 8c22 0 41.167 -4.16699 57.5 -12.5s30 -19 41 -32s19.167 -27.667 24.5 -44s8 -32.833 8 -49.5c0 -40.667 -8.83301 -76.5 -26.5 -107.5s-39.834 -59.5 -66.501 -85.5s-55.5 -50.333 -86.5 -73s-59.833 -45.667 -86.5 -69s-48.834 -48.166 -66.501 -74.499 s-26.5 -56.166 -26.5 -89.499c0 -56 17.333 -99.333 52 -130s83 -46 145 -46c43.333 0 77.833 6.66699 103.5 20s46.334 30 62.001 50s28.167 41.667 37.5 65s20 45 32 65s27.167 36.667 45.5 50s44.166 20 77.499 20c18 0 35 -2.66699 51 -8s30.167 -13.333 42.5 -24 s22 -23.667 29 -39s10.5 -33.333 10.5 -54zM786.001 923.997c0 -23.333 -4.33301 -45.166 -13 -65.499s-20.667 -38.166 -36 -53.499s-33.166 -27.333 -53.499 -36s-42.166 -13 -65.499 -13s-45 4.33301 -65 13s-37.667 20.667 -53 36s-27.333 33.166 -36 53.499 s-13 42.166 -13 65.499c0 22.667 4.33301 44.334 13 65.001s20.667 38.5 36 53.5s33 27 53 36s41.667 13.5 65 13.5s45.166 -4.5 65.499 -13.5s38.166 -21 53.499 -36s27.333 -32.833 36 -53.5s13 -42.334 13 -65.001z"/>
    <glyph glyph-name="Agrave" unicode="À" horiz-adv-x="1415" d="M485 1399c14.667 38 35.3301 64.5 61.9971 79.5s60.667 22.5 102 22.5h80c18.667 0 36.834 -1.5 54.501 -4.5s34.334 -8.83301 50.001 -17.5s29.834 -21.167 42.501 -37.5s23.667 -37.5 33 -63.5l406 -1128c2.66699 -8 6 -17.5 10 -28.5s7.66699 -22.5 11 -34.5 s6.16602 -23.667 8.49902 -35s3.5 -21.666 3.5 -30.999c0 -20.667 -4.16699 -40 -12.5 -58s-19.666 -33.667 -33.999 -47s-31.166 -23.833 -50.499 -31.5s-39.666 -11.5 -60.999 -11.5c-37.333 0 -68.833 7.16699 -94.5 21.5s-44.834 38.166 -57.501 71.499l-86 245h-540 l-88 -245c-11.333 -33.333 -29.166 -57.166 -53.499 -71.499s-56.5 -21.5 -96.5 -21.5c-23.333 0 -44.5 3.5 -63.5 10.5s-35.333 17 -49 30s-24.334 28.5 -32.001 46.5s-11.5 38.333 -11.5 61c0 9.33301 1.16699 19.666 3.5 30.999s5.16602 23 8.49902 35 s6.83301 23.5 10.5 34.5s7.16699 20.5 10.5 28.5zM687.996 1137h-4l-199 -592h394zM662.996 1912c22.667 -18.667 38.332 -35 46.999 -49s13 -30.333 13 -49c0 -17.333 -3.33301 -32.333 -10 -45s-15 -23 -25 -31s-21.167 -14 -33.5 -18s-24.5 -6 -36.5 -6 c-5.33301 0 -10.666 0.333008 -15.999 1s-11.666 2.16699 -18.999 4.5s-15.833 5.83301 -25.5 10.5s-20.834 11.334 -33.501 20.001l-184 125c-24.667 16.667 -43.5 34.5 -56.5 53.5s-19.5 38.167 -19.5 57.5c0 10 2 21.667 6 35s10.333 25.666 19 36.999s20 21 34 29 s31.333 12 52 12c24.667 0 48.5 -7.5 71.5 -22.5s44.833 -30.833 65.5 -47.5z"/>
    <glyph glyph-name="Aacute" unicode="Á" horiz-adv-x="1415" d="M485 1399c14.667 38 35.3301 64.5 61.9971 79.5s60.667 22.5 102 22.5h80c18.667 0 36.834 -1.5 54.501 -4.5s34.334 -8.83301 50.001 -17.5s29.834 -21.167 42.501 -37.5s23.667 -37.5 33 -63.5l406 -1128c2.66699 -8 6 -17.5 10 -28.5s7.66699 -22.5 11 -34.5 s6.16602 -23.667 8.49902 -35s3.5 -21.666 3.5 -30.999c0 -20.667 -4.16699 -40 -12.5 -58s-19.666 -33.667 -33.999 -47s-31.166 -23.833 -50.499 -31.5s-39.666 -11.5 -60.999 -11.5c-37.333 0 -68.833 7.16699 -94.5 21.5s-44.834 38.166 -57.501 71.499l-86 245h-540 l-88 -245c-11.333 -33.333 -29.166 -57.166 -53.499 -71.499s-56.5 -21.5 -96.5 -21.5c-23.333 0 -44.5 3.5 -63.5 10.5s-35.333 17 -49 30s-24.334 28.5 -32.001 46.5s-11.5 38.333 -11.5 61c0 9.33301 1.16699 19.666 3.5 30.999s5.16602 23 8.49902 35 s6.83301 23.5 10.5 34.5s7.16699 20.5 10.5 28.5zM687.996 1137h-4l-199 -592h394zM606.996 2029c20 16.667 41.665 32.5 64.998 47.5s47.333 22.5 72 22.5c20.667 0 38 -4 52 -12s25.333 -17.667 34 -29s14.834 -23.666 18.501 -36.999s5.5 -25 5.5 -35 c0 -40 -25 -77 -75 -111l-185 -125c-12.667 -8.66699 -23.667 -15.334 -33 -20.001s-17.666 -8.16699 -24.999 -10.5s-13.833 -3.83301 -19.5 -4.5s-11.167 -1 -16.5 -1c-12 0 -24.167 2 -36.5 6s-23.5 10 -33.5 18s-18.167 18.333 -24.5 31s-9.5 27.667 -9.5 45 c0 18.667 4.16699 35 12.5 49s23.833 30.333 46.5 49z"/>
    <glyph glyph-name="Acircumflex" unicode="Â" horiz-adv-x="1415" d="M485 1399c14.667 38 35.3301 64.5 61.9971 79.5s60.667 22.5 102 22.5h80c18.667 0 36.834 -1.5 54.501 -4.5s34.334 -8.83301 50.001 -17.5s29.834 -21.167 42.501 -37.5s23.667 -37.5 33 -63.5l406 -1128c2.66699 -8 6 -17.5 10 -28.5s7.66699 -22.5 11 -34.5 s6.16602 -23.667 8.49902 -35s3.5 -21.666 3.5 -30.999c0 -20.667 -4.16699 -40 -12.5 -58s-19.666 -33.667 -33.999 -47s-31.166 -23.833 -50.499 -31.5s-39.666 -11.5 -60.999 -11.5c-37.333 0 -68.833 7.16699 -94.5 21.5s-44.834 38.166 -57.501 71.499l-86 245h-540 l-88 -245c-11.333 -33.333 -29.166 -57.166 -53.499 -71.499s-56.5 -21.5 -96.5 -21.5c-23.333 0 -44.5 3.5 -63.5 10.5s-35.333 17 -49 30s-24.334 28.5 -32.001 46.5s-11.5 38.333 -11.5 61c0 9.33301 1.16699 19.666 3.5 30.999s5.16602 23 8.49902 35 s6.83301 23.5 10.5 34.5s7.16699 20.5 10.5 28.5zM687.996 1137h-4l-199 -592h394zM482.996 1773c-11.333 -12 -21.5049 -21.667 -30.5049 -29s-17.5 -13.333 -25.5 -18s-16.333 -7.83398 -25 -9.50098s-18 -2.5 -28 -2.5s-20.333 2.5 -31 7.5s-20.5 12 -29.5 21 s-16.5 20 -22.5 33s-9 27.833 -9 44.5c0 10 5.16699 22.333 15.5 37s23 30.334 38 47.001s31.333 33.334 49 50.001l48.5 46c18.667 17.333 35.5 31.333 50.5 42s29.333 19 43 25s27.334 10 41.001 12s29.167 3 46.5 3c16.667 0 31.834 -1 45.501 -3s27.334 -6 41.001 -12 s27.834 -14.333 42.501 -25s31.667 -24.667 51 -42l48.5 -46c17.667 -16.667 34 -33.334 49 -50.001s27.667 -32.334 38 -47.001s15.5 -27 15.5 -37c0 -16.667 -3 -31.5 -9 -44.5s-13.5 -24 -22.5 -33s-18.833 -16 -29.5 -21s-21 -7.5 -31 -7.5s-19.167 0.833008 -27.5 2.5 s-16.666 4.83398 -24.999 9.50098s-16.833 10.667 -25.5 18s-18.667 17 -30 29l-131 131z"/>
    <glyph glyph-name="Atilde" unicode="Ã" horiz-adv-x="1415" d="M485 1399c14.667 38 35.3301 64.5 61.9971 79.5s60.667 22.5 102 22.5h80c18.667 0 36.834 -1.5 54.501 -4.5s34.334 -8.83301 50.001 -17.5s29.834 -21.167 42.501 -37.5s23.667 -37.5 33 -63.5l406 -1128c2.66699 -8 6 -17.5 10 -28.5s7.66699 -22.5 11 -34.5 s6.16602 -23.667 8.49902 -35s3.5 -21.666 3.5 -30.999c0 -20.667 -4.16699 -40 -12.5 -58s-19.666 -33.667 -33.999 -47s-31.166 -23.833 -50.499 -31.5s-39.666 -11.5 -60.999 -11.5c-37.333 0 -68.833 7.16699 -94.5 21.5s-44.834 38.166 -57.501 71.499l-86 245h-540 l-88 -245c-11.333 -33.333 -29.166 -57.166 -53.499 -71.499s-56.5 -21.5 -96.5 -21.5c-23.333 0 -44.5 3.5 -63.5 10.5s-35.333 17 -49 30s-24.334 28.5 -32.001 46.5s-11.5 38.333 -11.5 61c0 9.33301 1.16699 19.666 3.5 30.999s5.16602 23 8.49902 35 s6.83301 23.5 10.5 34.5s7.16699 20.5 10.5 28.5zM687.996 1137h-4l-199 -592h394zM359.996 1869c0 24 5.83594 46.498 17.5029 67.498s26.667 39.5 45 55.5s39 28.5 62 37.5s45.833 13.5 68.5 13.5c26.667 0 52.167 -3.66699 76.5 -11s47.833 -15.333 70.5 -24 c22.667 -9.33301 44.5 -17.666 65.5 -24.999s40.833 -11 59.5 -11c15.333 0 28.666 3.66699 39.999 11s23.333 15.666 36 24.999c11.333 8.66699 23.666 16.667 36.999 24s29.666 11 48.999 11c30.667 0 55.334 -6.83301 74.001 -20.5s28 -37.5 28 -71.5 c0 -24 -7 -47.333 -21 -70s-31.667 -43 -53 -61s-44.833 -32.333 -70.5 -43s-49.834 -16 -72.501 -16c-24 0 -48.5 3.83301 -73.5 11.5s-48.667 16 -71 25l-61.5 25c-18.667 7.66699 -34 11.5 -46 11.5c-16.667 0 -31.667 -3.83301 -45 -11.5s-26.166 -16 -38.499 -25 s-24.833 -17.333 -37.5 -25s-26.334 -11.5 -41.001 -11.5c-10.667 0 -21.834 1.83301 -33.501 5.5s-22.167 9.83398 -31.5 18.501s-17.166 19.834 -23.499 33.501s-9.5 30.5 -9.5 50.5z"/>
    <glyph glyph-name="Adieresis" unicode="Ä" horiz-adv-x="1415" d="M485 1399c14.667 38 35.3301 64.5 61.9971 79.5s60.667 22.5 102 22.5h80c18.667 0 36.834 -1.5 54.501 -4.5s34.334 -8.83301 50.001 -17.5s29.834 -21.167 42.501 -37.5s23.667 -37.5 33 -63.5l406 -1128c2.66699 -8 6 -17.5 10 -28.5s7.66699 -22.5 11 -34.5 s6.16602 -23.667 8.49902 -35s3.5 -21.666 3.5 -30.999c0 -20.667 -4.16699 -40 -12.5 -58s-19.666 -33.667 -33.999 -47s-31.166 -23.833 -50.499 -31.5s-39.666 -11.5 -60.999 -11.5c-37.333 0 -68.833 7.16699 -94.5 21.5s-44.834 38.166 -57.501 71.499l-86 245h-540 l-88 -245c-11.333 -33.333 -29.166 -57.166 -53.499 -71.499s-56.5 -21.5 -96.5 -21.5c-23.333 0 -44.5 3.5 -63.5 10.5s-35.333 17 -49 30s-24.334 28.5 -32.001 46.5s-11.5 38.333 -11.5 61c0 9.33301 1.16699 19.666 3.5 30.999s5.16602 23 8.49902 35 s6.83301 23.5 10.5 34.5s7.16699 20.5 10.5 28.5zM687.996 1137h-4l-199 -592h394zM261.996 1896c0 20.667 4 40 12 58s18.833 33.667 32.5 47s29.5 24 47.5 32s37.333 12 58 12s40 -4 58 -12s33.667 -18.667 47 -32s24 -29 32 -47s12 -37.333 12 -58s-4 -40 -12 -58 s-18.667 -33.833 -32 -47.5s-29 -24.5 -47 -32.5s-37.333 -12 -58 -12s-40 4 -58 12s-33.833 18.833 -47.5 32.5s-24.5 29.5 -32.5 47.5s-12 37.333 -12 58zM679.996 1896c0 20.667 4 40 12 58s18.833 33.667 32.5 47s29.5 24 47.5 32s37.333 12 58 12 c20 0 39.167 -4 57.5 -12s34.166 -18.667 47.499 -32s24 -29 32 -47s12 -37.333 12 -58s-4 -40 -12 -58s-18.667 -33.833 -32 -47.5s-29.166 -24.5 -47.499 -32.5s-37.5 -12 -57.5 -12c-20.667 0 -40 4 -58 12s-33.833 18.833 -47.5 32.5s-24.5 29.5 -32.5 47.5 s-12 37.333 -12 58z"/>
    <glyph glyph-name="Aring" unicode="Å" horiz-adv-x="1415" d="M485 1399c14.667 38 35.3301 64.5 61.9971 79.5s60.667 22.5 102 22.5h80c18.667 0 36.834 -1.5 54.501 -4.5s34.334 -8.83301 50.001 -17.5s29.834 -21.167 42.501 -37.5s23.667 -37.5 33 -63.5l406 -1128c2.66699 -8 6 -17.5 10 -28.5s7.66699 -22.5 11 -34.5 s6.16602 -23.667 8.49902 -35s3.5 -21.666 3.5 -30.999c0 -20.667 -4.16699 -40 -12.5 -58s-19.666 -33.667 -33.999 -47s-31.166 -23.833 -50.499 -31.5s-39.666 -11.5 -60.999 -11.5c-37.333 0 -68.833 7.16699 -94.5 21.5s-44.834 38.166 -57.501 71.499l-86 245h-540 l-88 -245c-11.333 -33.333 -29.166 -57.166 -53.499 -71.499s-56.5 -21.5 -96.5 -21.5c-23.333 0 -44.5 3.5 -63.5 10.5s-35.333 17 -49 30s-24.334 28.5 -32.001 46.5s-11.5 38.333 -11.5 61c0 9.33301 1.16699 19.666 3.5 30.999s5.16602 23 8.49902 35 s6.83301 23.5 10.5 34.5s7.16699 20.5 10.5 28.5zM687.996 1137h-4l-199 -592h394zM469.996 1823c0 30.667 5.83301 59.5 17.5 86.5s27.5 50.5 47.5 70.5s43.5 35.667 70.5 47s55.833 17 86.5 17s59.5 -5.66699 86.5 -17s50.5 -27 70.5 -47s35.667 -43.5 47 -70.5 s17 -55.833 17 -86.5s-5.66699 -59.5 -17 -86.5s-27 -50.5 -47 -70.5s-43.5 -35.667 -70.5 -47s-55.833 -17 -86.5 -17s-59.5 5.66699 -86.5 17s-50.5 27 -70.5 47s-35.833 43.5 -47.5 70.5s-17.5 55.833 -17.5 86.5zM584.996 1823c0 -14.667 2.83301 -28.5 8.5 -41.5 s13.167 -24.167 22.5 -33.5s20.5 -16.833 33.5 -22.5s27.167 -8.5 42.5 -8.5c30 0 55.167 10.167 75.5 30.5s30.5 45.5 30.5 75.5c0 14.667 -2.83301 28.667 -8.5 42s-13.167 24.666 -22.5 33.999s-20.5 16.833 -33.5 22.5s-26.833 8.5 -41.5 8.5 c-15.333 0 -29.5 -2.83301 -42.5 -8.5s-24.167 -13.167 -33.5 -22.5s-16.833 -20.666 -22.5 -33.999s-8.5 -27.333 -8.5 -42z"/>
    <glyph glyph-name="AE" unicode="Æ" horiz-adv-x="1972" d="M852 328l-457.003 0.00390625l-84 -248c-12 -37.333 -31.333 -64.5 -58 -81.5s-59 -25.5 -97 -25.5c-17.333 0 -35 2.66699 -53 8s-34.333 13.666 -49 24.999s-26.667 25.5 -36 42.5s-14 37.167 -14 60.5c0 21.333 2.5 42.333 7.5 63s10.833 39 17.5 55l397 1123 c8 22.667 16.833 42 26.5 58s20.834 29 33.501 39s27.334 17.167 44.001 21.5s36 6.5 58 6.5h1130c24.667 0 47.5 -2 68.5 -6s39 -11.167 54 -21.5s26.667 -24.333 35 -42s12.5 -39.834 12.5 -66.501s-4.16699 -48.667 -12.5 -66s-20 -31.166 -35 -41.499 s-33 -17.5 -54 -21.5s-43.833 -6 -68.5 -6h-530v-319h483c22 0 42.667 -1.83301 62 -5.5s36 -10.334 50 -20.001s25.167 -22.834 33.5 -39.501s12.5 -38 12.5 -64s-4.16699 -47.5 -12.5 -64.5s-19.5 -30.167 -33.5 -39.5s-30.667 -15.833 -50 -19.5s-40 -5.5 -62 -5.5h-483 v-357h547c24.667 0 47.334 -2 68.001 -6s38.5 -11.167 53.5 -21.5s26.833 -24.166 35.5 -41.499s13 -39.333 13 -66s-4.33301 -48.667 -13 -66s-20.5 -31.166 -35.5 -41.499s-32.833 -17.5 -53.5 -21.5s-43.334 -6 -68.001 -6h-686c-30 0 -57 3.16699 -81 9.5 s-44.667 17.166 -62 32.499s-30.666 35.666 -39.999 60.999s-14 56.666 -14 93.999v131zM851.997 1217h-158l-223 -656h381v656z"/>
    <glyph glyph-name="Ccedilla" unicode="Ç" horiz-adv-x="1539" d="M109 737c0 104 15.168 202.667 45.501 296s75.666 175.333 135.999 246s135.5 126.667 225.5 168s194.333 62 313 62c64 0 123.167 -6.16699 177.5 -18.5s103.666 -28.833 147.999 -49.5s83.333 -44.167 117 -70.5s61.834 -53.833 84.501 -82.5 s39.834 -57.167 51.501 -85.5s17.5 -54.5 17.5 -78.5c0 -47.333 -12.667 -84.333 -38 -111s-63 -40 -113 -40c-32.667 0 -59.167 6.5 -79.5 19.5s-38.333 29.5 -54 49.5s-31.167 41.333 -46.5 64s-34 44 -56 64s-49.5 36.5 -82.5 49.5s-75.167 19.5 -126.5 19.5 c-52.667 0 -102.334 -11.167 -149.001 -33.5s-87.5 -54.833 -122.5 -97.5s-62.667 -95.167 -83 -157.5s-30.5 -133.5 -30.5 -213.5c0 -67.333 7.16699 -131.166 21.5 -191.499s37.166 -113.5 68.499 -159.5s72.333 -82.5 123 -109.5s112.334 -40.5 185.001 -40.5 c44 0 81.167 7 111.5 21s56.5 31.333 78.5 52s41.333 43.334 58 68.001s33.167 47.334 49.5 68.001s34 38 53 52s42.167 21 69.5 21c20 0 39.833 -2.83301 59.5 -8.5s37.167 -14 52.5 -25s27.666 -24.5 36.999 -40.5s14 -34.333 14 -55 c0 -35.333 -6.83301 -70.333 -20.5 -105s-33.167 -67.834 -58.5 -99.501s-55.666 -60.834 -90.999 -87.501s-74.5 -49.834 -117.5 -69.501s-89.5 -35 -139.5 -46s-102 -16.5 -156 -16.5c-115.333 0 -218.333 16.333 -309 49s-167.5 81.5 -230.5 146.5s-111 145.5 -144 241.5 s-49.5 207.667 -49.5 335zM815.001 0l113.999 0.000976562l-76 -113h15c26.667 0 51.834 -2.66699 75.501 -8s44 -13.833 61 -25.5s30.5 -26.5 40.5 -44.5s15 -39.667 15 -65c0 -28.667 -6.83301 -54.334 -20.5 -77.001s-32 -41.667 -55 -57s-49.5 -27.166 -79.5 -35.499 s-61 -12.5 -93 -12.5c-30.667 0 -56.667 2.5 -78 7.5s-38.833 11.5 -52.5 19.5s-23.667 17 -30 27s-9.5 20 -9.5 30c0 13.333 4.66699 25.5 14 36.5s21.333 16.5 36 16.5c5.33301 0 12.333 -1.16699 21 -3.5s18 -5 28 -8s20.5 -5.66699 31.5 -8s21.5 -3.5 31.5 -3.5 c22.667 0 40.334 6.16699 53.001 18.5s19 28.166 19 47.499c0 15.333 -3.83301 28 -11.5 38s-20.834 15 -39.501 15c-14.667 0 -27.167 -1 -37.5 -3s-19.833 -3 -28.5 -3c-18.667 0 -31.167 3.66699 -37.5 11s-9.5 17.333 -9.5 30c0 7.33301 2.5 15.333 7.5 24 s10.167 17 15.5 25z"/>
    <glyph glyph-name="Egrave" unicode="È" horiz-adv-x="1444" d="M164 1278c0 37.333 4.66699 68.5029 14 93.5029s22.5 45.167 39.5 60.5s37.667 26.333 62 33s51.166 10 80.499 10h789c24.667 0 47.334 -2 68.001 -6s38.5 -11.167 53.5 -21.5s26.833 -24.333 35.5 -42s13 -39.834 13 -66.501s-4.33301 -48.667 -13 -66 s-20.5 -31.166 -35.5 -41.499s-32.833 -17.5 -53.5 -21.5s-43.334 -6 -68.001 -6h-649v-319h569c22 0 42.667 -1.83301 62 -5.5s36 -10.334 50 -20.001s25.167 -22.834 33.5 -39.501s12.5 -38 12.5 -64s-4.16699 -47.5 -12.5 -64.5s-19.5 -30.167 -33.5 -39.5 s-30.667 -15.833 -50 -19.5s-40 -5.5 -62 -5.5h-569v-357h665c24.667 0 47.5 -2 68.5 -6s39 -11.167 54 -21.5s26.667 -24.166 35 -41.499s12.5 -39.333 12.5 -66s-4.16699 -48.667 -12.5 -66s-20 -31.166 -35 -41.499s-33 -17.5 -54 -21.5s-43.833 -6 -68.5 -6h-805 c-29.333 0 -56.166 3.16699 -80.499 9.5s-45 17.166 -62 32.499s-30.167 35.666 -39.5 60.999s-14 56.666 -14 93.999v1081zM905 1912c22.667 -18.667 38.332 -35 46.999 -49s13 -30.333 13 -49c0 -17.333 -3.33301 -32.333 -10 -45s-15 -23 -25 -31s-21.167 -14 -33.5 -18 s-24.5 -6 -36.5 -6c-5.33301 0 -10.666 0.333008 -15.999 1s-11.666 2.16699 -18.999 4.5s-15.833 5.83301 -25.5 10.5s-20.834 11.334 -33.501 20.001l-184 125c-24.667 16.667 -43.5 34.5 -56.5 53.5s-19.5 38.167 -19.5 57.5c0 10 2 21.667 6 35s10.333 25.666 19 36.999 s20 21 34 29s31.333 12 52 12c24.667 0 48.5 -7.5 71.5 -22.5s44.833 -30.833 65.5 -47.5z"/>
    <glyph glyph-name="Eacute" unicode="É" horiz-adv-x="1426" d="M164 1278c0 37.333 4.66699 68.5029 14 93.5029s22.5 45.167 39.5 60.5s37.667 26.333 62 33s51.166 10 80.499 10h789c24.667 0 47.334 -2 68.001 -6s38.5 -11.167 53.5 -21.5s26.833 -24.333 35.5 -42s13 -39.834 13 -66.501s-4.33301 -48.667 -13 -66 s-20.5 -31.166 -35.5 -41.499s-32.833 -17.5 -53.5 -21.5s-43.334 -6 -68.001 -6h-649v-319h569c22 0 42.667 -1.83301 62 -5.5s36 -10.334 50 -20.001s25.167 -22.834 33.5 -39.501s12.5 -38 12.5 -64s-4.16699 -47.5 -12.5 -64.5s-19.5 -30.167 -33.5 -39.5 s-30.667 -15.833 -50 -19.5s-40 -5.5 -62 -5.5h-569v-357h665c24.667 0 47.5 -2 68.5 -6s39 -11.167 54 -21.5s26.667 -24.166 35 -41.499s12.5 -39.333 12.5 -66s-4.16699 -48.667 -12.5 -66s-20 -31.166 -35 -41.499s-33 -17.5 -54 -21.5s-43.833 -6 -68.5 -6h-805 c-29.333 0 -56.166 3.16699 -80.499 9.5s-45 17.166 -62 32.499s-30.167 35.666 -39.5 60.999s-14 56.666 -14 93.999v1081zM769 2029c20 16.667 41.665 32.5 64.998 47.5s47.333 22.5 72 22.5c20.667 0 38 -4 52 -12s25.333 -17.667 34 -29s14.834 -23.666 18.501 -36.999 s5.5 -25 5.5 -35c0 -40 -25 -77 -75 -111l-185 -125c-12.667 -8.66699 -23.667 -15.334 -33 -20.001s-17.666 -8.16699 -24.999 -10.5s-13.833 -3.83301 -19.5 -4.5s-11.167 -1 -16.5 -1c-12 0 -24.167 2 -36.5 6s-23.5 10 -33.5 18s-18.167 18.333 -24.5 31 s-9.5 27.667 -9.5 45c0 18.667 4.16699 35 12.5 49s23.833 30.333 46.5 49z"/>
    <glyph glyph-name="Ecircumflex" unicode="Ê" horiz-adv-x="1468" d="M164 1278c0 37.333 4.66699 68.5029 14 93.5029s22.5 45.167 39.5 60.5s37.667 26.333 62 33s51.166 10 80.499 10h789c24.667 0 47.334 -2 68.001 -6s38.5 -11.167 53.5 -21.5s26.833 -24.333 35.5 -42s13 -39.834 13 -66.501s-4.33301 -48.667 -13 -66 s-20.5 -31.166 -35.5 -41.499s-32.833 -17.5 -53.5 -21.5s-43.334 -6 -68.001 -6h-649v-319h569c22 0 42.667 -1.83301 62 -5.5s36 -10.334 50 -20.001s25.167 -22.834 33.5 -39.501s12.5 -38 12.5 -64s-4.16699 -47.5 -12.5 -64.5s-19.5 -30.167 -33.5 -39.5 s-30.667 -15.833 -50 -19.5s-40 -5.5 -62 -5.5h-569v-357h665c24.667 0 47.5 -2 68.5 -6s39 -11.167 54 -21.5s26.667 -24.166 35 -41.499s12.5 -39.333 12.5 -66s-4.16699 -48.667 -12.5 -66s-20 -31.166 -35 -41.499s-33 -17.5 -54 -21.5s-43.833 -6 -68.5 -6h-805 c-29.333 0 -56.166 3.16699 -80.499 9.5s-45 17.166 -62 32.499s-30.167 35.666 -39.5 60.999s-14 56.666 -14 93.999v1081zM622 1773c-11.333 -12 -21.5049 -21.667 -30.5049 -29s-17.5 -13.333 -25.5 -18s-16.333 -7.83398 -25 -9.50098s-18 -2.5 -28 -2.5 s-20.333 2.5 -31 7.5s-20.5 12 -29.5 21s-16.5 20 -22.5 33s-9 27.833 -9 44.5c0 10 5.16699 22.333 15.5 37s23 30.334 38 47.001s31.333 33.334 49 50.001l48.5 46c18.667 17.333 35.5 31.333 50.5 42s29.333 19 43 25s27.334 10 41.001 12s29.167 3 46.5 3 c16.667 0 31.834 -1 45.501 -3s27.334 -6 41.001 -12s27.834 -14.333 42.501 -25s31.667 -24.667 51 -42l48.5 -46c17.667 -16.667 34 -33.334 49 -50.001s27.667 -32.334 38 -47.001s15.5 -27 15.5 -37c0 -16.667 -3 -31.5 -9 -44.5s-13.5 -24 -22.5 -33 s-18.833 -16 -29.5 -21s-21 -7.5 -31 -7.5s-19.167 0.833008 -27.5 2.5s-16.666 4.83398 -24.999 9.50098s-16.833 10.667 -25.5 18s-18.667 17 -30 29l-131 131z"/>
    <glyph glyph-name="Edieresis" unicode="Ë" horiz-adv-x="1444" d="M164 1278c0 37.333 4.66699 68.5029 14 93.5029s22.5 45.167 39.5 60.5s37.667 26.333 62 33s51.166 10 80.499 10h789c24.667 0 47.334 -2 68.001 -6s38.5 -11.167 53.5 -21.5s26.833 -24.333 35.5 -42s13 -39.834 13 -66.501s-4.33301 -48.667 -13 -66 s-20.5 -31.166 -35.5 -41.499s-32.833 -17.5 -53.5 -21.5s-43.334 -6 -68.001 -6h-649v-319h569c22 0 42.667 -1.83301 62 -5.5s36 -10.334 50 -20.001s25.167 -22.834 33.5 -39.501s12.5 -38 12.5 -64s-4.16699 -47.5 -12.5 -64.5s-19.5 -30.167 -33.5 -39.5 s-30.667 -15.833 -50 -19.5s-40 -5.5 -62 -5.5h-569v-357h665c24.667 0 47.5 -2 68.5 -6s39 -11.167 54 -21.5s26.667 -24.166 35 -41.499s12.5 -39.333 12.5 -66s-4.16699 -48.667 -12.5 -66s-20 -31.166 -35 -41.499s-33 -17.5 -54 -21.5s-43.833 -6 -68.5 -6h-805 c-29.333 0 -56.166 3.16699 -80.499 9.5s-45 17.166 -62 32.499s-30.167 35.666 -39.5 60.999s-14 56.666 -14 93.999v1081zM344 1896c0 20.667 4 40 12 58s18.833 33.667 32.5 47s29.5 24 47.5 32s37.333 12 58 12s40 -4 58 -12s33.667 -18.667 47 -32s24 -29 32 -47 s12 -37.333 12 -58s-4 -40 -12 -58s-18.667 -33.833 -32 -47.5s-29 -24.5 -47 -32.5s-37.333 -12 -58 -12s-40 4 -58 12s-33.833 18.833 -47.5 32.5s-24.5 29.5 -32.5 47.5s-12 37.333 -12 58zM762 1896c0 20.667 4 40 12 58s18.833 33.667 32.5 47s29.5 24 47.5 32 s37.333 12 58 12c20 0 39.167 -4 57.5 -12s34.166 -18.667 47.499 -32s24 -29 32 -47s12 -37.333 12 -58s-4 -40 -12 -58s-18.667 -33.833 -32 -47.5s-29.166 -24.5 -47.499 -32.5s-37.5 -12 -57.5 -12c-20.667 0 -40 4 -58 12s-33.833 18.833 -47.5 32.5 s-24.5 29.5 -32.5 47.5s-12 37.333 -12 58z"/>
    <glyph glyph-name="Igrave" unicode="Ì" horiz-adv-x="657" d="M156 1333c0 50.667 15.002 91.334 45.002 122.001s71 46 123 46c51.333 0 92.166 -15.333 122.499 -46s45.5 -71.334 45.5 -122.001v-1192c0 -25.333 -4 -48.166 -12 -68.499s-19.333 -38 -34 -53s-32.334 -26.5 -53.001 -34.5s-43.667 -12 -69 -12 c-26 0 -49.333 4 -70 12s-38.167 19.5 -52.5 34.5s-25.5 32.667 -33.5 53s-12 43.166 -12 68.499v1192zM473.002 1912c22.667 -18.667 38.332 -35 46.999 -49s13 -30.333 13 -49c0 -17.333 -3.33301 -32.333 -10 -45s-15 -23 -25 -31s-21.167 -14 -33.5 -18 s-24.5 -6 -36.5 -6c-5.33301 0 -10.666 0.333008 -15.999 1s-11.666 2.16699 -18.999 4.5s-15.833 5.83301 -25.5 10.5s-20.834 11.334 -33.501 20.001l-184 125c-24.667 16.667 -43.5 34.5 -56.5 53.5s-19.5 38.167 -19.5 57.5c0 10 2 21.667 6 35s10.333 25.666 19 36.999 s20 21 34 29s31.333 12 52 12c24.667 0 48.5 -7.5 71.5 -22.5s44.833 -30.833 65.5 -47.5z"/>
    <glyph glyph-name="Iacute" unicode="Í" horiz-adv-x="645" d="M156 1333c0 50.667 15.002 91.334 45.002 122.001s71 46 123 46c51.333 0 92.166 -15.333 122.499 -46s45.5 -71.334 45.5 -122.001v-1192c0 -25.333 -4 -48.166 -12 -68.499s-19.333 -38 -34 -53s-32.334 -26.5 -53.001 -34.5s-43.667 -12 -69 -12 c-26 0 -49.333 4 -70 12s-38.167 19.5 -52.5 34.5s-25.5 32.667 -33.5 53s-12 43.166 -12 68.499v1192zM302.002 2029c20 16.667 41.665 32.5 64.998 47.5s47.333 22.5 72 22.5c20.667 0 38 -4 52 -12s25.333 -17.667 34 -29s14.834 -23.666 18.501 -36.999s5.5 -25 5.5 -35 c0 -40 -25 -77 -75 -111l-185 -125c-12.667 -8.66699 -23.667 -15.334 -33 -20.001s-17.666 -8.16699 -24.999 -10.5s-13.833 -3.83301 -19.5 -4.5s-11.167 -1 -16.5 -1c-12 0 -24.167 2 -36.5 6s-23.5 10 -33.5 18s-18.167 18.333 -24.5 31s-9.5 27.667 -9.5 45 c0 18.667 4.16699 35 12.5 49s23.833 30.333 46.5 49z"/>
    <glyph glyph-name="Icircumflex" unicode="Î" horiz-adv-x="615" d="M156 1333c0 50.667 15.002 91.334 45.002 122.001s71 46 123 46c51.333 0 92.166 -15.333 122.499 -46s45.5 -71.334 45.5 -122.001v-1192c0 -25.333 -4 -48.166 -12 -68.499s-19.333 -38 -34 -53s-32.334 -26.5 -53.001 -34.5s-43.667 -12 -69 -12 c-26 0 -49.333 4 -70 12s-38.167 19.5 -52.5 34.5s-25.5 32.667 -33.5 53s-12 43.166 -12 68.499v1192zM175.002 1773c-11.333 -12 -21.5049 -21.667 -30.5049 -29s-17.5 -13.333 -25.5 -18s-16.333 -7.83398 -25 -9.50098s-18 -2.5 -28 -2.5s-20.333 2.5 -31 7.5 s-20.5 12 -29.5 21s-16.5 20 -22.5 33s-9 27.833 -9 44.5c0 10 5.16699 22.333 15.5 37s23 30.334 38 47.001s31.333 33.334 49 50.001l48.5 46c18.667 17.333 35.5 31.333 50.5 42s29.333 19 43 25s27.334 10 41.001 12s29.167 3 46.5 3c16.667 0 31.834 -1 45.501 -3 s27.334 -6 41.001 -12s27.834 -14.333 42.501 -25s31.667 -24.667 51 -42l48.5 -46c17.667 -16.667 34 -33.334 49 -50.001s27.667 -32.334 38 -47.001s15.5 -27 15.5 -37c0 -16.667 -3 -31.5 -9 -44.5s-13.5 -24 -22.5 -33s-18.833 -16 -29.5 -21s-21 -7.5 -31 -7.5 s-19.167 0.833008 -27.5 2.5s-16.666 4.83398 -24.999 9.50098s-16.833 10.667 -25.5 18s-18.667 17 -30 29l-131 131z"/>
    <glyph glyph-name="Idieresis" unicode="Ï" horiz-adv-x="639" d="M156 1333c0 50.667 15.002 91.334 45.002 122.001s71 46 123 46c51.333 0 92.166 -15.333 122.499 -46s45.5 -71.334 45.5 -122.001v-1192c0 -25.333 -4 -48.166 -12 -68.499s-19.333 -38 -34 -53s-32.334 -26.5 -53.001 -34.5s-43.667 -12 -69 -12 c-26 0 -49.333 4 -70 12s-38.167 19.5 -52.5 34.5s-25.5 32.667 -33.5 53s-12 43.166 -12 68.499v1192zM-40.998 1896c0 20.667 4 40 12 58s18.833 33.667 32.5 47s29.5 24 47.5 32s37.333 12 58 12s40 -4 58 -12s33.667 -18.667 47 -32s24 -29 32 -47s12 -37.333 12 -58 s-4 -40 -12 -58s-18.667 -33.833 -32 -47.5s-29 -24.5 -47 -32.5s-37.333 -12 -58 -12s-40 4 -58 12s-33.833 18.833 -47.5 32.5s-24.5 29.5 -32.5 47.5s-12 37.333 -12 58zM377.002 1896c0 20.667 4 40 12 58s18.833 33.667 32.5 47s29.5 24 47.5 32s37.333 12 58 12 c20 0 39.167 -4 57.5 -12s34.166 -18.667 47.499 -32s24 -29 32 -47s12 -37.333 12 -58s-4 -40 -12 -58s-18.667 -33.833 -32 -47.5s-29.166 -24.5 -47.499 -32.5s-37.5 -12 -57.5 -12c-20.667 0 -40 4 -58 12s-33.833 18.833 -47.5 32.5s-24.5 29.5 -32.5 47.5 s-12 37.333 -12 58z"/>
    <glyph glyph-name="Eth" unicode="Ð" horiz-adv-x="1554" d="M492 844l267.999 -0.000976562c30.667 0 54.334 -7.66699 71.001 -23s25 -38.333 25 -69c0 -31.333 -8.33301 -54.666 -25 -69.999s-40.334 -23 -71.001 -23h-268v-389h282c66.667 0 122.667 13.667 168 41s81.833 63.166 109.5 107.499s47.334 94.333 59.001 150 s17.5 111.834 17.5 168.501c0 72.667 -7 137.834 -21 195.501s-35.5 106.667 -64.5 147s-66 71.166 -111 92.499s-98.167 32 -159.5 32h-280v-360zM155.999 658.999l-72.001 0.00488281c-30.667 0 -54.334 7.66699 -71.001 23s-25 38.666 -25 69.999 c0 30.667 8.33301 53.667 25 69s40.334 23 71.001 23h72v434c0 37.333 4.66699 68.5 14 93.5s22.5 45.167 39.5 60.5s37.5 26.333 61.5 33s51 10 81 10h410c60.667 0 120.334 -4.83301 179.001 -14.5s114 -25.834 166 -48.501s99.833 -52.5 143.5 -89.5 s81.334 -82.833 113.001 -137.5s56.334 -119 74.001 -193s26.5 -159 26.5 -255c0 -116.667 -15.833 -220.667 -47.5 -312s-77.834 -168.5 -138.501 -231.5s-134.834 -111 -222.501 -144s-187.5 -49.5 -299.5 -49.5h-404c-30 0 -57 3.16699 -81 9.5 s-44.5 17.166 -61.5 32.499s-30.167 35.666 -39.5 60.999s-14 56.666 -14 93.999v462z"/>
    <glyph glyph-name="Ntilde" unicode="Ñ" horiz-adv-x="1617" d="M150 1305c0 70 17.0039 120.166 51.0039 150.499s87 45.5 159 45.5c35.333 0 67.666 -6.83301 96.999 -20.5s53 -36.167 71 -67.5l588 -948h4v874c0 54.667 14.5 95.334 43.5 122.001s68.5 40 118.5 40s89.5 -13.333 118.5 -40s43.5 -67.334 43.5 -122.001v-1157 c0 -66.667 -15.5 -118.167 -46.5 -154.5s-81.833 -54.5 -152.5 -54.5c-26.667 0 -49.167 1.5 -67.5 4.5s-34.333 8 -48 15s-25.834 16.333 -36.501 28s-21.334 25.834 -32.001 42.501l-584 922h-4v-850c0 -54 -14.333 -94.5 -43 -121.5s-68.334 -40.5 -119.001 -40.5 c-50 0 -89.333 13.5 -118 40.5s-43 67.5 -43 121.5v1170zM349.004 1869c0 24 5.83594 46.498 17.5029 67.498s26.667 39.5 45 55.5s39 28.5 62 37.5s45.833 13.5 68.5 13.5c26.667 0 52.167 -3.66699 76.5 -11s47.833 -15.333 70.5 -24 c22.667 -9.33301 44.5 -17.666 65.5 -24.999s40.833 -11 59.5 -11c15.333 0 28.666 3.66699 39.999 11s23.333 15.666 36 24.999c11.333 8.66699 23.666 16.667 36.999 24s29.666 11 48.999 11c30.667 0 55.334 -6.83301 74.001 -20.5s28 -37.5 28 -71.5 c0 -24 -7 -47.333 -21 -70s-31.667 -43 -53 -61s-44.833 -32.333 -70.5 -43s-49.834 -16 -72.501 -16c-24 0 -48.5 3.83301 -73.5 11.5s-48.667 16 -71 25l-61.5 25c-18.667 7.66699 -34 11.5 -46 11.5c-16.667 0 -31.667 -3.83301 -45 -11.5s-26.166 -16 -38.499 -25 s-24.833 -17.333 -37.5 -25s-26.334 -11.5 -41.001 -11.5c-10.667 0 -21.834 1.83301 -33.501 5.5s-22.167 9.83398 -31.5 18.501s-17.166 19.834 -23.499 33.501s-9.5 30.5 -9.5 50.5z"/>
    <glyph glyph-name="Ograve" unicode="Ò" horiz-adv-x="1458" d="M90 756c0 108 16.165 208.001 48.498 300.001s80 171.5 143 238.5s140.833 119.5 233.5 157.5s199.667 57 321 57c120.667 0 227.334 -19 320.001 -57s170.5 -90.5 233.5 -157.5s110.667 -146.5 143 -238.5s48.5 -192 48.5 -300c0 -69.333 -6.83301 -137 -20.5 -203 s-34 -128.333 -61 -187s-61.167 -112.5 -102.5 -161.5s-89.5 -91.333 -144.5 -127s-117.167 -63.334 -186.5 -83.001s-146 -29.5 -230 -29.5c-132 0 -245.167 20.167 -339.5 60.5s-171.666 96 -231.999 167s-104.5 154.667 -132.5 251s-42 200.5 -42 312.5zM425.998 756.001 c0 -70.667 6.50098 -137.5 19.501 -200.5s35.333 -118.167 67 -165.5s73.667 -84.833 126 -112.5s118.166 -41.5 197.499 -41.5c76 0 140.167 13.833 192.5 41.5s94.5 65.167 126.5 112.5s55 102.5 69 165.5s21 129.833 21 200.5s-8.5 135.5 -25.5 194.5 s-42.5 109.833 -76.5 152.5s-76.5 76 -127.5 100s-110.833 36 -179.5 36s-128.667 -12 -180 -36s-94 -57.333 -128 -100s-59.5 -93.5 -76.5 -152.5s-25.5 -123.833 -25.5 -194.5zM902.999 1912c22.667 -18.667 38.332 -35 46.999 -49s13 -30.333 13 -49 c0 -17.333 -3.33301 -32.333 -10 -45s-15 -23 -25 -31s-21.167 -14 -33.5 -18s-24.5 -6 -36.5 -6c-5.33301 0 -10.666 0.333008 -15.999 1s-11.666 2.16699 -18.999 4.5s-15.833 5.83301 -25.5 10.5s-20.834 11.334 -33.501 20.001l-184 125 c-24.667 16.667 -43.5 34.5 -56.5 53.5s-19.5 38.167 -19.5 57.5c0 10 2 21.667 6 35s10.333 25.666 19 36.999s20 21 34 29s31.333 12 52 12c24.667 0 48.5 -7.5 71.5 -22.5s44.833 -30.833 65.5 -47.5z"/>
    <glyph glyph-name="Oacute" unicode="Ó" horiz-adv-x="1675" d="M90 756c0 108 16.165 208.001 48.498 300.001s80 171.5 143 238.5s140.833 119.5 233.5 157.5s199.667 57 321 57c120.667 0 227.334 -19 320.001 -57s170.5 -90.5 233.5 -157.5s110.667 -146.5 143 -238.5s48.5 -192 48.5 -300c0 -69.333 -6.83301 -137 -20.5 -203 s-34 -128.333 -61 -187s-61.167 -112.5 -102.5 -161.5s-89.5 -91.333 -144.5 -127s-117.167 -63.334 -186.5 -83.001s-146 -29.5 -230 -29.5c-132 0 -245.167 20.167 -339.5 60.5s-171.666 96 -231.999 167s-104.5 154.667 -132.5 251s-42 200.5 -42 312.5zM425.998 756.001 c0 -70.667 6.50098 -137.5 19.501 -200.5s35.333 -118.167 67 -165.5s73.667 -84.833 126 -112.5s118.166 -41.5 197.499 -41.5c76 0 140.167 13.833 192.5 41.5s94.5 65.167 126.5 112.5s55 102.5 69 165.5s21 129.833 21 200.5s-8.5 135.5 -25.5 194.5 s-42.5 109.833 -76.5 152.5s-76.5 76 -127.5 100s-110.833 36 -179.5 36s-128.667 -12 -180 -36s-94 -57.333 -128 -100s-59.5 -93.5 -76.5 -152.5s-25.5 -123.833 -25.5 -194.5zM813.999 2029c20 16.667 41.665 32.5 64.998 47.5s47.333 22.5 72 22.5 c20.667 0 38 -4 52 -12s25.333 -17.667 34 -29s14.834 -23.666 18.501 -36.999s5.5 -25 5.5 -35c0 -40 -25 -77 -75 -111l-185 -125c-12.667 -8.66699 -23.667 -15.334 -33 -20.001s-17.666 -8.16699 -24.999 -10.5s-13.833 -3.83301 -19.5 -4.5s-11.167 -1 -16.5 -1 c-12 0 -24.167 2 -36.5 6s-23.5 10 -33.5 18s-18.167 18.333 -24.5 31s-9.5 27.667 -9.5 45c0 18.667 4.16699 35 12.5 49s23.833 30.333 46.5 49z"/>
    <glyph glyph-name="Ocircumflex" unicode="Ô" horiz-adv-x="1645" d="M90 756c0 108 16.165 208.001 48.498 300.001s80 171.5 143 238.5s140.833 119.5 233.5 157.5s199.667 57 321 57c120.667 0 227.334 -19 320.001 -57s170.5 -90.5 233.5 -157.5s110.667 -146.5 143 -238.5s48.5 -192 48.5 -300c0 -69.333 -6.83301 -137 -20.5 -203 s-34 -128.333 -61 -187s-61.167 -112.5 -102.5 -161.5s-89.5 -91.333 -144.5 -127s-117.167 -63.334 -186.5 -83.001s-146 -29.5 -230 -29.5c-132 0 -245.167 20.167 -339.5 60.5s-171.666 96 -231.999 167s-104.5 154.667 -132.5 251s-42 200.5 -42 312.5zM425.998 756.001 c0 -70.667 6.50098 -137.5 19.501 -200.5s35.333 -118.167 67 -165.5s73.667 -84.833 126 -112.5s118.166 -41.5 197.499 -41.5c76 0 140.167 13.833 192.5 41.5s94.5 65.167 126.5 112.5s55 102.5 69 165.5s21 129.833 21 200.5s-8.5 135.5 -25.5 194.5 s-42.5 109.833 -76.5 152.5s-76.5 76 -127.5 100s-110.833 36 -179.5 36s-128.667 -12 -180 -36s-94 -57.333 -128 -100s-59.5 -93.5 -76.5 -152.5s-25.5 -123.833 -25.5 -194.5zM712.999 1773c-11.333 -12 -21.5049 -21.667 -30.5049 -29s-17.5 -13.333 -25.5 -18 s-16.333 -7.83398 -25 -9.50098s-18 -2.5 -28 -2.5s-20.333 2.5 -31 7.5s-20.5 12 -29.5 21s-16.5 20 -22.5 33s-9 27.833 -9 44.5c0 10 5.16699 22.333 15.5 37s23 30.334 38 47.001s31.333 33.334 49 50.001l48.5 46c18.667 17.333 35.5 31.333 50.5 42s29.333 19 43 25 s27.334 10 41.001 12s29.167 3 46.5 3c16.667 0 31.834 -1 45.501 -3s27.334 -6 41.001 -12s27.834 -14.333 42.501 -25s31.667 -24.667 51 -42l48.5 -46c17.667 -16.667 34 -33.334 49 -50.001s27.667 -32.334 38 -47.001s15.5 -27 15.5 -37c0 -16.667 -3 -31.5 -9 -44.5 s-13.5 -24 -22.5 -33s-18.833 -16 -29.5 -21s-21 -7.5 -31 -7.5s-19.167 0.833008 -27.5 2.5s-16.666 4.83398 -24.999 9.50098s-16.833 10.667 -25.5 18s-18.667 17 -30 29l-131 131z"/>
    <glyph glyph-name="Otilde" unicode="Õ" horiz-adv-x="1681" d="M90 756c0 108 16.165 208.001 48.498 300.001s80 171.5 143 238.5s140.833 119.5 233.5 157.5s199.667 57 321 57c120.667 0 227.334 -19 320.001 -57s170.5 -90.5 233.5 -157.5s110.667 -146.5 143 -238.5s48.5 -192 48.5 -300c0 -69.333 -6.83301 -137 -20.5 -203 s-34 -128.333 -61 -187s-61.167 -112.5 -102.5 -161.5s-89.5 -91.333 -144.5 -127s-117.167 -63.334 -186.5 -83.001s-146 -29.5 -230 -29.5c-132 0 -245.167 20.167 -339.5 60.5s-171.666 96 -231.999 167s-104.5 154.667 -132.5 251s-42 200.5 -42 312.5zM425.998 756.001 c0 -70.667 6.50098 -137.5 19.501 -200.5s35.333 -118.167 67 -165.5s73.667 -84.833 126 -112.5s118.166 -41.5 197.499 -41.5c76 0 140.167 13.833 192.5 41.5s94.5 65.167 126.5 112.5s55 102.5 69 165.5s21 129.833 21 200.5s-8.5 135.5 -25.5 194.5 s-42.5 109.833 -76.5 152.5s-76.5 76 -127.5 100s-110.833 36 -179.5 36s-128.667 -12 -180 -36s-94 -57.333 -128 -100s-59.5 -93.5 -76.5 -152.5s-25.5 -123.833 -25.5 -194.5zM456.999 1869c0 24 5.83594 46.498 17.5029 67.498s26.667 39.5 45 55.5s39 28.5 62 37.5 s45.833 13.5 68.5 13.5c26.667 0 52.167 -3.66699 76.5 -11s47.833 -15.333 70.5 -24c22.667 -9.33301 44.5 -17.666 65.5 -24.999s40.833 -11 59.5 -11c15.333 0 28.666 3.66699 39.999 11s23.333 15.666 36 24.999c11.333 8.66699 23.666 16.667 36.999 24 s29.666 11 48.999 11c30.667 0 55.334 -6.83301 74.001 -20.5s28 -37.5 28 -71.5c0 -24 -7 -47.333 -21 -70s-31.667 -43 -53 -61s-44.833 -32.333 -70.5 -43s-49.834 -16 -72.501 -16c-24 0 -48.5 3.83301 -73.5 11.5s-48.667 16 -71 25l-61.5 25 c-18.667 7.66699 -34 11.5 -46 11.5c-16.667 0 -31.667 -3.83301 -45 -11.5s-26.166 -16 -38.499 -25s-24.833 -17.333 -37.5 -25s-26.334 -11.5 -41.001 -11.5c-10.667 0 -21.834 1.83301 -33.501 5.5s-22.167 9.83398 -31.5 18.501s-17.166 19.834 -23.499 33.501 s-9.5 30.5 -9.5 50.5z"/>
    <glyph glyph-name="Odieresis" unicode="Ö" horiz-adv-x="1669" d="M90 756c0 108 16.165 208.001 48.498 300.001s80 171.5 143 238.5s140.833 119.5 233.5 157.5s199.667 57 321 57c120.667 0 227.334 -19 320.001 -57s170.5 -90.5 233.5 -157.5s110.667 -146.5 143 -238.5s48.5 -192 48.5 -300c0 -69.333 -6.83301 -137 -20.5 -203 s-34 -128.333 -61 -187s-61.167 -112.5 -102.5 -161.5s-89.5 -91.333 -144.5 -127s-117.167 -63.334 -186.5 -83.001s-146 -29.5 -230 -29.5c-132 0 -245.167 20.167 -339.5 60.5s-171.666 96 -231.999 167s-104.5 154.667 -132.5 251s-42 200.5 -42 312.5zM425.998 756.001 c0 -70.667 6.50098 -137.5 19.501 -200.5s35.333 -118.167 67 -165.5s73.667 -84.833 126 -112.5s118.166 -41.5 197.499 -41.5c76 0 140.167 13.833 192.5 41.5s94.5 65.167 126.5 112.5s55 102.5 69 165.5s21 129.833 21 200.5s-8.5 135.5 -25.5 194.5 s-42.5 109.833 -76.5 152.5s-76.5 76 -127.5 100s-110.833 36 -179.5 36s-128.667 -12 -180 -36s-94 -57.333 -128 -100s-59.5 -93.5 -76.5 -152.5s-25.5 -123.833 -25.5 -194.5zM454.999 1896c0 20.667 4 40 12 58s18.833 33.667 32.5 47s29.5 24 47.5 32s37.333 12 58 12 s40 -4 58 -12s33.667 -18.667 47 -32s24 -29 32 -47s12 -37.333 12 -58s-4 -40 -12 -58s-18.667 -33.833 -32 -47.5s-29 -24.5 -47 -32.5s-37.333 -12 -58 -12s-40 4 -58 12s-33.833 18.833 -47.5 32.5s-24.5 29.5 -32.5 47.5s-12 37.333 -12 58zM872.999 1896 c0 20.667 4 40 12 58s18.833 33.667 32.5 47s29.5 24 47.5 32s37.333 12 58 12c20 0 39.167 -4 57.5 -12s34.166 -18.667 47.499 -32s24 -29 32 -47s12 -37.333 12 -58s-4 -40 -12 -58s-18.667 -33.833 -32 -47.5s-29.166 -24.5 -47.499 -32.5s-37.5 -12 -57.5 -12 c-20.667 0 -40 4 -58 12s-33.833 18.833 -47.5 32.5s-24.5 29.5 -32.5 47.5s-12 37.333 -12 58z"/>
    <glyph glyph-name="multiply" unicode="×" horiz-adv-x="1229" d="M1069 297c12.667 -12.667 22.334 -25.667 29.001 -39s10 -27.666 10 -42.999c0 -19.333 -3.33301 -36.833 -10 -52.5s-16 -29.167 -28 -40.5s-26.167 -20.166 -42.5 -26.499s-33.833 -9.5 -52.5 -9.5c-14.667 0 -28.667 3.83301 -42 11.5s-25.333 16.834 -36 27.501 l-283 281l-282 -281c-10.667 -10.667 -22.667 -19.834 -36 -27.501s-27.333 -11.5 -42 -11.5c-19.333 0 -37 3.16699 -53 9.5s-30 15.166 -42 26.499s-21.333 24.833 -28 40.5s-10 33.167 -10 52.5c0 15.333 3.33301 29.666 10 42.999s16.334 26.333 29.001 39l280 283 l-280 282c-12.667 12.667 -22.334 25.667 -29.001 39s-10 27.666 -10 42.999c0 18.667 3.33301 36 10 52s16 29.667 28 41s26 20.166 42 26.499s33.667 9.5 53 9.5c14.667 0 28.667 -3.83301 42 -11.5s25.333 -16.834 36 -27.501l282 -280l283 280 c10.667 10.667 22.667 19.834 36 27.501s27.333 11.5 42 11.5c18.667 0 36.167 -3.16699 52.5 -9.5s30.5 -15.166 42.5 -26.499s21.333 -25 28 -41s10 -33.333 10 -52c0 -15.333 -3.33301 -29.666 -10 -42.999s-16.334 -26.333 -29.001 -39l-281 -282z"/>
    <glyph glyph-name="Oslash" unicode="Ø" horiz-adv-x="1671" d="M1085 1159c-30.667 25.333 -66.833 45 -108.5 59s-88.5 21 -140.5 21c-68.667 0 -128.667 -12 -180 -36s-94 -57.333 -128 -100s-59.5 -93.5 -76.5 -152.5s-25.5 -123.833 -25.5 -194.5c0 -50.667 3.33301 -99.5 10 -146.5s17.667 -91.167 33 -132.5zM580.001 315 c30.667 -24.667 67 -44 109 -58s91 -21 147 -21c76 0 140.167 13.833 192.5 41.5s94.5 65.167 126.5 112.5s55 102.5 69 165.5s21 129.833 21 200.5c0 46 -3.66699 89.5 -11 130.5s-19.333 80.167 -36 117.5zM242.001 225c-52.667 68.667 -91.1689 148 -115.502 238 s-36.5 187.667 -36.5 293c0 108 16.167 208 48.5 300s80 171.5 143 238.5s140.833 119.5 233.5 157.5s199.667 57 321 57c91.333 0 174.166 -10.833 248.499 -32.5s141.5 -53.167 201.5 -94.5l88 99c6 6.66699 12.833 13.834 20.5 21.501s16 14.834 25 21.501 s18.5 12 28.5 16s21 6 33 6c10.667 0 21.5 -1.33301 32.5 -4s20.833 -7.5 29.5 -14.5s15.834 -16.167 21.501 -27.5s8.5 -25.333 8.5 -42c0 -19.333 -6 -37 -18 -53s-25 -32.333 -39 -49l-93 -103c52.667 -64.667 92.167 -139.334 118.5 -224.001s39.5 -175.667 39.5 -273 c0 -69.333 -6.83301 -137 -20.5 -203s-34 -128.333 -61 -187s-61.167 -112.5 -102.5 -161.5s-89.5 -91.333 -144.5 -127s-117.167 -63.334 -186.5 -83.001s-146 -29.5 -230 -29.5c-97.333 0 -183.666 10.833 -258.999 32.5s-141.333 53.167 -198 94.5l-107 -119 c-11.333 -12 -24.5 -22.5 -39.5 -31.5s-31.167 -13.5 -48.5 -13.5c-15.333 0 -28.5 3.33301 -39.5 10s-20.167 14.667 -27.5 24s-12.666 19.333 -15.999 30s-5 20 -5 28c0 23.333 6.83301 44 20.5 62s28.167 35.667 43.5 53z"/>
    <glyph glyph-name="Ugrave" unicode="Ù" horiz-adv-x="1586" d="M156 1333c0 50.667 15.002 91.334 45.002 122.001s71 46 123 46c51.333 0 92.166 -15.333 122.499 -46s45.5 -71.334 45.5 -122.001v-807c0 -100 26.667 -173.333 80 -220s128.333 -70 225 -70c96 0 170.833 23.333 224.5 70s80.5 120 80.5 220v807 c0 50.667 15 91.334 45 122.001s71 46 123 46c51.333 0 92.166 -15.333 122.499 -46s45.5 -71.334 45.5 -122.001v-780c0 -101.333 -15 -189 -45 -263s-72.833 -135 -128.5 -183s-123 -83.667 -202 -107s-167.5 -35 -265.5 -35s-186.5 11.667 -265.5 35 s-146.333 59 -202 107s-98.5 109 -128.5 183s-45 161.667 -45 263v780zM931.002 1912c22.667 -18.667 38.332 -35 46.999 -49s13 -30.333 13 -49c0 -17.333 -3.33301 -32.333 -10 -45s-15 -23 -25 -31s-21.167 -14 -33.5 -18s-24.5 -6 -36.5 -6 c-5.33301 0 -10.666 0.333008 -15.999 1s-11.666 2.16699 -18.999 4.5s-15.833 5.83301 -25.5 10.5s-20.834 11.334 -33.501 20.001l-184 125c-24.667 16.667 -43.5 34.5 -56.5 53.5s-19.5 38.167 -19.5 57.5c0 10 2 21.667 6 35s10.333 25.666 19 36.999s20 21 34 29 s31.333 12 52 12c24.667 0 48.5 -7.5 71.5 -22.5s44.833 -30.833 65.5 -47.5z"/>
    <glyph glyph-name="Uacute" unicode="Ú" horiz-adv-x="1592" d="M156 1333c0 50.667 15.002 91.334 45.002 122.001s71 46 123 46c51.333 0 92.166 -15.333 122.499 -46s45.5 -71.334 45.5 -122.001v-807c0 -100 26.667 -173.333 80 -220s128.333 -70 225 -70c96 0 170.833 23.333 224.5 70s80.5 120 80.5 220v807 c0 50.667 15 91.334 45 122.001s71 46 123 46c51.333 0 92.166 -15.333 122.499 -46s45.5 -71.334 45.5 -122.001v-780c0 -101.333 -15 -189 -45 -263s-72.833 -135 -128.5 -183s-123 -83.667 -202 -107s-167.5 -35 -265.5 -35s-186.5 11.667 -265.5 35 s-146.333 59 -202 107s-98.5 109 -128.5 183s-45 161.667 -45 263v780zM773.002 2058c20 16.667 41.665 32.5 64.998 47.5s47.333 22.5 72 22.5c20.667 0 38 -4 52 -12s25.333 -17.667 34 -29s14.834 -23.666 18.501 -36.999s5.5 -25 5.5 -35c0 -40 -25 -77 -75 -111 l-185 -125c-12.667 -8.66699 -23.667 -15.334 -33 -20.001s-17.666 -8.16699 -24.999 -10.5s-13.833 -3.83301 -19.5 -4.5s-11.167 -1 -16.5 -1c-12 0 -24.167 2 -36.5 6s-23.5 10 -33.5 18s-18.167 18.333 -24.5 31s-9.5 27.667 -9.5 45c0 18.667 4.16699 35 12.5 49 s23.833 30.333 46.5 49z"/>
    <glyph glyph-name="Ucircumflex" unicode="Û" horiz-adv-x="1592" d="M156 1333c0 50.667 15.002 91.334 45.002 122.001s71 46 123 46c51.333 0 92.166 -15.333 122.499 -46s45.5 -71.334 45.5 -122.001v-807c0 -100 26.667 -173.333 80 -220s128.333 -70 225 -70c96 0 170.833 23.333 224.5 70s80.5 120 80.5 220v807 c0 50.667 15 91.334 45 122.001s71 46 123 46c51.333 0 92.166 -15.333 122.499 -46s45.5 -71.334 45.5 -122.001v-780c0 -101.333 -15 -189 -45 -263s-72.833 -135 -128.5 -183s-123 -83.667 -202 -107s-167.5 -35 -265.5 -35s-186.5 11.667 -265.5 35 s-146.333 59 -202 107s-98.5 109 -128.5 183s-45 161.667 -45 263v780zM634.002 1773c-11.333 -12 -21.5049 -21.667 -30.5049 -29s-17.5 -13.333 -25.5 -18s-16.333 -7.83398 -25 -9.50098s-18 -2.5 -28 -2.5s-20.333 2.5 -31 7.5s-20.5 12 -29.5 21s-16.5 20 -22.5 33 s-9 27.833 -9 44.5c0 10 5.16699 22.333 15.5 37s23 30.334 38 47.001s31.333 33.334 49 50.001l48.5 46c18.667 17.333 35.5 31.333 50.5 42s29.333 19 43 25s27.334 10 41.001 12s29.167 3 46.5 3c16.667 0 31.834 -1 45.501 -3s27.334 -6 41.001 -12 s27.834 -14.333 42.501 -25s31.667 -24.667 51 -42l48.5 -46c17.667 -16.667 34 -33.334 49 -50.001s27.667 -32.334 38 -47.001s15.5 -27 15.5 -37c0 -16.667 -3 -31.5 -9 -44.5s-13.5 -24 -22.5 -33s-18.833 -16 -29.5 -21s-21 -7.5 -31 -7.5s-19.167 0.833008 -27.5 2.5 s-16.666 4.83398 -24.999 9.50098s-16.833 10.667 -25.5 18s-18.667 17 -30 29l-131 131z"/>
    <glyph glyph-name="Udieresis" unicode="Ü" horiz-adv-x="1568" d="M156 1333c0 50.667 15.002 91.334 45.002 122.001s71 46 123 46c51.333 0 92.166 -15.333 122.499 -46s45.5 -71.334 45.5 -122.001v-807c0 -100 26.667 -173.333 80 -220s128.333 -70 225 -70c96 0 170.833 23.333 224.5 70s80.5 120 80.5 220v807 c0 50.667 15 91.334 45 122.001s71 46 123 46c51.333 0 92.166 -15.333 122.499 -46s45.5 -71.334 45.5 -122.001v-780c0 -101.333 -15 -189 -45 -263s-72.833 -135 -128.5 -183s-123 -83.667 -202 -107s-167.5 -35 -265.5 -35s-186.5 11.667 -265.5 35 s-146.333 59 -202 107s-98.5 109 -128.5 183s-45 161.667 -45 263v780zM401.002 1896c0 20.667 4 40 12 58s18.833 33.667 32.5 47s29.5 24 47.5 32s37.333 12 58 12s40 -4 58 -12s33.667 -18.667 47 -32s24 -29 32 -47s12 -37.333 12 -58s-4 -40 -12 -58 s-18.667 -33.833 -32 -47.5s-29 -24.5 -47 -32.5s-37.333 -12 -58 -12s-40 4 -58 12s-33.833 18.833 -47.5 32.5s-24.5 29.5 -32.5 47.5s-12 37.333 -12 58zM819.002 1896c0 20.667 4 40 12 58s18.833 33.667 32.5 47s29.5 24 47.5 32s37.333 12 58 12 c20 0 39.167 -4 57.5 -12s34.166 -18.667 47.499 -32s24 -29 32 -47s12 -37.333 12 -58s-4 -40 -12 -58s-18.667 -33.833 -32 -47.5s-29.166 -24.5 -47.499 -32.5s-37.5 -12 -57.5 -12c-20.667 0 -40 4 -58 12s-33.833 18.833 -47.5 32.5s-24.5 29.5 -32.5 47.5 s-12 37.333 -12 58z"/>
    <glyph glyph-name="Yacute" unicode="Ý" horiz-adv-x="1272" d="M459 575l-411.999 685c-8 13.333 -14.833 27.5 -20.5 42.5s-8.5 30.167 -8.5 45.5c0 28.667 5.83301 52.667 17.5 72s26 35 43 47s35.5 20.667 55.5 26s38 8 54 8c40 0 71 -8.16699 93 -24.5s41.667 -40.833 59 -73.5l293 -539l291 539 c10 18.667 19.833 34.167 29.5 46.5s20.167 22.333 31.5 30s23.833 13.167 37.5 16.5s29.167 5 46.5 5c15.333 0 32.5 -2.66699 51.5 -8s37 -14 54 -26s31.333 -27.667 43 -47s17.5 -43.333 17.5 -72c0 -15.333 -2.66699 -30.5 -8 -45.5s-12.333 -29.167 -21 -42.5 l-411 -685v-434c0 -25.333 -4 -48.166 -12 -68.499s-19.333 -38 -34 -53s-32.334 -26.5 -53.001 -34.5s-43.667 -12 -69 -12c-26 0 -49.333 4 -70 12s-38.167 19.5 -52.5 34.5s-25.5 32.667 -33.5 53s-12 43.166 -12 68.499v434zM600.001 2029 c20 16.667 41.665 32.5 64.998 47.5s47.333 22.5 72 22.5c20.667 0 38 -4 52 -12s25.333 -17.667 34 -29s14.834 -23.666 18.501 -36.999s5.5 -25 5.5 -35c0 -40 -25 -77 -75 -111l-185 -125c-12.667 -8.66699 -23.667 -15.334 -33 -20.001s-17.666 -8.16699 -24.999 -10.5 s-13.833 -3.83301 -19.5 -4.5s-11.167 -1 -16.5 -1c-12 0 -24.167 2 -36.5 6s-23.5 10 -33.5 18s-18.167 18.333 -24.5 31s-9.5 27.667 -9.5 45c0 18.667 4.16699 35 12.5 49s23.833 30.333 46.5 49z"/>
    <glyph glyph-name="Thorn" unicode="Þ" horiz-adv-x="1442" d="M156 1333c0 50.667 15.0039 91.334 45.0039 122.001s71 46 123 46c51.333 0 92.166 -15.333 122.499 -46s45.5 -71.334 45.5 -122.001v-100h374c70.667 0 137 -9 199 -27s116 -45.833 162 -83.5s82.333 -86 109 -145s40 -129.5 40 -211.5 c0 -67.333 -11.333 -129.5 -34 -186.5s-55.834 -106.167 -99.501 -147.5s-97.334 -73.833 -161.001 -97.5s-136.167 -35.5 -217.5 -35.5h-372v-158c0 -25.333 -4 -48.166 -12 -68.499s-19.333 -38 -34 -53s-32.334 -26.5 -53.001 -34.5s-43.667 -12 -69 -12 c-26 0 -49.333 4 -70 12s-38.167 19.5 -52.5 34.5s-25.5 32.667 -33.5 53s-12 43.166 -12 68.499v1192zM492.004 557h312.998c34 0 65.333 5 94 15s53.5 24 74.5 42s37.333 39.833 49 65.5s17.5 54.5 17.5 86.5c0 36.667 -6.33301 68.167 -19 94.5s-30.667 48 -54 65 s-51.666 29.5 -84.999 37.5s-70.666 12 -111.999 12h-278v-418z"/>
    <glyph glyph-name="germandbls" unicode="ß" horiz-adv-x="1251" d="M119 1040c0 150.667 42.999 266.168 128.999 346.501s211 120.5 375 120.5c56 0 111.833 -7.83301 167.5 -23.5s105.834 -39.334 150.501 -71.001s81 -71.834 109 -120.501s42 -106 42 -172c0 -34 -4 -65 -12 -93s-19.833 -53.667 -35.5 -77s-34.667 -44.833 -57 -64.5 s-47.833 -37.834 -76.5 -54.501c44 -12 82.167 -30 114.5 -54s59.166 -52.333 80.499 -85s37.166 -69 47.499 -109s15.5 -82 15.5 -126c0 -70 -11.167 -134.5 -33.5 -193.5s-53.833 -110 -94.5 -153s-89.334 -76.667 -146.001 -101s-119.334 -36.5 -188.001 -36.5 c-21.333 0 -41.833 2.33301 -61.5 7s-37 12 -52 22s-27.167 22.5 -36.5 37.5s-14 33.167 -14 54.5c0 26.667 4.16699 47.667 12.5 63s19.833 27 34.5 35s31.334 13.667 50.001 17s38.667 6.66602 60 9.99902c20.667 2.66699 40.5 8.83398 59.5 18.501 s35.833 23.834 50.5 42.501s26.334 42.167 35.001 70.5s13 63.166 13 104.499c0 40.667 -3.83301 75.167 -11.5 103.5s-20 52 -37 71s-38.833 34.167 -65.5 45.5s-59 20.333 -97 27c-28.667 5.33301 -53.167 15.833 -73.5 31.5s-30.5 39.5 -30.5 71.5 c0 32.667 7.83301 57.334 23.5 74.001s38.5 28 68.5 34c24.667 5.33301 46.667 10.833 66 16.5s35.833 14.334 49.5 26.001s24.167 28 31.5 49s11 49.5 11 85.5c0 60.667 -16 108.5 -48 143.5s-78.333 52.5 -139 52.5c-37.333 0 -68.166 -7 -92.499 -21 s-43.5 -32.167 -57.5 -54.5s-23.833 -47.333 -29.5 -75s-8.5 -55.167 -8.5 -82.5v-930c0 -49.333 -13.667 -86.666 -41 -111.999s-63.666 -38 -108.999 -38s-81.5 12.667 -108.5 38s-40.5 62.666 -40.5 111.999v917z"/>
    <glyph glyph-name="agrave" unicode="à" horiz-adv-x="1272" d="M1112 289c0 -31.333 1.65918 -57.1729 4.99219 -77.5059s6.83301 -37.666 10.5 -51.999s7.16699 -26.833 10.5 -37.5s5 -22 5 -34c0 -17.333 -3.66699 -33 -11 -47s-17.333 -26 -30 -36s-27 -17.833 -43 -23.5s-33 -8.5 -51 -8.5c-32 0 -59 4.66699 -81 14s-40 22 -54 38 s-24.167 34.5 -30.5 55.5s-10.166 43.167 -11.499 66.5c-29.333 -32 -59.666 -59.167 -90.999 -81.5s-64 -40.333 -98 -54s-69.333 -23.5 -106 -29.5s-74.667 -9 -114 -9c-42.667 0 -84.167 7 -124.5 21s-76.333 34.333 -108 61s-57.167 58.834 -76.5 96.501 s-29 80.167 -29 127.5c0 62 11 113.5 33 154.5s52 74.333 90 100s82.333 45.334 133 59.001s104.667 23.834 162 30.501l182 20c18 2 34.833 4.83301 50.5 8.5s29.334 9.5 41.001 17.5s20.834 18.833 27.501 32.5s10 31.167 10 52.5s-5.16699 39.833 -15.5 55.5 s-24 28.5 -41 38.5s-37 17.333 -60 22s-46.833 7 -71.5 7c-37.333 0 -69 -4 -95 -12s-48.5 -18.167 -67.5 -30.5s-35.5 -25.5 -49.5 -39.5l-41 -39.5c-13.333 -12.333 -27.333 -22.5 -42 -30.5s-31.667 -12 -51 -12s-36.666 3 -51.999 9s-28.666 14.333 -39.999 25 s-20 22.834 -26 36.501s-9 28.167 -9 43.5c0 30 10.333 60.833 31 92.5s51 60.834 91 87.501s89.5 48.5 148.5 65.5s127.167 25.5 204.5 25.5c71.333 0 136.833 -5.83301 196.5 -17.5s110.834 -30 153.501 -55s75.834 -56.833 99.501 -95.5s35.5 -85 35.5 -139v-502z M812.992 503.993c-8 -8 -17.666 -14.6709 -28.999 -20.0039s-23 -9.66602 -35 -12.999s-23.667 -6.16602 -35 -8.49902s-21.333 -4.16602 -30 -5.49902l-109 -17c-62.667 -9.33301 -110.334 -24.833 -143.001 -46.5s-49 -55.167 -49 -100.5 c0 -17.333 3.83301 -33.333 11.5 -48s18.667 -27.667 33 -39s31.666 -20.166 51.999 -26.499s43.5 -9.5 69.5 -9.5c40.667 0 77.334 6.16699 110.001 18.5s60.5 28.5 83.5 48.5s40.5 43 52.5 69s18 53 18 81v117zM735.993 1371.99c22.667 -18.667 38.332 -35 46.999 -49 s13 -30.333 13 -49c0 -17.333 -3.33301 -32.333 -10 -45s-15 -23 -25 -31s-21.167 -14 -33.5 -18s-24.5 -6 -36.5 -6c-5.33301 0 -10.666 0.333008 -15.999 1s-11.666 2.16699 -18.999 4.5s-15.833 5.83301 -25.5 10.5s-20.834 11.334 -33.501 20.001l-184 125 c-24.667 16.667 -43.5 34.5 -56.5 53.5s-19.5 38.167 -19.5 57.5c0 10 2 21.667 6 35s10.333 25.666 19 36.999s20 21 34 29s31.333 12 52 12c24.667 0 48.5 -7.5 71.5 -22.5s44.833 -30.833 65.5 -47.5z"/>
    <glyph glyph-name="aacute" unicode="á" horiz-adv-x="1237" d="M1112 289c0 -31.333 1.65918 -57.1729 4.99219 -77.5059s6.83301 -37.666 10.5 -51.999s7.16699 -26.833 10.5 -37.5s5 -22 5 -34c0 -17.333 -3.66699 -33 -11 -47s-17.333 -26 -30 -36s-27 -17.833 -43 -23.5s-33 -8.5 -51 -8.5c-32 0 -59 4.66699 -81 14s-40 22 -54 38 s-24.167 34.5 -30.5 55.5s-10.166 43.167 -11.499 66.5c-29.333 -32 -59.666 -59.167 -90.999 -81.5s-64 -40.333 -98 -54s-69.333 -23.5 -106 -29.5s-74.667 -9 -114 -9c-42.667 0 -84.167 7 -124.5 21s-76.333 34.333 -108 61s-57.167 58.834 -76.5 96.501 s-29 80.167 -29 127.5c0 62 11 113.5 33 154.5s52 74.333 90 100s82.333 45.334 133 59.001s104.667 23.834 162 30.501l182 20c18 2 34.833 4.83301 50.5 8.5s29.334 9.5 41.001 17.5s20.834 18.833 27.501 32.5s10 31.167 10 52.5s-5.16699 39.833 -15.5 55.5 s-24 28.5 -41 38.5s-37 17.333 -60 22s-46.833 7 -71.5 7c-37.333 0 -69 -4 -95 -12s-48.5 -18.167 -67.5 -30.5s-35.5 -25.5 -49.5 -39.5l-41 -39.5c-13.333 -12.333 -27.333 -22.5 -42 -30.5s-31.667 -12 -51 -12s-36.666 3 -51.999 9s-28.666 14.333 -39.999 25 s-20 22.834 -26 36.501s-9 28.167 -9 43.5c0 30 10.333 60.833 31 92.5s51 60.834 91 87.501s89.5 48.5 148.5 65.5s127.167 25.5 204.5 25.5c71.333 0 136.833 -5.83301 196.5 -17.5s110.834 -30 153.501 -55s75.834 -56.833 99.501 -95.5s35.5 -85 35.5 -139v-502z M812.992 503.993c-8 -8 -17.666 -14.6709 -28.999 -20.0039s-23 -9.66602 -35 -12.999s-23.667 -6.16602 -35 -8.49902s-21.333 -4.16602 -30 -5.49902l-109 -17c-62.667 -9.33301 -110.334 -24.833 -143.001 -46.5s-49 -55.167 -49 -100.5 c0 -17.333 3.83301 -33.333 11.5 -48s18.667 -27.667 33 -39s31.666 -20.166 51.999 -26.499s43.5 -9.5 69.5 -9.5c40.667 0 77.334 6.16699 110.001 18.5s60.5 28.5 83.5 48.5s40.5 43 52.5 69s18 53 18 81v117zM591.993 1488.99c20 16.667 41.665 32.5 64.998 47.5 s47.333 22.5 72 22.5c20.667 0 38 -4 52 -12s25.333 -17.667 34 -29s14.834 -23.666 18.501 -36.999s5.5 -25 5.5 -35c0 -40 -25 -77 -75 -111l-185 -125c-12.667 -8.66699 -23.667 -15.334 -33 -20.001s-17.666 -8.16699 -24.999 -10.5s-13.833 -3.83301 -19.5 -4.5 s-11.167 -1 -16.5 -1c-12 0 -24.167 2 -36.5 6s-23.5 10 -33.5 18s-18.167 18.333 -24.5 31s-9.5 27.667 -9.5 45c0 18.667 4.16699 35 12.5 49s23.833 30.333 46.5 49z"/>
    <glyph glyph-name="acircumflex" unicode="â" horiz-adv-x="1225" d="M1112 289c0 -31.333 1.65918 -57.1729 4.99219 -77.5059s6.83301 -37.666 10.5 -51.999s7.16699 -26.833 10.5 -37.5s5 -22 5 -34c0 -17.333 -3.66699 -33 -11 -47s-17.333 -26 -30 -36s-27 -17.833 -43 -23.5s-33 -8.5 -51 -8.5c-32 0 -59 4.66699 -81 14s-40 22 -54 38 s-24.167 34.5 -30.5 55.5s-10.166 43.167 -11.499 66.5c-29.333 -32 -59.666 -59.167 -90.999 -81.5s-64 -40.333 -98 -54s-69.333 -23.5 -106 -29.5s-74.667 -9 -114 -9c-42.667 0 -84.167 7 -124.5 21s-76.333 34.333 -108 61s-57.167 58.834 -76.5 96.501 s-29 80.167 -29 127.5c0 62 11 113.5 33 154.5s52 74.333 90 100s82.333 45.334 133 59.001s104.667 23.834 162 30.501l182 20c18 2 34.833 4.83301 50.5 8.5s29.334 9.5 41.001 17.5s20.834 18.833 27.501 32.5s10 31.167 10 52.5s-5.16699 39.833 -15.5 55.5 s-24 28.5 -41 38.5s-37 17.333 -60 22s-46.833 7 -71.5 7c-37.333 0 -69 -4 -95 -12s-48.5 -18.167 -67.5 -30.5s-35.5 -25.5 -49.5 -39.5l-41 -39.5c-13.333 -12.333 -27.333 -22.5 -42 -30.5s-31.667 -12 -51 -12s-36.666 3 -51.999 9s-28.666 14.333 -39.999 25 s-20 22.834 -26 36.501s-9 28.167 -9 43.5c0 30 10.333 60.833 31 92.5s51 60.834 91 87.501s89.5 48.5 148.5 65.5s127.167 25.5 204.5 25.5c71.333 0 136.833 -5.83301 196.5 -17.5s110.834 -30 153.501 -55s75.834 -56.833 99.501 -95.5s35.5 -85 35.5 -139v-502z M812.992 503.993c-8 -8 -17.666 -14.6709 -28.999 -20.0039s-23 -9.66602 -35 -12.999s-23.667 -6.16602 -35 -8.49902s-21.333 -4.16602 -30 -5.49902l-109 -17c-62.667 -9.33301 -110.334 -24.833 -143.001 -46.5s-49 -55.167 -49 -100.5 c0 -17.333 3.83301 -33.333 11.5 -48s18.667 -27.667 33 -39s31.666 -20.166 51.999 -26.499s43.5 -9.5 69.5 -9.5c40.667 0 77.334 6.16699 110.001 18.5s60.5 28.5 83.5 48.5s40.5 43 52.5 69s18 53 18 81v117zM473.993 1232.99 c-11.333 -12 -21.5049 -21.667 -30.5049 -29s-17.5 -13.333 -25.5 -18s-16.333 -7.83398 -25 -9.50098s-18 -2.5 -28 -2.5s-20.333 2.5 -31 7.5s-20.5 12 -29.5 21s-16.5 20 -22.5 33s-9 27.833 -9 44.5c0 10 5.16699 22.333 15.5 37s23 30.334 38 47.001 s31.333 33.334 49 50.001l48.5 46c18.667 17.333 35.5 31.333 50.5 42s29.333 19 43 25s27.334 10 41.001 12s29.167 3 46.5 3c16.667 0 31.834 -1 45.501 -3s27.334 -6 41.001 -12s27.834 -14.333 42.501 -25s31.667 -24.667 51 -42l48.5 -46 c17.667 -16.667 34 -33.334 49 -50.001s27.667 -32.334 38 -47.001s15.5 -27 15.5 -37c0 -16.667 -3 -31.5 -9 -44.5s-13.5 -24 -22.5 -33s-18.833 -16 -29.5 -21s-21 -7.5 -31 -7.5s-19.167 0.833008 -27.5 2.5s-16.666 4.83398 -24.999 9.50098s-16.833 10.667 -25.5 18 s-18.667 17 -30 29l-131 131z"/>
    <glyph glyph-name="atilde" unicode="ã" horiz-adv-x="1207" d="M1112 289c0 -31.333 1.65918 -57.1729 4.99219 -77.5059s6.83301 -37.666 10.5 -51.999s7.16699 -26.833 10.5 -37.5s5 -22 5 -34c0 -17.333 -3.66699 -33 -11 -47s-17.333 -26 -30 -36s-27 -17.833 -43 -23.5s-33 -8.5 -51 -8.5c-32 0 -59 4.66699 -81 14s-40 22 -54 38 s-24.167 34.5 -30.5 55.5s-10.166 43.167 -11.499 66.5c-29.333 -32 -59.666 -59.167 -90.999 -81.5s-64 -40.333 -98 -54s-69.333 -23.5 -106 -29.5s-74.667 -9 -114 -9c-42.667 0 -84.167 7 -124.5 21s-76.333 34.333 -108 61s-57.167 58.834 -76.5 96.501 s-29 80.167 -29 127.5c0 62 11 113.5 33 154.5s52 74.333 90 100s82.333 45.334 133 59.001s104.667 23.834 162 30.501l182 20c18 2 34.833 4.83301 50.5 8.5s29.334 9.5 41.001 17.5s20.834 18.833 27.501 32.5s10 31.167 10 52.5s-5.16699 39.833 -15.5 55.5 s-24 28.5 -41 38.5s-37 17.333 -60 22s-46.833 7 -71.5 7c-37.333 0 -69 -4 -95 -12s-48.5 -18.167 -67.5 -30.5s-35.5 -25.5 -49.5 -39.5l-41 -39.5c-13.333 -12.333 -27.333 -22.5 -42 -30.5s-31.667 -12 -51 -12s-36.666 3 -51.999 9s-28.666 14.333 -39.999 25 s-20 22.834 -26 36.501s-9 28.167 -9 43.5c0 30 10.333 60.833 31 92.5s51 60.834 91 87.501s89.5 48.5 148.5 65.5s127.167 25.5 204.5 25.5c71.333 0 136.833 -5.83301 196.5 -17.5s110.834 -30 153.501 -55s75.834 -56.833 99.501 -95.5s35.5 -85 35.5 -139v-502z M812.992 503.993c-8 -8 -17.666 -14.6709 -28.999 -20.0039s-23 -9.66602 -35 -12.999s-23.667 -6.16602 -35 -8.49902s-21.333 -4.16602 -30 -5.49902l-109 -17c-62.667 -9.33301 -110.334 -24.833 -143.001 -46.5s-49 -55.167 -49 -100.5 c0 -17.333 3.83301 -33.333 11.5 -48s18.667 -27.667 33 -39s31.666 -20.166 51.999 -26.499s43.5 -9.5 69.5 -9.5c40.667 0 77.334 6.16699 110.001 18.5s60.5 28.5 83.5 48.5s40.5 43 52.5 69s18 53 18 81v117zM211.993 1328.99c0 24 5.83594 46.498 17.5029 67.498 s26.667 39.5 45 55.5s39 28.5 62 37.5s45.833 13.5 68.5 13.5c26.667 0 52.167 -3.66699 76.5 -11s47.833 -15.333 70.5 -24c22.667 -9.33301 44.5 -17.666 65.5 -24.999s40.833 -11 59.5 -11c15.333 0 28.666 3.66699 39.999 11s23.333 15.666 36 24.999 c11.333 8.66699 23.666 16.667 36.999 24s29.666 11 48.999 11c30.667 0 55.334 -6.83301 74.001 -20.5s28 -37.5 28 -71.5c0 -24 -7 -47.333 -21 -70s-31.667 -43 -53 -61s-44.833 -32.333 -70.5 -43s-49.834 -16 -72.501 -16c-24 0 -48.5 3.83301 -73.5 11.5 s-48.667 16 -71 25l-61.5 25c-18.667 7.66699 -34 11.5 -46 11.5c-16.667 0 -31.667 -3.83301 -45 -11.5s-26.166 -16 -38.499 -25s-24.833 -17.333 -37.5 -25s-26.334 -11.5 -41.001 -11.5c-10.667 0 -21.834 1.83301 -33.501 5.5s-22.167 9.83398 -31.5 18.501 s-17.166 19.834 -23.499 33.501s-9.5 30.5 -9.5 50.5z"/>
    <glyph glyph-name="adieresis" unicode="ä" horiz-adv-x="1237" d="M1112 289c0 -31.333 1.65918 -57.1729 4.99219 -77.5059s6.83301 -37.666 10.5 -51.999s7.16699 -26.833 10.5 -37.5s5 -22 5 -34c0 -17.333 -3.66699 -33 -11 -47s-17.333 -26 -30 -36s-27 -17.833 -43 -23.5s-33 -8.5 -51 -8.5c-32 0 -59 4.66699 -81 14s-40 22 -54 38 s-24.167 34.5 -30.5 55.5s-10.166 43.167 -11.499 66.5c-29.333 -32 -59.666 -59.167 -90.999 -81.5s-64 -40.333 -98 -54s-69.333 -23.5 -106 -29.5s-74.667 -9 -114 -9c-42.667 0 -84.167 7 -124.5 21s-76.333 34.333 -108 61s-57.167 58.834 -76.5 96.501 s-29 80.167 -29 127.5c0 62 11 113.5 33 154.5s52 74.333 90 100s82.333 45.334 133 59.001s104.667 23.834 162 30.501l182 20c18 2 34.833 4.83301 50.5 8.5s29.334 9.5 41.001 17.5s20.834 18.833 27.501 32.5s10 31.167 10 52.5s-5.16699 39.833 -15.5 55.5 s-24 28.5 -41 38.5s-37 17.333 -60 22s-46.833 7 -71.5 7c-37.333 0 -69 -4 -95 -12s-48.5 -18.167 -67.5 -30.5s-35.5 -25.5 -49.5 -39.5l-41 -39.5c-13.333 -12.333 -27.333 -22.5 -42 -30.5s-31.667 -12 -51 -12s-36.666 3 -51.999 9s-28.666 14.333 -39.999 25 s-20 22.834 -26 36.501s-9 28.167 -9 43.5c0 30 10.333 60.833 31 92.5s51 60.834 91 87.501s89.5 48.5 148.5 65.5s127.167 25.5 204.5 25.5c71.333 0 136.833 -5.83301 196.5 -17.5s110.834 -30 153.501 -55s75.834 -56.833 99.501 -95.5s35.5 -85 35.5 -139v-502z M812.992 503.993c-8 -8 -17.666 -14.6709 -28.999 -20.0039s-23 -9.66602 -35 -12.999s-23.667 -6.16602 -35 -8.49902s-21.333 -4.16602 -30 -5.49902l-109 -17c-62.667 -9.33301 -110.334 -24.833 -143.001 -46.5s-49 -55.167 -49 -100.5 c0 -17.333 3.83301 -33.333 11.5 -48s18.667 -27.667 33 -39s31.666 -20.166 51.999 -26.499s43.5 -9.5 69.5 -9.5c40.667 0 77.334 6.16699 110.001 18.5s60.5 28.5 83.5 48.5s40.5 43 52.5 69s18 53 18 81v117zM238.993 1355.99c0 20.667 4 40 12 58 s18.833 33.667 32.5 47s29.5 24 47.5 32s37.333 12 58 12s40 -4 58 -12s33.667 -18.667 47 -32s24 -29 32 -47s12 -37.333 12 -58s-4 -40 -12 -58s-18.667 -33.833 -32 -47.5s-29 -24.5 -47 -32.5s-37.333 -12 -58 -12s-40 4 -58 12s-33.833 18.833 -47.5 32.5 s-24.5 29.5 -32.5 47.5s-12 37.333 -12 58zM656.993 1355.99c0 20.667 4 40 12 58s18.833 33.667 32.5 47s29.5 24 47.5 32s37.333 12 58 12c20 0 39.167 -4 57.5 -12s34.166 -18.667 47.499 -32s24 -29 32 -47s12 -37.333 12 -58s-4 -40 -12 -58s-18.667 -33.833 -32 -47.5 s-29.166 -24.5 -47.499 -32.5s-37.5 -12 -57.5 -12c-20.667 0 -40 4 -58 12s-33.833 18.833 -47.5 32.5s-24.5 29.5 -32.5 47.5s-12 37.333 -12 58z"/>
    <glyph glyph-name="aring" unicode="å" horiz-adv-x="1237" d="M1112 289c0 -31.333 1.65918 -57.1729 4.99219 -77.5059s6.83301 -37.666 10.5 -51.999s7.16699 -26.833 10.5 -37.5s5 -22 5 -34c0 -17.333 -3.66699 -33 -11 -47s-17.333 -26 -30 -36s-27 -17.833 -43 -23.5s-33 -8.5 -51 -8.5c-32 0 -59 4.66699 -81 14s-40 22 -54 38 s-24.167 34.5 -30.5 55.5s-10.166 43.167 -11.499 66.5c-29.333 -32 -59.666 -59.167 -90.999 -81.5s-64 -40.333 -98 -54s-69.333 -23.5 -106 -29.5s-74.667 -9 -114 -9c-42.667 0 -84.167 7 -124.5 21s-76.333 34.333 -108 61s-57.167 58.834 -76.5 96.501 s-29 80.167 -29 127.5c0 62 11 113.5 33 154.5s52 74.333 90 100s82.333 45.334 133 59.001s104.667 23.834 162 30.501l182 20c18 2 34.833 4.83301 50.5 8.5s29.334 9.5 41.001 17.5s20.834 18.833 27.501 32.5s10 31.167 10 52.5s-5.16699 39.833 -15.5 55.5 s-24 28.5 -41 38.5s-37 17.333 -60 22s-46.833 7 -71.5 7c-37.333 0 -69 -4 -95 -12s-48.5 -18.167 -67.5 -30.5s-35.5 -25.5 -49.5 -39.5l-41 -39.5c-13.333 -12.333 -27.333 -22.5 -42 -30.5s-31.667 -12 -51 -12s-36.666 3 -51.999 9s-28.666 14.333 -39.999 25 s-20 22.834 -26 36.501s-9 28.167 -9 43.5c0 30 10.333 60.833 31 92.5s51 60.834 91 87.501s89.5 48.5 148.5 65.5s127.167 25.5 204.5 25.5c71.333 0 136.833 -5.83301 196.5 -17.5s110.834 -30 153.501 -55s75.834 -56.833 99.501 -95.5s35.5 -85 35.5 -139v-502z M812.992 503.993c-8 -8 -17.666 -14.6709 -28.999 -20.0039s-23 -9.66602 -35 -12.999s-23.667 -6.16602 -35 -8.49902s-21.333 -4.16602 -30 -5.49902l-109 -17c-62.667 -9.33301 -110.334 -24.833 -143.001 -46.5s-49 -55.167 -49 -100.5 c0 -17.333 3.83301 -33.333 11.5 -48s18.667 -27.667 33 -39s31.666 -20.166 51.999 -26.499s43.5 -9.5 69.5 -9.5c40.667 0 77.334 6.16699 110.001 18.5s60.5 28.5 83.5 48.5s40.5 43 52.5 69s18 53 18 81v117zM398.993 1377.99c0 30.667 5.83301 59.5 17.5 86.5 s27.5 50.5 47.5 70.5s43.5 35.667 70.5 47s55.833 17 86.5 17s59.5 -5.66699 86.5 -17s50.5 -27 70.5 -47s35.667 -43.5 47 -70.5s17 -55.833 17 -86.5s-5.66699 -59.5 -17 -86.5s-27 -50.5 -47 -70.5s-43.5 -35.667 -70.5 -47s-55.833 -17 -86.5 -17 s-59.5 5.66699 -86.5 17s-50.5 27 -70.5 47s-35.833 43.5 -47.5 70.5s-17.5 55.833 -17.5 86.5zM513.993 1377.99c0 -14.667 2.83301 -28.5 8.5 -41.5s13.167 -24.167 22.5 -33.5s20.5 -16.833 33.5 -22.5s27.167 -8.5 42.5 -8.5c30 0 55.167 10.167 75.5 30.5 s30.5 45.5 30.5 75.5c0 14.667 -2.83301 28.667 -8.5 42s-13.167 24.666 -22.5 33.999s-20.5 16.833 -33.5 22.5s-26.833 8.5 -41.5 8.5c-15.333 0 -29.5 -2.83301 -42.5 -8.5s-24.167 -13.167 -33.5 -22.5s-16.833 -20.666 -22.5 -33.999s-8.5 -27.333 -8.5 -42z"/>
    <glyph glyph-name="ae" unicode="æ" horiz-adv-x="1933" d="M1071 479c0 -41.333 7.16309 -78.8359 21.4961 -112.503s33.333 -62.334 57 -86.001s51 -41.834 82 -54.501s63.5 -19 97.5 -19c37.333 0 69 3.66699 95 11s48.5 16.333 67.5 27s35.5 22.5 49.5 35.5s27.5 24.833 40.5 35.5s26.833 19.667 41.5 27s32 11 52 11 c18 0 34.5 -3.5 49.5 -10.5s28 -16 39 -27s19.5 -23.333 25.5 -37s9 -27.5 9 -41.5c0 -30 -7.33301 -57.5 -22 -82.5s-34.5 -47.333 -59.5 -67s-53.5 -36.667 -85.5 -51s-65.5 -26.333 -100.5 -36s-69.833 -16.834 -104.5 -21.501s-67 -7 -97 -7 c-44 0 -84.667 3.16699 -122 9.5s-72.333 17 -105 32s-64 35.167 -94 60.5s-59.333 57 -88 95c-32 -37.333 -65.167 -68.666 -99.5 -93.999s-70 -45.666 -107 -60.999s-75.333 -26.166 -115 -32.499s-80.834 -9.5 -123.501 -9.5c-56 0 -107.833 7 -155.5 21 s-89 34.333 -124 61s-62.333 58.834 -82 96.501s-29.5 80.167 -29.5 127.5c0 62 11 113.5 33 154.5s52 74.333 90 100s82.333 45.334 133 59.001s104.667 23.834 162 30.501l182 20c18 2 34.833 4.83301 50.5 8.5s29.334 9.5 41.001 17.5s20.834 18.833 27.501 32.5 s10 31.167 10 52.5s-5.16699 39.833 -15.5 55.5s-24 28.5 -41 38.5s-37 17.333 -60 22s-46.833 7 -71.5 7c-37.333 0 -69 -4 -95 -12s-48.5 -18.167 -67.5 -30.5s-35.5 -25.5 -49.5 -39.5l-41 -39.5c-13.333 -12.333 -27.333 -22.5 -42 -30.5s-31.667 -12 -51 -12 s-36.666 3 -51.999 9s-28.666 14.333 -39.999 25s-20 22.834 -26 36.501s-9 28.167 -9 43.5c0 30 10.333 60.833 31 92.5s51 60.834 91 87.501s89.5 48.5 148.5 65.5s127.167 25.5 204.5 25.5c34.667 0 68.334 -2 101.001 -6s64.167 -10.833 94.5 -20.5s59.833 -23 88.5 -40 s56.667 -38.5 84 -64.5c14.667 13.333 33 27.666 55 42.999s47.5 29.5 76.5 42.5s61.5 23.833 97.5 32.5s75.667 13 119 13c80 0 152 -14 216 -42s118.167 -65 162.5 -111s78.5 -98.333 102.5 -157s36 -118.667 36 -180c0 -25.333 -2.16699 -46.333 -6.5 -63 s-11.5 -29.834 -21.5 -39.501s-23.5 -16.5 -40.5 -20.5s-37.833 -6 -62.5 -6h-658zM812.996 503.997c-8 -8 -17.666 -14.6709 -28.999 -20.0039s-23 -9.66602 -35 -12.999s-23.667 -6.16602 -35 -8.49902s-21.333 -4.16602 -30 -5.49902l-109 -17 c-62.667 -9.33301 -110.334 -24.833 -143.001 -46.5s-49 -55.167 -49 -100.5c0 -17.333 3.83301 -33.333 11.5 -48s18.667 -27.667 33 -39s31.666 -20.166 51.999 -26.499s43.5 -9.5 69.5 -9.5c40.667 0 77.334 6.16699 110.001 18.5s60.5 28.5 83.5 48.5s40.5 43 52.5 69 s18 53 18 81v117zM1577 650.993c-4 34 -12.999 65.667 -26.999 95s-31.5 54.5 -52.5 75.5s-44.833 37.5 -71.5 49.5s-54.334 18 -83.001 18c-40.667 0 -76.167 -5.5 -106.5 -16.5s-56.333 -26.833 -78 -47.5s-39.667 -45.667 -54 -75s-25.5 -62.333 -33.5 -99h506z"/>
    <glyph glyph-name="ccedilla" unicode="ç" horiz-adv-x="1136" d="M61 514c0 86 12.001 164.841 36.001 236.508s59.667 133.167 107 184.5s106 91.333 176 120s151 43 243 43c62 0 119.667 -8.16699 173 -24.5s99.5 -37.666 138.5 -63.999s69.5 -56.333 91.5 -90s33 -67.834 33 -102.501c0 -21.333 -3.66699 -40.166 -11 -56.499 s-17.333 -29.833 -30 -40.5s-27.5 -18.667 -44.5 -24s-34.833 -8 -53.5 -8c-24 0 -43.167 4.33301 -57.5 13s-26.833 19.5 -37.5 32.5s-21 27.167 -31 42.5s-22.333 29.5 -37 42.5s-33.167 23.833 -55.5 32.5s-51.5 13 -87.5 13c-29.333 0 -59 -5.5 -89 -16.5 s-57.167 -30 -81.5 -57s-44.333 -63 -60 -108s-23.5 -101.167 -23.5 -168.5c0 -46.667 5.5 -88.834 16.5 -126.501s27.167 -69.834 48.5 -96.501s47.666 -47.334 78.999 -62.001s67.333 -22 108 -22c34.667 0 63.167 4.66699 85.5 14s41 21.166 56 35.499 s27.833 29.833 38.5 46.5s22.167 32.167 34.5 46.5s26.666 26.166 42.999 35.499s37.833 14 64.5 14c18.667 0 35.834 -3.16699 51.501 -9.5s28.834 -14.833 39.501 -25.5s19 -22.834 25 -36.501s9 -27.834 9 -42.501c0 -32.667 -9.33301 -67.334 -28 -104.001 s-46.834 -70.334 -84.501 -101.001s-85 -56.167 -142 -76.5s-123.833 -30.5 -200.5 -30.5c-92 0 -172 13.5 -240 40.5s-124.5 64.5 -169.5 112.5s-78.5 105.167 -100.5 171.5s-33 138.5 -33 216.5zM594.001 0.0078125l113.999 0.000976562l-76 -113h15 c26.667 0 51.834 -2.66699 75.501 -8s44 -13.833 61 -25.5s30.5 -26.5 40.5 -44.5s15 -39.667 15 -65c0 -28.667 -6.83301 -54.334 -20.5 -77.001s-32 -41.667 -55 -57s-49.5 -27.166 -79.5 -35.499s-61 -12.5 -93 -12.5c-30.667 0 -56.667 2.5 -78 7.5 s-38.833 11.5 -52.5 19.5s-23.667 17 -30 27s-9.5 20 -9.5 30c0 13.333 4.66699 25.5 14 36.5s21.333 16.5 36 16.5c5.33301 0 12.333 -1.16699 21 -3.5s18 -5 28 -8s20.5 -5.66699 31.5 -8s21.5 -3.5 31.5 -3.5c22.667 0 40.334 6.16699 53.001 18.5s19 28.166 19 47.499 c0 15.333 -3.83301 28 -11.5 38s-20.834 15 -39.501 15c-14.667 0 -27.167 -1 -37.5 -3s-19.833 -3 -28.5 -3c-18.667 0 -31.167 3.66699 -37.5 11s-9.5 17.333 -9.5 30c0 7.33301 2.5 15.333 7.5 24s10.167 17 15.5 25z"/>
    </font>
</defs>
</svg>
